%TF.GenerationSoftware,Altium Limited,Altium Designer,19.0.15 (446)*%
G04 Layer_Physical_Order=1*
G04 Layer_Color=255*
%FSLAX26Y26*%
%MOIN*%
%TF.FileFunction,Copper,L1,Top,Signal*%
%TF.Part,Single*%
G01*
G75*
%TA.AperFunction,NonConductor*%
%ADD10C,0.008000*%
%TA.AperFunction,Conductor*%
%ADD11C,0.038000*%
%TA.AperFunction,SMDPad,CuDef*%
%ADD12R,0.021654X0.023622*%
%ADD13R,0.023622X0.021654*%
%ADD14O,0.023622X0.055118*%
%TA.AperFunction,ConnectorPad*%
%ADD15R,0.031496X0.039370*%
%ADD16R,0.059055X0.027559*%
%TA.AperFunction,SMDPad,CuDef*%
%ADD17R,0.034449X0.009842*%
%ADD18R,0.009842X0.034449*%
%ADD19R,0.027559X0.017716*%
%ADD20C,0.059055*%
%ADD21R,0.023622X0.047244*%
%ADD22R,0.029528X0.031496*%
%ADD23R,0.023622X0.019685*%
%ADD24C,0.012008*%
%ADD25O,0.012008X0.062992*%
%ADD26R,0.035433X0.055118*%
%ADD27R,0.082677X0.013780*%
%ADD28R,0.033465X0.013780*%
%ADD29R,0.029528X0.059055*%
%ADD30R,0.027559X0.009842*%
%ADD31R,0.035433X0.023622*%
%ADD32P,0.044542X4X180.0*%
%ADD33R,0.029528X0.055118*%
%ADD34R,0.031496X0.031496*%
%ADD35C,0.039370*%
%ADD36C,0.047244*%
%ADD37R,0.059055X0.039370*%
%ADD38R,0.031496X0.029528*%
%ADD39R,0.019685X0.023622*%
%ADD40R,0.013780X0.078740*%
%ADD41R,0.047244X0.013780*%
%ADD42R,0.039370X0.013780*%
%ADD43R,0.015748X0.037402*%
%ADD44R,0.185039X0.185039*%
%ADD45O,0.025591X0.007874*%
%ADD46O,0.007874X0.025591*%
%ADD47R,0.031496X0.072835*%
%ADD48R,0.031496X0.033465*%
%ADD49R,0.025591X0.019685*%
%ADD50R,0.019685X0.025591*%
%ADD51R,0.025591X0.013780*%
%ADD52R,0.011811X0.031496*%
%ADD53R,0.031496X0.011811*%
%TA.AperFunction,Conductor*%
%ADD54C,0.008000*%
%ADD55C,0.012000*%
%ADD56C,0.015000*%
%ADD57C,0.010000*%
%ADD58C,0.007874*%
%ADD59C,0.011811*%
%ADD60C,0.006000*%
%ADD61C,0.007992*%
%ADD62C,0.009000*%
%ADD63C,0.020000*%
%ADD64C,0.006063*%
%ADD65C,0.011000*%
%ADD66C,0.040000*%
%TA.AperFunction,ComponentPad*%
%ADD67C,0.039370*%
G04:AMPARAMS|DCode=68|XSize=39mil|YSize=39mil|CornerRadius=0mil|HoleSize=0mil|Usage=FLASHONLY|Rotation=0.000|XOffset=0mil|YOffset=0mil|HoleType=Round|Shape=Octagon|*
%AMOCTAGOND68*
4,1,8,0.019500,-0.009750,0.019500,0.009750,0.009750,0.019500,-0.009750,0.019500,-0.019500,0.009750,-0.019500,-0.009750,-0.009750,-0.019500,0.009750,-0.019500,0.019500,-0.009750,0.0*
%
%ADD68OCTAGOND68*%

%ADD69C,0.023622*%
%ADD70O,0.035433X0.062992*%
%TA.AperFunction,WasherPad*%
%ADD71C,0.015000*%
%TA.AperFunction,ComponentPad*%
%ADD72R,0.039000X0.039000*%
%ADD73C,0.059055*%
%ADD74R,0.059055X0.059055*%
%ADD75C,0.047244*%
%ADD76C,0.055118*%
%ADD77R,0.055118X0.055118*%
%TA.AperFunction,ViaPad*%
%ADD78C,0.024000*%
%ADD79C,0.019685*%
%ADD80C,0.025984*%
G36*
X1367661Y777367D02*
Y715337D01*
X1367660Y715337D01*
X1364517Y713001D01*
X1364198Y712648D01*
X1359741Y710785D01*
X1356025Y711982D01*
X1353674Y713553D01*
X1347913Y714699D01*
X1342153Y713553D01*
X1341370Y713030D01*
X1335370Y716237D01*
Y724063D01*
X1315685D01*
Y728000D01*
X1311748D01*
Y746701D01*
X1296000D01*
Y746701D01*
X1293047Y743748D01*
X1259583D01*
Y728061D01*
X1254039Y725765D01*
X1243497Y736308D01*
X1240566Y738265D01*
X1237110Y738953D01*
X1224165D01*
Y741732D01*
X1188732D01*
Y713967D01*
X1188241Y713869D01*
X1185610Y712111D01*
X1169142Y695643D01*
X1163142Y698129D01*
Y741732D01*
X1127709D01*
Y740960D01*
X1113253D01*
Y741142D01*
X1081757D01*
Y727856D01*
X1066013Y712112D01*
X1063620Y708531D01*
X1062780Y704307D01*
Y634944D01*
X1058244Y631913D01*
X1054354Y626091D01*
X1047614D01*
X1043724Y631913D01*
X1035585Y637352D01*
X1025984Y639261D01*
X1016383Y637352D01*
X1008244Y631913D01*
X1004354Y626091D01*
X997615D01*
X993724Y631913D01*
X985585Y637352D01*
X975984Y639261D01*
X966383Y637352D01*
X958244Y631913D01*
X954354Y626091D01*
X947615D01*
X943724Y631913D01*
X935585Y637352D01*
X925984Y639261D01*
X916383Y637352D01*
X909358Y632658D01*
X903358Y634579D01*
Y641547D01*
X879921D01*
Y614173D01*
X875984D01*
Y610236D01*
X848610D01*
Y593812D01*
X829691D01*
X813582Y609921D01*
Y638543D01*
X772677D01*
X772244Y638543D01*
X769467Y645170D01*
X769630Y645433D01*
X773567Y649370D01*
X788976D01*
Y672009D01*
Y694646D01*
X769291D01*
Y684803D01*
X755850D01*
Y665117D01*
X747976D01*
Y684803D01*
X734197Y684803D01*
X733533Y690528D01*
Y701953D01*
X749095D01*
Y766913D01*
X709724D01*
Y701953D01*
X717380D01*
Y688468D01*
X701312D01*
X696535Y691421D01*
X696535Y691421D01*
X696535Y691421D01*
X680788D01*
Y673705D01*
X672914D01*
Y691421D01*
X659670D01*
X655139Y695953D01*
X657624Y701953D01*
X692008D01*
Y766913D01*
X654823D01*
X649606Y768803D01*
X647420Y768803D01*
X635827D01*
Y749117D01*
X631890D01*
Y745181D01*
X614173D01*
Y729433D01*
X617126Y724656D01*
X617126Y723433D01*
Y708592D01*
X611126Y705658D01*
X610011Y706525D01*
X609184Y710680D01*
X605921Y715564D01*
X601038Y718827D01*
X595277Y719973D01*
X589517Y718827D01*
X584633Y715564D01*
X581370Y710680D01*
X581185Y709750D01*
X574819Y708477D01*
X569935Y711740D01*
X564175Y712886D01*
X558414Y711740D01*
X553531Y708477D01*
X550268Y703594D01*
X549122Y697833D01*
X550268Y692073D01*
X553531Y687189D01*
X558414Y683926D01*
X558894Y679988D01*
X553133Y679054D01*
X507369Y724818D01*
X507186Y726111D01*
X508551Y732122D01*
X511410Y734032D01*
X514673Y738915D01*
X515819Y744676D01*
X514673Y750436D01*
X511410Y755320D01*
X506526Y758583D01*
X500766Y759729D01*
X495005Y758583D01*
X490122Y755320D01*
X486858Y750436D01*
X485713Y744676D01*
X486858Y738915D01*
X488339Y736699D01*
X485132Y730699D01*
X444210D01*
X442495Y733267D01*
X437611Y736530D01*
X431851Y737676D01*
X427588Y736828D01*
X423509Y740080D01*
X422559Y741387D01*
Y771367D01*
X425628Y777367D01*
X1367661Y777367D01*
D02*
G37*
G36*
X350593Y777367D02*
X353661Y772638D01*
X353661Y771367D01*
Y723425D01*
X406811D01*
X414017Y716219D01*
X417630Y713806D01*
X420347Y713265D01*
X421207Y711979D01*
X426090Y708716D01*
X431851Y707570D01*
X437611Y708716D01*
X442495Y711979D01*
X444210Y714546D01*
X494797D01*
X502751Y706593D01*
X500265Y700593D01*
X279941D01*
X262652Y717882D01*
X264949Y723425D01*
X315945D01*
Y771367D01*
X319013Y777367D01*
X350593D01*
D02*
G37*
G36*
X1210386Y675787D02*
X1227118D01*
X1232049Y673206D01*
Y669529D01*
X1232666Y666426D01*
X1234424Y663795D01*
X1242030Y656189D01*
X1244660Y654432D01*
X1247763Y653814D01*
X1259783D01*
Y639762D01*
X1291424Y639762D01*
X1296201Y636810D01*
X1298025Y636810D01*
X1311949D01*
Y655511D01*
X1315886D01*
Y659448D01*
X1335571D01*
Y670975D01*
X1335571Y674211D01*
X1332618Y678988D01*
Y682409D01*
X1336861Y686652D01*
X1340786D01*
X1342153Y685738D01*
X1347913Y684593D01*
X1352074Y685420D01*
X1358074Y682012D01*
X1358074Y433072D01*
X1358074Y431114D01*
X1358074Y431114D01*
X1358074Y431113D01*
X1358453Y429205D01*
X1358837Y427274D01*
X1358837Y427274D01*
X1358837Y427273D01*
X1360335Y423655D01*
X1360335Y423655D01*
X1360336Y423654D01*
X1361428Y422019D01*
X1362510Y420399D01*
X1362511Y420399D01*
X1362511Y420399D01*
X1364068Y418842D01*
X1364785Y412105D01*
X1362040Y407996D01*
X1361076Y403150D01*
X1362040Y398303D01*
X1364785Y394194D01*
X1367661Y392273D01*
Y362851D01*
X1364776Y360924D01*
X1362031Y356815D01*
X1361067Y351969D01*
X1362031Y347122D01*
X1364776Y343013D01*
X1362595Y337255D01*
X1362511Y337171D01*
X1360336Y333915D01*
X1358838Y330296D01*
X1358838Y330296D01*
X1358837Y330295D01*
X1358508Y328636D01*
X1358074Y326456D01*
X1358074Y326455D01*
X1358074Y326455D01*
X1358075Y325209D01*
X1356655Y323857D01*
X1352075Y321794D01*
X1349895Y323088D01*
Y326246D01*
X1349047Y330507D01*
X1346634Y334119D01*
X1301880Y378874D01*
X1298267Y381288D01*
X1294006Y382135D01*
X1292019D01*
X1287871Y384907D01*
X1282110Y386053D01*
X1280884Y385809D01*
X1269538Y397155D01*
X1265926Y399568D01*
X1261665Y400416D01*
X1163973D01*
X1159711Y399568D01*
X1156099Y397155D01*
X1105315Y346371D01*
X1087598D01*
Y314875D01*
X1087598D01*
Y310131D01*
X1087598D01*
Y278635D01*
X1087598D01*
Y274228D01*
X1087598D01*
Y247269D01*
X1062128D01*
Y75312D01*
X1062008Y75213D01*
X1046736D01*
X1042441Y79331D01*
Y96064D01*
X1024724D01*
Y100001D01*
D01*
Y96064D01*
X1007008D01*
Y79331D01*
X1002713Y75213D01*
X986220D01*
X983959Y74764D01*
X969488D01*
X969488Y74764D01*
Y74764D01*
X964247Y76856D01*
X963765Y77577D01*
X955852Y82865D01*
X946519Y84721D01*
X944853Y84390D01*
X707283D01*
X704898Y83915D01*
X699095Y84390D01*
X699094D01*
X693428Y85142D01*
X690996Y85625D01*
X684131Y90213D01*
X679543Y97078D01*
X678006Y104808D01*
X678308Y105176D01*
X678308D01*
X677555Y108961D01*
Y191378D01*
X675698Y200712D01*
X670411Y208624D01*
X668632Y209813D01*
X667677Y215417D01*
X667677Y215417D01*
Y232224D01*
X668253Y235118D01*
Y249482D01*
X672913Y252716D01*
X688661D01*
Y270433D01*
X696535D01*
Y252716D01*
X712283D01*
Y266128D01*
X717827Y268425D01*
X726149Y260102D01*
Y232210D01*
X723197Y227433D01*
X723197Y227433D01*
X723197Y227433D01*
Y211685D01*
X740913D01*
Y207748D01*
X744850D01*
Y188063D01*
X758197D01*
Y188063D01*
X771976D01*
Y207748D01*
X779850D01*
Y188063D01*
X793630D01*
Y188063D01*
X799630Y190295D01*
X802202Y187722D01*
X804822Y185971D01*
X807653Y185408D01*
Y168827D01*
X831275D01*
Y160953D01*
X807653D01*
Y140283D01*
X814543D01*
Y128149D01*
X834229D01*
Y124212D01*
X838165D01*
Y106496D01*
X853913D01*
Y106496D01*
X856866Y109449D01*
X890331D01*
Y138976D01*
X894532Y143236D01*
X897220D01*
Y186543D01*
X870225D01*
X864942Y191827D01*
X867238Y197370D01*
X872614D01*
Y221976D01*
X876551D01*
Y225913D01*
X900173D01*
Y246583D01*
X893283D01*
Y259496D01*
X873599D01*
Y267370D01*
X893283D01*
Y279716D01*
Y293496D01*
X873599D01*
Y301370D01*
X893283D01*
Y308968D01*
X900384D01*
X903466Y304356D01*
X908350Y301093D01*
X914110Y299947D01*
X919871Y301093D01*
X924754Y304356D01*
X928017Y309239D01*
X929163Y315000D01*
X928017Y320760D01*
X924754Y325644D01*
X919871Y328907D01*
X914110Y330053D01*
X908350Y328907D01*
X905543Y327032D01*
X897228D01*
Y335441D01*
X877543D01*
Y343315D01*
X897228D01*
Y349047D01*
X903000D01*
X905466Y345356D01*
X910350Y342093D01*
X916110Y340947D01*
X921871Y342093D01*
X926754Y345356D01*
X930017Y350239D01*
X931163Y356000D01*
X930017Y361760D01*
X926754Y366644D01*
X921871Y369907D01*
X916110Y371053D01*
X910350Y369907D01*
X906164Y367111D01*
X897228D01*
Y373063D01*
X877543D01*
Y380938D01*
X897228D01*
Y387057D01*
X926702D01*
X955136Y358624D01*
X957756Y356873D01*
X960847Y356259D01*
X1070852D01*
X1073943Y356873D01*
X1076563Y358624D01*
X1080991Y363052D01*
X1084646Y362325D01*
X1090406Y363471D01*
X1095290Y366734D01*
X1098553Y371617D01*
X1099699Y377378D01*
X1098553Y383138D01*
X1095290Y388022D01*
X1095012Y388207D01*
X1097854Y393525D01*
X1098659Y393191D01*
X1106110Y392210D01*
X1113562Y393191D01*
X1120505Y396067D01*
X1126467Y400643D01*
X1131043Y406605D01*
X1133919Y413549D01*
X1134900Y421000D01*
X1133919Y428451D01*
X1131043Y435395D01*
X1126467Y441357D01*
X1123506Y443630D01*
X1125543Y449630D01*
X1249016D01*
X1252472Y450317D01*
X1255402Y452275D01*
X1267694Y464567D01*
X1288386D01*
Y464567D01*
X1294291D01*
Y464567D01*
X1294386Y464567D01*
X1327756D01*
Y496063D01*
X1307149D01*
X1305293Y497920D01*
Y506890D01*
X1307087D01*
Y538291D01*
X1307087Y544291D01*
X1307087Y546354D01*
Y577756D01*
X1292839D01*
Y585866D01*
X1295528D01*
Y617362D01*
X1262158D01*
X1262063Y617362D01*
X1256158D01*
X1256063Y617362D01*
X1222693D01*
Y598724D01*
X1214813Y590844D01*
X1203983D01*
X1200504Y590152D01*
X1197554Y588181D01*
X1162992Y553618D01*
X1161021Y550668D01*
X1160329Y547189D01*
Y537477D01*
X1154329Y537084D01*
X1154187Y538159D01*
X1151311Y545102D01*
X1146736Y551065D01*
X1140773Y555640D01*
X1133830Y558516D01*
X1126378Y559497D01*
X1118927Y558516D01*
X1111984Y555640D01*
X1106021Y551065D01*
X1101446Y545102D01*
X1098570Y538159D01*
X1097589Y530707D01*
X1098570Y523256D01*
X1101446Y516313D01*
X1106021Y510350D01*
X1108743Y508261D01*
X1106707Y502261D01*
X1076688D01*
X1073209Y501569D01*
X1070259Y499598D01*
X1030993Y460332D01*
X1015748D01*
Y476377D01*
X993110D01*
Y484251D01*
X1015748D01*
Y503937D01*
X1012156D01*
X1006890Y505709D01*
Y535236D01*
X975488D01*
X971457Y535236D01*
Y535236D01*
X969488D01*
Y535236D01*
X934055D01*
Y529184D01*
X914376D01*
Y538102D01*
X875006D01*
Y500791D01*
X861227D01*
Y538102D01*
X821857D01*
Y515905D01*
X814083D01*
X809870Y521905D01*
X809898Y522047D01*
X809210Y525504D01*
X807252Y528434D01*
X804322Y530391D01*
X801096Y531033D01*
Y583073D01*
X806639Y585369D01*
X817205Y574803D01*
X820817Y572389D01*
X825079Y571542D01*
X899606D01*
X903868Y572389D01*
X907480Y574803D01*
X922462Y589785D01*
X925984Y589085D01*
X935585Y590994D01*
X943724Y596433D01*
X947615Y602255D01*
X954354D01*
X958244Y596433D01*
X966383Y590994D01*
X975984Y589085D01*
X985585Y590994D01*
X993724Y596433D01*
X997615Y602255D01*
X1004354D01*
X1008244Y596433D01*
X1016383Y590994D01*
X1025984Y589085D01*
X1035585Y590994D01*
X1043724Y596433D01*
X1047614Y602255D01*
X1054354D01*
X1058244Y596433D01*
X1066383Y590994D01*
X1075984Y589085D01*
X1085585Y590994D01*
X1093724Y596433D01*
X1097614Y602255D01*
X1104354D01*
X1108244Y596433D01*
X1116383Y590994D01*
X1125984Y589085D01*
X1135585Y590994D01*
X1143724Y596433D01*
X1149163Y604572D01*
X1151073Y614173D01*
X1149163Y623774D01*
X1143724Y631913D01*
X1135585Y637352D01*
X1125984Y639261D01*
X1116383Y637352D01*
X1108244Y631913D01*
X1104354Y626091D01*
X1097614D01*
X1093724Y631913D01*
X1085585Y637352D01*
X1084858Y637496D01*
Y668307D01*
X1113253D01*
Y681519D01*
X1127709D01*
Y678740D01*
X1161774D01*
Y659975D01*
X1159238Y658280D01*
X1155975Y653397D01*
X1154829Y647636D01*
X1155975Y641876D01*
X1159238Y636992D01*
X1164122Y633729D01*
X1169882Y632583D01*
X1175643Y633729D01*
X1180526Y636992D01*
X1183789Y641876D01*
X1184935Y647636D01*
X1183789Y653397D01*
X1180526Y658280D01*
X1177991Y659975D01*
Y678239D01*
X1179780Y679552D01*
X1185780Y676514D01*
Y675787D01*
X1202512D01*
Y690552D01*
X1210386D01*
Y675787D01*
D02*
G37*
G36*
X31380Y777367D02*
X34449Y772638D01*
X34449Y771367D01*
Y723425D01*
X103346D01*
Y727829D01*
X123562D01*
X136677Y714714D01*
X139297Y712963D01*
X142388Y712348D01*
X225443D01*
X262797Y674995D01*
X265417Y673244D01*
X268508Y672629D01*
X271174D01*
X272437Y666629D01*
X268830Y664219D01*
X267753Y662607D01*
X207278D01*
Y683622D01*
X165940D01*
Y642284D01*
X207278D01*
Y644543D01*
X256600D01*
X258032Y642449D01*
X259258Y638543D01*
X256709Y634728D01*
X255941Y630869D01*
X220472D01*
Y589531D01*
X249405D01*
X265717Y573219D01*
X265461Y571933D01*
X266607Y566173D01*
X269870Y561289D01*
X274753Y558026D01*
X280514Y556880D01*
X285867Y551827D01*
X286093Y550690D01*
X289356Y545807D01*
X294240Y542543D01*
X300000Y541398D01*
X304660Y542325D01*
X308667Y540205D01*
X310660Y538601D01*
Y531038D01*
X354951D01*
X357302Y526011D01*
X357439Y525320D01*
X357884Y524654D01*
Y513623D01*
X320669D01*
Y517126D01*
X289029Y517126D01*
X284252Y520079D01*
X282428Y520079D01*
X268504D01*
Y502361D01*
Y484646D01*
X271146D01*
X276575Y483268D01*
X276575Y478646D01*
Y466738D01*
X204988D01*
X201897Y466123D01*
X199277Y464372D01*
X167520Y432615D01*
X166607Y431249D01*
X160607Y432456D01*
Y440945D01*
X159919Y444401D01*
X157961Y447331D01*
X154143Y451149D01*
X156439Y456693D01*
X171260D01*
Y500000D01*
X156496D01*
Y507874D01*
X171260D01*
Y544644D01*
X186113D01*
X187190Y543032D01*
X192074Y539768D01*
X197835Y538623D01*
X203595Y539768D01*
X208479Y543032D01*
X211742Y547915D01*
X212888Y553676D01*
X211742Y559436D01*
X208479Y564320D01*
X203595Y567583D01*
X197835Y568729D01*
X192074Y567583D01*
X187190Y564320D01*
X186113Y562707D01*
X164768D01*
X161312Y562020D01*
X160080Y561197D01*
X136811D01*
X135827Y562005D01*
Y567913D01*
X108267D01*
Y575787D01*
X135827D01*
Y586614D01*
X138431Y591535D01*
X156496D01*
Y601168D01*
X167322D01*
Y589531D01*
X206693D01*
Y630869D01*
X167322D01*
Y619232D01*
X156496D01*
Y630905D01*
X115157D01*
Y621219D01*
X109157Y620653D01*
X107207Y622603D01*
X105992Y626252D01*
X108268Y629934D01*
X108268Y631759D01*
Y637363D01*
X112205Y641732D01*
X114268Y641732D01*
X131890D01*
Y664370D01*
X135827D01*
Y668307D01*
X159449D01*
Y687008D01*
X143748D01*
X138824Y693008D01*
X139008Y693931D01*
X137862Y699692D01*
X134599Y704576D01*
X129715Y707839D01*
X123955Y708984D01*
X118195Y707839D01*
X113311Y704576D01*
X110048Y699692D01*
X108902Y693931D01*
X110048Y688171D01*
X112205Y684943D01*
Y673674D01*
X108268Y669304D01*
X106205Y669304D01*
X94488D01*
Y649619D01*
X86614D01*
Y669304D01*
X73976Y669304D01*
X71120Y670191D01*
X67893Y671859D01*
X63016Y679157D01*
X54876Y684596D01*
X45276Y686506D01*
X35675Y684596D01*
X27535Y679157D01*
X22097Y671018D01*
X20187Y661417D01*
X22097Y651816D01*
X23554Y649635D01*
X24479Y644987D01*
X27742Y640104D01*
X32625Y636841D01*
X38386Y635695D01*
X43424Y636697D01*
X45276Y636329D01*
X54876Y638239D01*
X63016Y643677D01*
X66835Y649392D01*
X72835Y647572D01*
X72835Y629934D01*
X75787Y625158D01*
X75787Y623934D01*
Y606290D01*
X73338Y603840D01*
X71380Y600910D01*
X70692Y597454D01*
Y583892D01*
X64692Y580283D01*
X60960Y581025D01*
X55199Y579880D01*
X50316Y576616D01*
X47053Y571733D01*
X45907Y565972D01*
X47053Y560212D01*
X49078Y557181D01*
X46647Y551423D01*
X46420Y551181D01*
X45276D01*
Y507874D01*
X60039D01*
Y503937D01*
X63976D01*
Y456693D01*
X74575Y456693D01*
X74803Y450787D01*
X76772Y445603D01*
Y439960D01*
X108267D01*
Y436023D01*
X112204D01*
Y421260D01*
X137770D01*
X139626Y418263D01*
X140549Y415585D01*
X137668Y411272D01*
X136770Y406761D01*
X132742Y402733D01*
X62662D01*
X62549Y403302D01*
X57110Y411441D01*
X48971Y416879D01*
X39370Y418789D01*
X29769Y416879D01*
X21630Y411441D01*
X16192Y403302D01*
X16035Y402513D01*
X10035Y403104D01*
Y777367D01*
X31380D01*
D02*
G37*
G36*
X304784Y647441D02*
X313982D01*
Y609778D01*
X310660D01*
Y590093D01*
X306017Y586817D01*
X304740D01*
X301649Y586202D01*
X299029Y584451D01*
X297886Y583308D01*
X291158Y582577D01*
X286274Y585841D01*
X280514Y586986D01*
X275742Y586037D01*
X259842Y601937D01*
Y611194D01*
X262278Y613072D01*
X265842Y614864D01*
X270616Y613915D01*
X276376Y615060D01*
X281260Y618323D01*
X284523Y623207D01*
X285669Y628968D01*
X284523Y634728D01*
X287450Y641148D01*
X290118Y642931D01*
X293382Y647815D01*
X294527Y653575D01*
X293382Y659336D01*
X290118Y664219D01*
X286512Y666629D01*
X287775Y672629D01*
X304784D01*
Y647441D01*
D02*
G37*
G36*
X474450Y560511D02*
Y508834D01*
X474707Y507541D01*
X473834Y503698D01*
X471645Y500061D01*
X468368Y497871D01*
X465104Y492988D01*
X463959Y487227D01*
X465104Y481467D01*
X468368Y476583D01*
X472431Y473868D01*
X477358Y470443D01*
X476212Y464682D01*
X477358Y458922D01*
X480621Y454038D01*
X485505Y450775D01*
X489258Y450029D01*
X489925Y449645D01*
Y443778D01*
X486323Y443062D01*
X481439Y439799D01*
X478176Y434915D01*
X477030Y429155D01*
X478176Y423394D01*
X481439Y418511D01*
X483548Y417102D01*
X484769Y410161D01*
X484631Y409711D01*
X469780Y394860D01*
X453176D01*
X444668Y403368D01*
X442048Y405119D01*
X438957Y405734D01*
X402076D01*
X400360Y408301D01*
X395476Y411564D01*
X389716Y412710D01*
X383955Y411564D01*
X379072Y408301D01*
X375809Y403418D01*
X374663Y397657D01*
X375665Y392619D01*
X375207Y391036D01*
X372730Y387493D01*
X366560Y387152D01*
X362384Y391035D01*
X362205Y391442D01*
Y397637D01*
X338583D01*
Y405512D01*
X362205D01*
Y420255D01*
X364569Y425276D01*
X396209Y425276D01*
X400986Y422323D01*
X402810Y422323D01*
X416734D01*
Y440040D01*
Y457756D01*
X400986D01*
X396209Y454803D01*
X394986Y454803D01*
X364569D01*
Y453421D01*
X359252Y451772D01*
Y451772D01*
X343742D01*
Y495430D01*
X363978D01*
X367459Y496123D01*
X370410Y498095D01*
X372813Y500497D01*
X373684Y501047D01*
X379142Y499122D01*
X379447Y498276D01*
Y496477D01*
X380062Y493386D01*
X381812Y490766D01*
X392045Y480533D01*
X394665Y478782D01*
X397756Y478168D01*
X409219D01*
X410935Y475600D01*
X415818Y472337D01*
X421579Y471191D01*
X427339Y472337D01*
X432223Y475600D01*
X435486Y480483D01*
X436632Y486244D01*
X435486Y492005D01*
X432223Y496888D01*
X432219Y496891D01*
Y501192D01*
X435482Y506075D01*
X436628Y511836D01*
X435482Y517596D01*
X432483Y522085D01*
X432940Y524157D01*
X434630Y528085D01*
X438081D01*
Y540880D01*
X442018D01*
Y544817D01*
X467117D01*
Y553676D01*
X464164D01*
Y562312D01*
X470164Y564797D01*
X474450Y560511D01*
D02*
G37*
G36*
X1055225Y403437D02*
X1060108Y400173D01*
X1065869Y399028D01*
X1071629Y400173D01*
X1076513Y403437D01*
X1083673Y403353D01*
X1085753Y400643D01*
X1089824Y397518D01*
X1087282Y391906D01*
X1084646Y392431D01*
X1078885Y391285D01*
X1074002Y388022D01*
X1070738Y383138D01*
X1069593Y377378D01*
X1065117Y372412D01*
X964192D01*
X938673Y397930D01*
X941158Y403930D01*
X1054895D01*
X1055225Y403437D01*
D02*
G37*
G36*
X1267767Y367430D02*
X1268203Y365239D01*
X1271466Y360356D01*
X1276350Y357093D01*
X1282110Y355947D01*
X1287871Y357093D01*
X1290445Y358813D01*
X1315885Y333373D01*
X1313017Y327756D01*
X1297245D01*
Y314961D01*
X1289371D01*
Y327756D01*
X1271654D01*
Y322834D01*
X1253937D01*
Y285433D01*
X1246063D01*
Y322834D01*
X1230803D01*
X1225394Y324803D01*
X1221855Y329337D01*
Y358647D01*
X1221240Y361738D01*
X1219489Y364358D01*
X1218899Y364753D01*
X1215740Y367911D01*
X1215798Y368203D01*
X1215014Y372145D01*
X1218525Y378146D01*
X1257052D01*
X1267767Y367430D01*
D02*
G37*
G36*
X1831394Y777367D02*
X1832087Y771653D01*
X1832087Y771367D01*
Y748032D01*
X1855709D01*
X1879331D01*
Y771367D01*
X1880023Y777367D01*
X1907378D01*
X1908071Y771653D01*
X1908071D01*
Y748032D01*
X1931693D01*
Y744095D01*
X1935630D01*
Y716535D01*
X1948627D01*
Y484252D01*
X1935630D01*
Y456693D01*
Y429134D01*
X1948627D01*
Y10035D01*
X1872554D01*
X1870493Y15011D01*
X1870069Y16035D01*
X1870460Y16426D01*
X1870460D01*
X1870668Y16634D01*
X1896723Y42689D01*
X1867493Y71920D01*
X1847976Y52403D01*
X1798256D01*
X1765651Y85008D01*
X1767947Y90551D01*
X1790499Y90551D01*
X1795276Y87598D01*
X1797100Y87599D01*
X1811024D01*
Y106299D01*
X1814961D01*
Y110236D01*
X1834646D01*
Y125000D01*
X1813230D01*
Y151549D01*
X1817473Y155791D01*
X1822835Y155791D01*
X1825496Y157436D01*
X1831496Y154653D01*
Y149540D01*
X1832460Y144694D01*
X1835206Y140585D01*
X1839314Y137839D01*
X1840700Y137564D01*
X1843377Y135775D01*
X1847638Y134928D01*
X1861105D01*
X1861816Y133863D01*
X1867413Y130124D01*
X1874016Y128810D01*
X1880618Y130124D01*
X1882189Y131173D01*
X1888189Y127966D01*
Y121850D01*
X1891964D01*
Y109953D01*
X1892812Y105691D01*
X1895226Y102079D01*
X1896438Y100866D01*
X1882804Y87231D01*
X1912035Y58001D01*
X1941265Y87231D01*
X1925807Y102690D01*
X1925197Y103603D01*
X1914235Y114565D01*
Y121850D01*
X1919685D01*
Y155315D01*
X1919685D01*
Y161220D01*
X1919685D01*
Y194685D01*
X1915072D01*
Y207677D01*
X1920276D01*
Y247047D01*
X1878937D01*
Y207677D01*
X1892802D01*
Y194685D01*
X1888189D01*
Y192238D01*
X1857284D01*
Y215831D01*
X1827612D01*
X1822835Y218783D01*
X1819042Y218783D01*
X1807087D01*
Y187287D01*
X1799213D01*
Y218783D01*
X1783465D01*
X1778688Y215831D01*
X1753190D01*
Y249775D01*
X1760584Y257169D01*
X1780417D01*
X1786417Y257169D01*
X1788480Y257169D01*
X1817819D01*
X1823819Y257169D01*
X1825882Y257169D01*
X1857284D01*
Y314256D01*
X1863230Y314384D01*
X1882802D01*
X1883155Y313856D01*
X1888039Y310593D01*
X1893799Y309447D01*
X1899560Y310593D01*
X1904443Y313856D01*
X1907706Y318739D01*
X1908852Y324500D01*
X1907706Y330260D01*
X1904443Y335144D01*
X1899560Y338407D01*
X1893799Y339553D01*
X1888039Y338407D01*
X1883155Y335144D01*
X1882802Y334616D01*
X1874016D01*
Y352362D01*
X1851378D01*
X1828740D01*
Y332677D01*
X1835477D01*
X1837962Y326677D01*
X1833398Y322114D01*
X1831206Y318832D01*
X1830436Y314961D01*
X1829731Y314256D01*
X1823819Y314256D01*
X1818363Y315570D01*
Y349481D01*
X1817914Y351742D01*
Y376968D01*
X1803737D01*
X1796554Y384151D01*
X1792446Y386897D01*
X1787599Y387861D01*
X1671003D01*
X1669143Y389103D01*
X1663382Y390249D01*
X1657622Y389103D01*
X1652738Y385840D01*
X1649475Y380957D01*
X1648330Y375196D01*
X1649475Y369436D01*
X1652738Y364552D01*
X1657622Y361289D01*
X1663382Y360143D01*
X1669143Y361289D01*
X1671003Y362531D01*
X1778543D01*
Y335630D01*
X1787936D01*
Y315570D01*
X1782480Y314256D01*
X1780417Y314256D01*
X1749016D01*
Y271328D01*
X1737662Y259975D01*
X1735691Y257024D01*
X1734998Y253543D01*
Y93701D01*
X1735691Y90220D01*
X1737662Y87269D01*
X1788056Y36875D01*
X1791007Y34903D01*
X1794488Y34211D01*
X1846740D01*
X1864317Y16634D01*
X1864525Y16426D01*
X1864916Y16035D01*
X1864525Y15091D01*
X1862431Y10035D01*
X1722900D01*
X1721707Y16035D01*
X1725504Y17608D01*
X1730850Y21709D01*
X1734952Y27055D01*
X1737530Y33280D01*
X1738410Y39961D01*
Y49803D01*
X1712599D01*
X1686787D01*
Y39961D01*
X1687667Y33280D01*
X1690245Y27055D01*
X1694347Y21709D01*
X1699693Y17608D01*
X1703490Y16035D01*
X1702296Y10035D01*
X1463058D01*
X1461864Y16035D01*
X1465661Y17608D01*
X1471007Y21709D01*
X1475109Y27055D01*
X1477688Y33280D01*
X1478567Y39961D01*
Y49803D01*
X1452756D01*
Y53740D01*
X1448819D01*
Y92813D01*
X1446075Y92451D01*
X1439850Y89873D01*
X1434505Y85771D01*
X1430403Y80425D01*
X1427824Y74200D01*
X1422047Y74016D01*
Y74016D01*
X1397638D01*
Y87520D01*
X1402995Y89739D01*
X1409779Y94945D01*
X1414986Y101730D01*
X1418258Y109631D01*
X1419375Y118110D01*
X1418258Y126589D01*
X1414986Y134490D01*
X1409779Y141275D01*
X1402995Y146482D01*
X1397638Y148701D01*
Y164397D01*
X1397830Y165366D01*
X1397830Y165366D01*
X1397830Y165367D01*
X1397830Y167321D01*
X1397830Y167322D01*
X1397830Y324498D01*
X1397831Y326457D01*
X1397638Y327428D01*
Y430145D01*
X1397830Y431113D01*
X1397830Y433068D01*
X1397830Y433070D01*
X1397831Y698695D01*
X1397781Y698945D01*
X1397818Y699196D01*
X1397720Y701154D01*
X1397638Y701483D01*
Y777367D01*
X1831394D01*
D02*
G37*
G36*
X232284Y405512D02*
X255906D01*
Y397638D01*
X232284D01*
Y387795D01*
X244161D01*
X246880Y381795D01*
X245004Y378988D01*
X243858Y373228D01*
X245004Y367467D01*
X248267Y362583D01*
X248457Y362456D01*
Y355240D01*
X246241Y353759D01*
X241890Y347248D01*
X240362Y339567D01*
Y327756D01*
X280504D01*
Y339567D01*
X278976Y347248D01*
X274625Y353759D01*
X274532Y354358D01*
X278635Y359252D01*
X298977D01*
X300797Y353252D01*
X298370Y351630D01*
X294671Y346095D01*
X293373Y339567D01*
Y308071D01*
X294671Y301542D01*
X298370Y296007D01*
X300979Y294264D01*
Y258801D01*
X278554Y236376D01*
X255746D01*
X252539Y242376D01*
X253785Y244239D01*
X254930Y250000D01*
X253785Y255760D01*
X250522Y260644D01*
X245638Y263907D01*
X239877Y265053D01*
X234117Y263907D01*
X229233Y260644D01*
X225970Y255760D01*
X224824Y250000D01*
X225970Y244239D01*
X227215Y242376D01*
X224008Y236376D01*
X206654D01*
X205873Y236220D01*
X183071D01*
X183071Y236220D01*
Y236221D01*
X179877Y240970D01*
X174993Y244233D01*
X169233Y245379D01*
X164465Y244431D01*
X160841Y246267D01*
X158464Y248103D01*
Y257874D01*
X161417Y258858D01*
Y271654D01*
X139764D01*
Y279527D01*
X161417D01*
Y292323D01*
X164766Y296935D01*
X178725D01*
X182070Y290935D01*
X181102Y289370D01*
X181102Y287546D01*
Y273622D01*
X198818D01*
X216536D01*
Y289370D01*
X213583Y294147D01*
X213583Y295370D01*
Y325787D01*
X184055D01*
Y319206D01*
X159438D01*
X158465Y324803D01*
X158465Y324803D01*
X158464Y324803D01*
Y352362D01*
X161084Y357277D01*
X197049D01*
X200140Y357892D01*
X202760Y359643D01*
X222983Y379865D01*
X224734Y382486D01*
X225349Y385577D01*
Y412546D01*
X225986Y413183D01*
X232284D01*
Y405512D01*
D02*
G37*
G36*
X636496Y270053D02*
Y255669D01*
X637826D01*
Y235118D01*
X638149Y233490D01*
Y215417D01*
X638149D01*
X637505Y209684D01*
X635919Y208624D01*
X630632Y200712D01*
X628775Y191378D01*
Y105176D01*
X630533Y96342D01*
X630996Y91631D01*
X634948Y78606D01*
X641364Y66602D01*
X649999Y56081D01*
X660520Y47446D01*
X672524Y41029D01*
X685549Y37078D01*
X699094Y35744D01*
Y35610D01*
X703189Y36425D01*
X707283Y35610D01*
X946187D01*
X946188Y35610D01*
X955521Y37467D01*
X963434Y42754D01*
X963765Y43085D01*
X963968Y43388D01*
X969488Y45236D01*
X969488Y45236D01*
X969488Y45236D01*
X983959D01*
X986220Y44786D01*
X1062008D01*
X1062128Y44688D01*
Y10035D01*
X594999Y10035D01*
X593639Y15650D01*
X602019Y19122D01*
X609215Y24643D01*
X614737Y31839D01*
X618208Y40219D01*
X619392Y49212D01*
X618208Y58206D01*
X614737Y66586D01*
X609215Y73782D01*
X602019Y79303D01*
X593639Y82775D01*
X584646Y83959D01*
X580472Y83409D01*
X575961Y87365D01*
Y124105D01*
X577573Y125183D01*
X580836Y130066D01*
X581982Y135827D01*
X580836Y141587D01*
X577573Y146471D01*
X572690Y149734D01*
X566929Y150880D01*
X565784Y150652D01*
X560992Y155444D01*
Y170782D01*
X566992Y173989D01*
X568252Y173148D01*
X574013Y172002D01*
X579773Y173148D01*
X584657Y176411D01*
X587920Y181294D01*
X589066Y187055D01*
X587993Y192448D01*
X587532Y198474D01*
X589795Y199986D01*
X592415Y201737D01*
X595679Y206621D01*
X596824Y212381D01*
X595679Y218142D01*
X592415Y223025D01*
X589848Y224741D01*
Y247243D01*
X594264Y251660D01*
X599794Y248704D01*
X599057Y245000D01*
X600203Y239239D01*
X603466Y234356D01*
X608350Y231093D01*
X614110Y229947D01*
X619871Y231093D01*
X624754Y234356D01*
X628017Y239239D01*
X629163Y245000D01*
X628017Y250760D01*
X624754Y255644D01*
X622465Y257174D01*
X622057Y263507D01*
X630956Y272356D01*
X636496Y270053D01*
D02*
G37*
G36*
X541504Y340474D02*
X544960Y339787D01*
X562677D01*
X566133Y340474D01*
X566519Y340733D01*
X572519Y337627D01*
Y335039D01*
X575107D01*
X578213Y329039D01*
X577955Y328653D01*
X577267Y325197D01*
Y311103D01*
X530582Y264418D01*
X528624Y261488D01*
X527937Y258032D01*
Y242857D01*
X521937Y239292D01*
X518110Y240053D01*
X512350Y238907D01*
X507466Y235644D01*
X504203Y230760D01*
X503057Y225000D01*
X504203Y219239D01*
X507466Y214356D01*
X512350Y211093D01*
X518110Y209947D01*
X518399Y210004D01*
X521849Y204573D01*
X521183Y203576D01*
X520496Y200120D01*
Y161328D01*
X518883Y160250D01*
X515620Y155367D01*
X514475Y149606D01*
X515620Y143846D01*
X518883Y138962D01*
X520496Y137885D01*
Y91674D01*
X508527Y79706D01*
X501119Y82775D01*
X492126Y83959D01*
X483133Y82775D01*
X474753Y79303D01*
X467557Y73782D01*
X462035Y66586D01*
X458564Y58206D01*
X457380Y49212D01*
X458564Y40219D01*
X462035Y31839D01*
X467557Y24643D01*
X474753Y19122D01*
X483133Y15650D01*
X481773Y10035D01*
X420704D01*
X418884Y16035D01*
X422496Y18448D01*
X426195Y23983D01*
X427493Y30512D01*
Y62008D01*
X426195Y68536D01*
X422496Y74071D01*
X421568Y74691D01*
Y94613D01*
X448732D01*
Y89016D01*
X478260D01*
Y120656D01*
X481213Y125433D01*
X481213Y125433D01*
X481213Y125433D01*
Y141181D01*
X463496D01*
Y149055D01*
X481213D01*
Y164803D01*
X481213D01*
X479244Y169988D01*
Y200787D01*
X479244D01*
Y206693D01*
X479244D01*
X479244Y206787D01*
Y240157D01*
X447748D01*
Y218115D01*
X426944Y197311D01*
X417394D01*
X414303Y196696D01*
X411683Y194945D01*
X354722Y137984D01*
X352971Y135364D01*
X352356Y132274D01*
Y76735D01*
X348370Y74071D01*
X344671Y68536D01*
X343373Y62008D01*
Y30512D01*
X344671Y23983D01*
X348370Y18448D01*
X351982Y16035D01*
X350162Y10035D01*
X320704D01*
X318884Y16035D01*
X322496Y18448D01*
X326195Y23983D01*
X327493Y30512D01*
Y62008D01*
X326195Y68536D01*
X322496Y74071D01*
X318348Y76843D01*
Y84097D01*
X320916Y85812D01*
X324179Y90696D01*
X325325Y96457D01*
X324179Y102217D01*
X320916Y107101D01*
X316032Y110364D01*
X310272Y111510D01*
X304511Y110364D01*
X299627Y107101D01*
X296364Y102217D01*
X295219Y96457D01*
X296364Y90696D01*
X299627Y85812D01*
X302195Y84097D01*
Y76627D01*
X298370Y74071D01*
X294671Y68536D01*
X293373Y62008D01*
Y30512D01*
X294671Y23983D01*
X298370Y18448D01*
X301982Y16035D01*
X300162Y10035D01*
X270704D01*
X268884Y16035D01*
X272496Y18448D01*
X276195Y23983D01*
X277493Y30512D01*
Y62008D01*
X276195Y68536D01*
X272496Y74071D01*
X269465Y76097D01*
Y86414D01*
X284930Y101879D01*
X286888Y104809D01*
X287575Y108265D01*
Y148712D01*
X289187Y149789D01*
X292450Y154673D01*
X293596Y160433D01*
X292450Y166194D01*
X289187Y171077D01*
X284304Y174340D01*
X278543Y175486D01*
X272783Y174340D01*
X267899Y171077D01*
X264636Y166194D01*
X263490Y160433D01*
X264636Y154673D01*
X267899Y149789D01*
X269512Y148712D01*
Y112006D01*
X254047Y96541D01*
X252089Y93611D01*
X251401Y90155D01*
Y76097D01*
X248370Y74071D01*
X244672Y68536D01*
X243373Y62008D01*
Y30512D01*
X244672Y23983D01*
X248370Y18448D01*
X251982Y16035D01*
X250162Y10035D01*
X10035D01*
Y226670D01*
X15748Y227362D01*
X16035Y227362D01*
X33465D01*
Y244095D01*
X37402D01*
Y248032D01*
X59055D01*
Y260827D01*
X63552Y264455D01*
X70229D01*
X74490Y265303D01*
X78103Y267717D01*
X79111Y268724D01*
X108756Y239079D01*
X112368Y236665D01*
X116630Y235817D01*
X121063D01*
Y230315D01*
X128628D01*
Y212384D01*
X129476Y208123D01*
X131890Y204510D01*
X162118Y174282D01*
X165731Y171868D01*
X169992Y171020D01*
X183071D01*
Y163386D01*
X183071D01*
X182354Y157683D01*
X102580D01*
X102459Y158599D01*
X98988Y166979D01*
X93466Y174175D01*
X86270Y179697D01*
X77890Y183168D01*
X68897Y184352D01*
X59904Y183168D01*
X51524Y179697D01*
X44328Y174175D01*
X38806Y166979D01*
X35335Y158599D01*
X34151Y149606D01*
X35335Y140613D01*
X38806Y132233D01*
X44328Y125037D01*
X51524Y119515D01*
X59904Y116044D01*
X68897Y114860D01*
X74468Y115594D01*
X75560Y114906D01*
X79072Y110326D01*
X78346Y106672D01*
X78523Y105783D01*
X73598Y99783D01*
X62205D01*
Y66318D01*
X95669D01*
Y92071D01*
X99159Y92765D01*
X104043Y96028D01*
X107306Y100912D01*
X108452Y106672D01*
X107306Y112433D01*
X104043Y117317D01*
X99159Y120580D01*
X97486Y120912D01*
X97406Y120995D01*
X95325Y127460D01*
X98988Y132233D01*
X102459Y140613D01*
X102580Y141530D01*
X186259D01*
X188079Y135530D01*
X186206Y134278D01*
X182943Y129395D01*
X181797Y123634D01*
X182943Y117874D01*
X186206Y112990D01*
X191090Y109727D01*
X196850Y108581D01*
X202611Y109727D01*
X207494Y112990D01*
X210758Y117874D01*
X211903Y123634D01*
X210758Y129395D01*
X207494Y134278D01*
X204960Y135972D01*
X204871Y138287D01*
X205845Y142550D01*
X207858Y143895D01*
X273264Y209301D01*
X286423D01*
X289513Y209916D01*
X292134Y211667D01*
X355395Y274929D01*
X413273D01*
X416364Y275543D01*
X418984Y277294D01*
X456466Y314776D01*
X490571D01*
X493662Y315391D01*
X496282Y317142D01*
X519883Y340742D01*
X541103D01*
X541504Y340474D01*
D02*
G37*
G36*
X552288Y137897D02*
X551876Y135827D01*
X553022Y130066D01*
X556285Y125183D01*
X557897Y124105D01*
Y74504D01*
X558460Y71675D01*
X554555Y66586D01*
X551083Y58206D01*
X549899Y49212D01*
X551083Y40219D01*
X554555Y31839D01*
X560076Y24643D01*
X567273Y19122D01*
X575653Y15650D01*
X574293Y10035D01*
X502479D01*
X501119Y15650D01*
X509499Y19122D01*
X516695Y24643D01*
X522217Y31839D01*
X525688Y40219D01*
X526872Y49212D01*
X525688Y58206D01*
X522217Y66586D01*
X521668Y67301D01*
X535914Y81547D01*
X537872Y84477D01*
X538559Y87933D01*
Y137885D01*
X540172Y138962D01*
X541482Y140923D01*
X548110Y142036D01*
X552288Y137897D01*
D02*
G37*
%LPC*%
G36*
X627953Y768803D02*
X614173D01*
Y753054D01*
X627953D01*
Y768803D01*
D02*
G37*
G36*
X1025984Y755010D02*
X1016383Y753100D01*
X1008244Y747661D01*
X1004354Y741839D01*
X997615D01*
X993724Y747661D01*
X985585Y753100D01*
X975984Y755010D01*
X966383Y753100D01*
X958244Y747661D01*
X954354Y741839D01*
X947615D01*
X943724Y747661D01*
X935585Y753100D01*
X925984Y755010D01*
X916383Y753100D01*
X908244Y747661D01*
X905695Y743847D01*
X898564Y743973D01*
X888195Y754342D01*
X863774D01*
X851563Y742132D01*
Y717711D01*
X863774Y705500D01*
X888195D01*
X898564Y715869D01*
X905695Y715995D01*
X908244Y712181D01*
X916383Y706742D01*
X925984Y704833D01*
X935585Y706742D01*
X943724Y712181D01*
X947615Y718003D01*
X954354D01*
X958244Y712181D01*
X966383Y706742D01*
X975984Y704833D01*
X985585Y706742D01*
X993724Y712181D01*
X997615Y718003D01*
X1004354D01*
X1008244Y712181D01*
X1016383Y706742D01*
X1025984Y704833D01*
X1035585Y706742D01*
X1043724Y712181D01*
X1049163Y720320D01*
X1051073Y729921D01*
X1049163Y739522D01*
X1043724Y747661D01*
X1035585Y753100D01*
X1025984Y755010D01*
D02*
G37*
G36*
X1335370Y746701D02*
X1319622D01*
Y731937D01*
X1335370D01*
Y746701D01*
D02*
G37*
G36*
X776182Y755996D02*
X770422Y754851D01*
X765538Y751587D01*
X762275Y746704D01*
X761129Y740943D01*
X762275Y735183D01*
X765538Y730299D01*
X770422Y727036D01*
X776182Y725890D01*
X781943Y727036D01*
X786826Y730299D01*
X790089Y735183D01*
X791235Y740943D01*
X790089Y746704D01*
X786826Y751587D01*
X781943Y754851D01*
X776182Y755996D01*
D02*
G37*
G36*
X816535Y694646D02*
X796850D01*
Y675946D01*
X816535D01*
Y694646D01*
D02*
G37*
G36*
Y668072D02*
X796850D01*
Y649370D01*
X816535D01*
Y668072D01*
D02*
G37*
G36*
X872047Y641547D02*
X848610D01*
Y618110D01*
X872047D01*
Y641547D01*
D02*
G37*
G36*
X1335571Y651574D02*
X1319823D01*
Y636810D01*
X1335571D01*
Y651574D01*
D02*
G37*
G36*
X1327752Y602310D02*
X1321991Y601164D01*
X1317108Y597901D01*
X1313845Y593017D01*
X1312699Y587257D01*
X1313845Y581496D01*
X1317108Y576613D01*
X1321991Y573350D01*
X1327752Y572204D01*
X1333512Y573350D01*
X1338396Y576613D01*
X1341659Y581496D01*
X1342805Y587257D01*
X1341659Y593017D01*
X1338396Y597901D01*
X1333512Y601164D01*
X1327752Y602310D01*
D02*
G37*
G36*
X900173Y218039D02*
X880488D01*
Y197370D01*
X900173D01*
Y218039D01*
D02*
G37*
G36*
X736976Y203811D02*
X723197D01*
Y188063D01*
X736976D01*
Y203811D01*
D02*
G37*
G36*
X830292Y120275D02*
X814543D01*
Y106496D01*
X830292D01*
Y120275D01*
D02*
G37*
G36*
X1042441Y120669D02*
X1028661D01*
Y103938D01*
X1042441D01*
Y120669D01*
D02*
G37*
G36*
X1020787D02*
X1007008D01*
Y103938D01*
X1020787D01*
Y120669D01*
D02*
G37*
G36*
X159449Y660433D02*
X139764D01*
Y641732D01*
X159449D01*
Y660433D01*
D02*
G37*
G36*
X260630Y520079D02*
X244882D01*
Y506298D01*
X260630D01*
Y520079D01*
D02*
G37*
G36*
Y498424D02*
X244882D01*
Y484646D01*
X260630D01*
Y498424D01*
D02*
G37*
G36*
X56102Y500000D02*
X45276D01*
Y456693D01*
X56102D01*
Y500000D01*
D02*
G37*
G36*
X104331Y432086D02*
X76772D01*
Y421260D01*
X104331D01*
Y432086D01*
D02*
G37*
G36*
X467117Y536943D02*
X445955D01*
Y528085D01*
X467117D01*
Y536943D01*
D02*
G37*
G36*
X424608Y457756D02*
Y443977D01*
X440356D01*
Y457756D01*
X424608D01*
D02*
G37*
G36*
X440356Y436103D02*
X424608D01*
Y422323D01*
X440356D01*
Y436103D01*
D02*
G37*
G36*
X1616535Y755010D02*
X1606935Y753100D01*
X1598795Y747661D01*
X1594905Y741839D01*
X1588166D01*
X1584276Y747661D01*
X1576136Y753100D01*
X1566535Y755010D01*
X1556935Y753100D01*
X1548795Y747661D01*
X1544905Y741839D01*
X1538166D01*
X1534276Y747661D01*
X1526136Y753100D01*
X1516535Y755010D01*
X1506935Y753100D01*
X1498795Y747661D01*
X1496246Y743847D01*
X1489115Y743973D01*
X1478746Y754342D01*
X1454325D01*
X1442114Y742132D01*
Y717711D01*
X1454325Y705500D01*
X1478746D01*
X1489115Y715869D01*
X1496246Y715995D01*
X1498795Y712181D01*
X1506935Y706742D01*
X1516535Y704833D01*
X1526136Y706742D01*
X1534276Y712181D01*
X1538166Y718003D01*
X1544905D01*
X1548795Y712181D01*
X1556935Y706742D01*
X1566535Y704833D01*
X1576136Y706742D01*
X1584276Y712181D01*
X1588166Y718003D01*
X1594905D01*
X1598795Y712181D01*
X1606935Y706742D01*
X1616535Y704833D01*
X1626136Y706742D01*
X1634276Y712181D01*
X1639714Y720320D01*
X1641624Y729921D01*
X1639714Y739522D01*
X1634276Y747661D01*
X1626136Y753100D01*
X1616535Y755010D01*
D02*
G37*
G36*
X1927756Y740158D02*
X1908071D01*
Y716535D01*
X1927756D01*
Y740158D01*
D02*
G37*
G36*
X1879331Y740158D02*
X1859646D01*
Y716535D01*
X1879331D01*
Y740158D01*
D02*
G37*
G36*
X1851772D02*
X1832087D01*
Y716535D01*
X1851772D01*
Y740158D01*
D02*
G37*
G36*
X1716142Y758711D02*
X1708690Y757730D01*
X1701747Y754854D01*
X1695784Y750279D01*
X1691209Y744316D01*
X1688333Y737373D01*
X1687352Y729921D01*
X1688333Y722470D01*
X1691209Y715527D01*
X1695784Y709564D01*
X1701747Y704989D01*
X1708690Y702113D01*
X1716142Y701132D01*
X1722570Y701978D01*
X1746329Y678219D01*
X1751265Y674921D01*
X1757087Y673763D01*
X1790354D01*
Y670275D01*
X1859252D01*
Y707677D01*
X1790354D01*
Y704190D01*
X1763388D01*
X1744085Y723493D01*
X1744931Y729921D01*
X1743950Y737373D01*
X1741074Y744316D01*
X1736499Y750279D01*
X1730536Y754854D01*
X1723593Y757730D01*
X1716142Y758711D01*
D02*
G37*
G36*
X1893701Y682530D02*
X1884868Y680773D01*
X1877380Y675770D01*
X1872377Y668282D01*
X1870620Y659449D01*
X1872377Y650616D01*
X1877380Y643128D01*
X1884868Y638124D01*
X1893701Y636367D01*
X1902534Y638124D01*
X1910022Y643128D01*
X1915025Y650616D01*
X1916782Y659449D01*
X1915025Y668282D01*
X1910022Y675770D01*
X1902534Y680773D01*
X1893701Y682530D01*
D02*
G37*
G36*
X1462598Y641547D02*
X1439161D01*
Y618110D01*
X1462598D01*
Y641547D01*
D02*
G37*
G36*
X1859252Y648622D02*
X1790354D01*
Y611220D01*
X1809590D01*
Y587010D01*
X1750178Y527598D01*
X1722441D01*
Y516631D01*
X1692914D01*
Y516929D01*
X1673864D01*
X1671260Y521851D01*
Y545472D01*
X1625187D01*
X1624110Y545687D01*
X1578880D01*
X1574619Y544839D01*
X1571006Y542425D01*
X1563977Y535396D01*
X1561563Y531783D01*
X1560715Y527522D01*
Y516929D01*
X1557087D01*
Y498228D01*
X1554134D01*
Y487402D01*
X1578740D01*
Y479528D01*
X1554134D01*
Y472946D01*
X1529528D01*
X1528601Y473258D01*
X1526049Y475169D01*
X1524240Y480676D01*
X1524240D01*
X1524240Y480676D01*
X1524240Y508677D01*
X1524240D01*
X1524017Y512665D01*
X1523790Y513809D01*
X1523733Y514457D01*
X1523500Y516227D01*
X1520585Y523263D01*
X1515950Y529304D01*
X1511987Y532344D01*
Y538177D01*
X1511023Y543024D01*
X1508278Y547132D01*
X1511824Y551803D01*
X1526399Y566378D01*
X1529144Y570487D01*
X1530108Y575333D01*
Y593648D01*
X1534276Y596433D01*
X1538166Y602255D01*
X1544905D01*
X1548795Y596433D01*
X1556935Y590994D01*
X1566535Y589085D01*
X1576136Y590994D01*
X1584276Y596433D01*
X1588166Y602255D01*
X1594905D01*
X1598795Y596433D01*
X1606935Y590994D01*
X1616535Y589085D01*
X1626136Y590994D01*
X1634276Y596433D01*
X1638166Y602255D01*
X1644905D01*
X1648795Y596433D01*
X1656935Y590994D01*
X1666535Y589085D01*
X1676136Y590994D01*
X1684276Y596433D01*
X1688166Y602255D01*
X1694905D01*
X1698795Y596433D01*
X1706935Y590994D01*
X1716535Y589085D01*
X1726136Y590994D01*
X1734276Y596433D01*
X1739714Y604572D01*
X1741624Y614173D01*
X1739714Y623774D01*
X1734276Y631913D01*
X1726136Y637352D01*
X1716535Y639261D01*
X1706935Y637352D01*
X1698795Y631913D01*
X1694905Y626091D01*
X1688166D01*
X1684276Y631913D01*
X1676136Y637352D01*
X1666535Y639261D01*
X1656935Y637352D01*
X1648795Y631913D01*
X1644905Y626091D01*
X1638166D01*
X1634276Y631913D01*
X1626136Y637352D01*
X1616535Y639261D01*
X1606935Y637352D01*
X1598795Y631913D01*
X1594905Y626091D01*
X1588166D01*
X1584276Y631913D01*
X1576136Y637352D01*
X1566535Y639261D01*
X1556935Y637352D01*
X1548795Y631913D01*
X1544905Y626091D01*
X1538166D01*
X1534276Y631913D01*
X1526136Y637352D01*
X1516535Y639261D01*
X1506935Y637352D01*
X1499909Y632658D01*
X1493909Y634579D01*
Y641547D01*
X1470472D01*
Y614173D01*
Y586799D01*
X1493909D01*
Y593767D01*
X1499909Y595688D01*
X1504779Y592435D01*
Y580579D01*
X1486368Y562168D01*
X1483622Y558059D01*
X1482658Y553212D01*
Y534735D01*
X1480737Y533940D01*
X1474696Y529304D01*
X1470060Y523263D01*
X1467146Y516227D01*
X1466913Y514457D01*
X1466982Y514443D01*
X1466628Y512664D01*
X1466982Y508677D01*
X1466982Y508677D01*
X1466982Y480676D01*
X1466982Y480676D01*
X1466628Y476690D01*
X1466982Y474911D01*
X1466913Y474897D01*
X1467146Y473127D01*
X1470060Y466092D01*
X1474696Y460050D01*
X1480487Y455606D01*
X1480539Y455002D01*
X1478543Y449606D01*
X1473622D01*
Y425984D01*
Y402362D01*
X1483887D01*
X1486949Y396362D01*
X1485351Y393971D01*
X1484205Y388210D01*
X1485351Y382450D01*
X1488614Y377566D01*
X1493497Y374303D01*
X1499258Y373157D01*
X1505018Y374303D01*
X1509902Y377566D01*
X1513165Y382450D01*
X1514311Y388210D01*
X1513165Y393971D01*
X1509902Y398854D01*
X1509212Y399315D01*
X1511032Y405315D01*
X1542520D01*
Y422132D01*
X1578740D01*
Y421457D01*
X1671260D01*
Y445079D01*
X1673864Y450000D01*
X1692914D01*
Y453585D01*
X1697953D01*
X1701824Y454355D01*
X1705106Y456548D01*
X1713945Y465387D01*
X1719488Y463091D01*
Y458700D01*
X1739172D01*
Y477402D01*
X1733799D01*
X1731503Y482945D01*
X1736786Y488228D01*
X1763780D01*
Y498170D01*
X1781858Y516249D01*
X1787402Y513952D01*
Y490158D01*
X1820867D01*
Y511811D01*
Y533465D01*
X1806914D01*
X1804618Y539008D01*
X1835561Y569951D01*
X1838859Y574887D01*
X1840017Y580709D01*
Y611220D01*
X1859252D01*
Y648622D01*
D02*
G37*
G36*
X1462598Y610236D02*
X1439161D01*
Y586799D01*
X1462598D01*
Y610236D01*
D02*
G37*
G36*
X1893701Y564420D02*
X1884868Y562663D01*
X1877380Y557659D01*
X1872377Y550171D01*
X1870620Y541338D01*
X1872377Y532506D01*
X1877380Y525018D01*
X1884868Y520014D01*
X1893701Y518257D01*
X1902534Y520014D01*
X1910022Y525018D01*
X1915025Y532506D01*
X1916782Y541338D01*
X1915025Y550171D01*
X1910022Y557659D01*
X1902534Y562663D01*
X1893701Y564420D01*
D02*
G37*
G36*
X1862205Y533465D02*
X1828741D01*
Y515748D01*
X1862205D01*
Y533465D01*
D02*
G37*
G36*
X1927756Y484252D02*
X1908071D01*
Y460630D01*
X1927756D01*
Y484252D01*
D02*
G37*
G36*
X1862205Y507874D02*
X1828741D01*
Y490158D01*
X1831859D01*
X1832087Y484252D01*
X1832087Y484157D01*
Y460630D01*
X1855709D01*
X1879331D01*
Y484252D01*
X1862432D01*
X1862205Y490158D01*
X1862205Y490252D01*
Y507874D01*
D02*
G37*
G36*
X1766732Y477402D02*
X1747046D01*
Y458700D01*
X1766732D01*
Y477402D01*
D02*
G37*
G36*
Y450826D02*
X1747046D01*
Y432126D01*
X1766732D01*
Y450826D01*
D02*
G37*
G36*
X1739172D02*
X1719488D01*
Y432126D01*
X1739172D01*
Y450826D01*
D02*
G37*
G36*
X1465748Y449606D02*
X1447047D01*
Y429921D01*
X1465748D01*
Y449606D01*
D02*
G37*
G36*
X1927756Y452756D02*
X1908071D01*
Y429134D01*
X1927756D01*
Y452756D01*
D02*
G37*
G36*
X1879331Y452756D02*
X1859646D01*
Y429134D01*
X1879331D01*
Y452756D01*
D02*
G37*
G36*
X1851772D02*
X1832087D01*
Y429134D01*
X1851772D01*
Y452756D01*
D02*
G37*
G36*
X1465748Y422047D02*
X1447047D01*
Y402362D01*
X1465748D01*
Y422047D01*
D02*
G37*
G36*
X1874016Y379921D02*
X1855314D01*
Y360236D01*
X1874016D01*
Y379921D01*
D02*
G37*
G36*
X1847440D02*
X1828740D01*
Y360236D01*
X1847440D01*
Y379921D01*
D02*
G37*
G36*
X1923228Y303149D02*
X1903543D01*
Y284449D01*
X1923228D01*
Y303149D01*
D02*
G37*
G36*
X1895669D02*
X1875984D01*
Y284449D01*
X1895669D01*
Y303149D01*
D02*
G37*
G36*
X1923228Y276575D02*
X1903543D01*
Y257874D01*
X1923228D01*
Y276575D01*
D02*
G37*
G36*
X1895669D02*
X1875984D01*
Y257874D01*
X1895669D01*
Y276575D01*
D02*
G37*
G36*
X1602362Y230098D02*
X1586614D01*
Y216318D01*
X1602362D01*
Y230098D01*
D02*
G37*
G36*
Y208444D02*
X1586614D01*
Y194665D01*
X1602362D01*
Y208444D01*
D02*
G37*
G36*
X1618110Y186626D02*
X1599409D01*
Y166941D01*
X1618110D01*
Y186626D01*
D02*
G37*
G36*
X1591535D02*
X1572835D01*
Y166941D01*
X1591535D01*
Y186626D01*
D02*
G37*
G36*
X1618110Y159067D02*
X1599409D01*
Y139382D01*
X1618110D01*
Y159067D01*
D02*
G37*
G36*
X1591535D02*
X1572835D01*
Y139382D01*
X1591535D01*
Y159067D01*
D02*
G37*
G36*
X1625984Y230098D02*
X1624160Y230098D01*
X1610236D01*
Y212381D01*
Y194665D01*
X1625984D01*
X1627005Y195295D01*
X1633005Y191950D01*
Y183674D01*
X1628937D01*
Y142335D01*
X1632758D01*
Y123415D01*
X1631501Y122575D01*
X1628921Y118714D01*
X1622629Y119591D01*
X1622569Y119894D01*
X1619305Y124778D01*
X1614422Y128041D01*
X1608661Y129187D01*
X1602901Y128041D01*
X1598017Y124778D01*
X1597782Y124426D01*
X1590566D01*
X1589778Y125605D01*
X1584894Y128868D01*
X1579134Y130014D01*
X1573373Y128868D01*
X1568490Y125605D01*
X1565227Y120721D01*
X1564081Y114961D01*
X1565227Y109200D01*
X1568490Y104317D01*
X1573373Y101053D01*
X1579134Y99908D01*
X1584894Y101053D01*
X1589778Y104317D01*
X1590013Y104669D01*
X1597229D01*
X1598017Y103490D01*
X1602901Y100227D01*
X1608661Y99081D01*
X1614422Y100227D01*
X1619305Y103490D01*
X1621151Y106251D01*
X1627520Y104984D01*
X1627761Y103773D01*
X1629314Y101449D01*
Y87888D01*
X1624865Y87302D01*
X1616485Y83831D01*
X1609289Y78309D01*
X1603767Y71113D01*
X1600296Y62733D01*
X1599112Y53740D01*
X1600296Y44747D01*
X1603767Y36367D01*
X1609289Y29171D01*
X1616485Y23649D01*
X1624865Y20178D01*
X1633858Y18994D01*
X1642851Y20178D01*
X1651231Y23649D01*
X1658428Y29171D01*
X1663949Y36367D01*
X1667420Y44747D01*
X1668604Y53740D01*
X1667420Y62733D01*
X1663949Y71113D01*
X1658428Y78309D01*
X1654643Y81213D01*
Y97336D01*
X1655900Y98176D01*
X1659640Y103773D01*
X1660953Y110376D01*
X1659640Y116978D01*
X1658087Y119302D01*
Y142335D01*
X1668307D01*
Y183674D01*
X1658334D01*
Y197617D01*
X1662402D01*
Y227145D01*
X1630761Y227145D01*
X1625984Y230098D01*
D02*
G37*
G36*
X1834646Y102362D02*
X1818898D01*
Y87599D01*
X1834646D01*
Y102362D01*
D02*
G37*
G36*
X1456693Y92813D02*
Y57678D01*
X1478567D01*
Y67520D01*
X1477688Y74200D01*
X1475109Y80425D01*
X1471007Y85771D01*
X1465661Y89873D01*
X1459436Y92451D01*
X1456693Y92813D01*
D02*
G37*
G36*
X1716536Y92813D02*
Y57677D01*
X1738410D01*
Y67520D01*
X1737530Y74200D01*
X1734952Y80425D01*
X1730850Y85771D01*
X1725504Y89873D01*
X1719279Y92451D01*
X1716536Y92813D01*
D02*
G37*
G36*
X1708662D02*
X1705918Y92451D01*
X1699693Y89873D01*
X1694347Y85771D01*
X1690245Y80425D01*
X1687667Y74200D01*
X1686787Y67520D01*
Y57677D01*
X1708662D01*
Y92813D01*
D02*
G37*
%LPD*%
G36*
X1493168Y529676D02*
X1499352Y529676D01*
X1507323Y527677D01*
X1513314Y521686D01*
X1517307Y513693D01*
X1515323Y508677D01*
X1475323D01*
X1473323Y515677D01*
X1477323Y523677D01*
X1483323Y527677D01*
X1487323Y529677D01*
X1493168Y529676D01*
D02*
G37*
G36*
X1515286Y472676D02*
X1511324Y466676D01*
X1505300Y462687D01*
X1501324Y460678D01*
X1495323Y458677D01*
X1487965Y460678D01*
X1483335Y462687D01*
X1479347Y466675D01*
X1475324Y472676D01*
Y480676D01*
X1515286D01*
Y472676D01*
D02*
G37*
%LPC*%
G36*
X280504Y319882D02*
X264370D01*
Y288783D01*
X268114Y289528D01*
X274625Y293879D01*
X278976Y300390D01*
X280504Y308071D01*
Y319882D01*
D02*
G37*
G36*
X256496D02*
X240362D01*
Y308071D01*
X241890Y300390D01*
X246241Y293879D01*
X252752Y289528D01*
X256496Y288783D01*
Y319882D01*
D02*
G37*
G36*
X216535Y265748D02*
X202755D01*
Y250000D01*
X216535D01*
Y265748D01*
D02*
G37*
G36*
X194881D02*
X181102D01*
Y250000D01*
X194881D01*
Y265748D01*
D02*
G37*
G36*
X59055Y240158D02*
X41339D01*
Y227362D01*
X59055D01*
Y240158D01*
D02*
G37*
G36*
X362110Y213053D02*
X356350Y211907D01*
X351466Y208644D01*
X348203Y203760D01*
X347057Y198000D01*
X348203Y192239D01*
X351466Y187356D01*
X356350Y184093D01*
X362110Y182947D01*
X367871Y184093D01*
X372754Y187356D01*
X376017Y192239D01*
X377163Y198000D01*
X376017Y203760D01*
X372754Y208644D01*
X367871Y211907D01*
X362110Y213053D01*
D02*
G37*
G36*
X324110D02*
X318350Y211907D01*
X313466Y208644D01*
X310203Y203760D01*
X309057Y198000D01*
X310203Y192239D01*
X313466Y187356D01*
X318350Y184093D01*
X324110Y182947D01*
X329871Y184093D01*
X334754Y187356D01*
X338017Y192239D01*
X339163Y198000D01*
X338017Y203760D01*
X334754Y208644D01*
X329871Y211907D01*
X324110Y213053D01*
D02*
G37*
G36*
X54331Y99783D02*
X20866D01*
Y66318D01*
X54331D01*
Y99783D01*
D02*
G37*
G36*
X158268Y97127D02*
X149275Y95943D01*
X140895Y92472D01*
X133698Y86950D01*
X128177Y79754D01*
X124706Y71374D01*
X123522Y62381D01*
X124706Y53388D01*
X128177Y45008D01*
X133698Y37812D01*
X140895Y32290D01*
X149275Y28819D01*
X158268Y27635D01*
X167261Y28819D01*
X175641Y32290D01*
X182837Y37812D01*
X188359Y45008D01*
X191830Y53388D01*
X193014Y62381D01*
X191830Y71374D01*
X188359Y79754D01*
X182837Y86950D01*
X175641Y92472D01*
X167261Y95943D01*
X158268Y97127D01*
D02*
G37*
G36*
X95669Y58444D02*
X62205D01*
Y24980D01*
X95669D01*
Y58444D01*
D02*
G37*
G36*
X54331D02*
X20866D01*
Y24980D01*
X54331D01*
Y58444D01*
D02*
G37*
%LPD*%
D10*
X1514921Y512664D02*
G03*
X1475724Y512664I-19599J-3987D01*
G01*
Y476690D02*
G03*
X1514921Y476690I19599J3987D01*
G01*
D11*
X653918Y105176D02*
G03*
X699094Y60000I45176J0D01*
G01*
X946188D02*
X946519Y60331D01*
X707283Y60000D02*
X946188D01*
X653165Y105176D02*
Y191378D01*
D12*
X463496Y223425D02*
D03*
Y184055D02*
D03*
X198819Y219488D02*
D03*
Y180118D02*
D03*
X1097505Y724409D02*
D03*
Y685039D02*
D03*
X1903937Y138583D02*
D03*
Y177953D02*
D03*
D13*
X1315886Y691500D02*
D03*
X1276516D02*
D03*
X1143701Y294383D02*
D03*
X1104331D02*
D03*
Y330623D02*
D03*
X1143701D02*
D03*
X1228347Y480315D02*
D03*
X1188976D02*
D03*
X1271653D02*
D03*
X1311024D02*
D03*
X1143701Y258480D02*
D03*
X1104331D02*
D03*
X1315886Y655510D02*
D03*
X1276516D02*
D03*
X1276315Y728000D02*
D03*
X1315685D02*
D03*
X1239425Y601614D02*
D03*
X1278795D02*
D03*
X1775591Y106299D02*
D03*
X1814961D02*
D03*
D14*
X260433Y46260D02*
D03*
X310433D02*
D03*
X360433D02*
D03*
X410433D02*
D03*
X260433Y323819D02*
D03*
X310433D02*
D03*
X360433D02*
D03*
X410433D02*
D03*
D15*
X1855709Y744094D02*
D03*
X1931693D02*
D03*
Y456693D02*
D03*
X1855709D02*
D03*
D16*
X1824803Y511811D02*
D03*
Y688976D02*
D03*
Y629921D02*
D03*
D17*
X332806Y540880D02*
D03*
X442018D02*
D03*
X332806Y599936D02*
D03*
Y580250D02*
D03*
Y560566D02*
D03*
X442018D02*
D03*
Y580250D02*
D03*
Y599936D02*
D03*
D18*
X407097Y615172D02*
D03*
X387412D02*
D03*
X367727D02*
D03*
X407097Y525644D02*
D03*
X367727D02*
D03*
X387412D02*
D03*
D19*
X139764Y244094D02*
D03*
Y275591D02*
D03*
Y307087D02*
D03*
Y338583D02*
D03*
X37401D02*
D03*
Y307087D02*
D03*
Y275591D02*
D03*
Y244094D02*
D03*
D20*
X1633858Y53740D02*
D03*
X492126Y49212D02*
D03*
X584646D02*
D03*
X68897Y149606D02*
D03*
D21*
X1840551Y187287D02*
D03*
X1803150D02*
D03*
X1765748D02*
D03*
Y285712D02*
D03*
X1803150D02*
D03*
X1840551D02*
D03*
D22*
X1595472Y163004D02*
D03*
X1648622D02*
D03*
X993110Y480315D02*
D03*
X939961D02*
D03*
X1522834Y425984D02*
D03*
X1469685D02*
D03*
X1851378Y356299D02*
D03*
X1798228D02*
D03*
X187008Y610200D02*
D03*
X240157D02*
D03*
X841542Y517433D02*
D03*
X894691D02*
D03*
D23*
X1645669Y212381D02*
D03*
X1606299D02*
D03*
X946850Y60000D02*
D03*
X986220D02*
D03*
X834228Y124213D02*
D03*
X873598D02*
D03*
X834228Y297433D02*
D03*
X873598D02*
D03*
X834228Y263433D02*
D03*
X873598D02*
D03*
X653228Y270433D02*
D03*
X692598D02*
D03*
X676850Y673705D02*
D03*
X716220D02*
D03*
X877543Y339378D02*
D03*
X838173D02*
D03*
X877543Y377000D02*
D03*
X838173D02*
D03*
X381301Y440039D02*
D03*
X420671D02*
D03*
X360886Y662205D02*
D03*
X321516D02*
D03*
X403543D02*
D03*
X442913D02*
D03*
X303937Y502362D02*
D03*
X264567D02*
D03*
D24*
X1495323Y520268D02*
D03*
D25*
Y494677D02*
D03*
D26*
X1625000Y483465D02*
D03*
D27*
Y433268D02*
D03*
Y533662D02*
D03*
D28*
X1671260Y505118D02*
D03*
Y483465D02*
D03*
X1578740Y505118D02*
D03*
Y483465D02*
D03*
Y461811D02*
D03*
X1671260D02*
D03*
D29*
X1250000Y285433D02*
D03*
D30*
X1206693Y314961D02*
D03*
Y295276D02*
D03*
Y275590D02*
D03*
Y255905D02*
D03*
X1293307Y314961D02*
D03*
Y295276D02*
D03*
Y275590D02*
D03*
Y255905D02*
D03*
D31*
X1225394Y523622D02*
D03*
X1284449D02*
D03*
Y561024D02*
D03*
X1225394D02*
D03*
D32*
X1867493Y42689D02*
D03*
X1912035Y87231D02*
D03*
D33*
X729409Y734433D02*
D03*
X672323D02*
D03*
D34*
X186609Y662953D02*
D03*
D35*
X45276Y661417D02*
D03*
X39370Y393701D02*
D03*
D36*
X1106110Y421000D02*
D03*
D37*
X68898Y748031D02*
D03*
X388110D02*
D03*
X281496D02*
D03*
X175197D02*
D03*
D38*
X792913Y672008D02*
D03*
Y618858D02*
D03*
X135827Y664370D02*
D03*
Y611220D02*
D03*
X1743110Y454764D02*
D03*
Y507913D02*
D03*
X1899606Y227362D02*
D03*
Y280512D02*
D03*
D39*
X751913Y625748D02*
D03*
Y665118D02*
D03*
X511913Y567118D02*
D03*
Y527748D02*
D03*
X775913Y247118D02*
D03*
Y207748D02*
D03*
X740913Y247118D02*
D03*
Y207748D02*
D03*
X631890Y709748D02*
D03*
Y749118D02*
D03*
X90551Y610249D02*
D03*
Y649619D02*
D03*
X1338189Y301575D02*
D03*
Y262205D02*
D03*
X198819Y269685D02*
D03*
Y309055D02*
D03*
X463496Y145118D02*
D03*
Y105748D02*
D03*
D40*
X60039Y503937D02*
D03*
X156496D02*
D03*
D41*
X108268Y436024D02*
D03*
D42*
Y571850D02*
D03*
D43*
X125984Y477362D02*
D03*
X90551D02*
D03*
Y530512D02*
D03*
X125984D02*
D03*
D44*
X672913Y435433D02*
D03*
D45*
X792008Y522047D02*
D03*
Y506299D02*
D03*
Y490551D02*
D03*
Y474803D02*
D03*
Y459055D02*
D03*
Y443307D02*
D03*
Y427559D02*
D03*
Y411811D02*
D03*
Y396063D02*
D03*
Y380315D02*
D03*
Y364567D02*
D03*
Y348819D02*
D03*
X553819D02*
D03*
Y364567D02*
D03*
Y380315D02*
D03*
Y396063D02*
D03*
Y411811D02*
D03*
Y427559D02*
D03*
Y443307D02*
D03*
Y459055D02*
D03*
Y474803D02*
D03*
Y490551D02*
D03*
Y506299D02*
D03*
Y522047D02*
D03*
D46*
X759527Y316339D02*
D03*
X743779D02*
D03*
X728031D02*
D03*
X712283D02*
D03*
X696535D02*
D03*
X680787D02*
D03*
X665039D02*
D03*
X649291D02*
D03*
X633543D02*
D03*
X617795D02*
D03*
X602047D02*
D03*
X586299D02*
D03*
Y554528D02*
D03*
X602047D02*
D03*
X617795D02*
D03*
X633543D02*
D03*
X649291D02*
D03*
X665039D02*
D03*
X680787D02*
D03*
X696535D02*
D03*
X712283D02*
D03*
X728031D02*
D03*
X743779D02*
D03*
X759527D02*
D03*
D47*
X1151063Y53150D02*
D03*
X1284921D02*
D03*
D48*
X831275Y221976D02*
D03*
X876551D02*
D03*
Y164890D02*
D03*
X831275D02*
D03*
D49*
X1103418Y60000D02*
D03*
X1066017D02*
D03*
X951772Y520472D02*
D03*
X989173D02*
D03*
D50*
X652913Y233134D02*
D03*
Y195732D02*
D03*
X1024724Y62598D02*
D03*
Y100000D02*
D03*
D51*
X1206449Y690551D02*
D03*
Y710236D02*
D03*
Y729921D02*
D03*
X1145425D02*
D03*
Y710236D02*
D03*
Y690551D02*
D03*
D52*
X307087Y462598D02*
D03*
X287402D02*
D03*
Y379921D02*
D03*
X307087D02*
D03*
D53*
X255905Y440945D02*
D03*
Y421260D02*
D03*
Y401575D02*
D03*
X338583D02*
D03*
Y421260D02*
D03*
Y440945D02*
D03*
D54*
X1312839Y693563D02*
X1314902Y691500D01*
X1804134Y120275D02*
X1816535Y107874D01*
X1763780Y273228D02*
Y285827D01*
X1794488Y43307D02*
X1862205D01*
X1744094Y93701D02*
X1794488Y43307D01*
X1744094Y93701D02*
Y253543D01*
X1763780Y273228D01*
X334646Y440945D02*
Y468433D01*
X306101Y504526D02*
X334646D01*
X303937Y502362D02*
X306101Y504526D01*
X367727Y525644D02*
Y529581D01*
Y508275D02*
Y525644D01*
X789961Y524094D02*
X792008Y522047D01*
X553819D02*
X557088D01*
X552993Y522110D02*
X553056Y522047D01*
X759527Y316339D02*
X762433Y313433D01*
X552993Y522110D02*
Y537728D01*
X552167Y538554D02*
X552993Y537728D01*
X747677Y625591D02*
X759527Y613740D01*
X1315024Y695748D02*
X1344016D01*
X1313331Y694055D02*
X1315024Y695748D01*
X1767717Y112205D02*
Y183722D01*
X517614Y522047D02*
X553056D01*
X553819D01*
X156496Y503937D02*
X157479Y504920D01*
X338583Y401575D02*
Y421260D01*
X1284327Y722075D02*
X1312839Y693563D01*
X1344016Y695748D02*
X1347913Y699646D01*
X90551Y438913D02*
Y477362D01*
X93441Y436024D02*
X108268D01*
X90551Y438913D02*
X93441Y436024D01*
X338583Y440945D02*
X339488Y440039D01*
X381301D01*
X334646Y468433D02*
Y504526D01*
X308992Y468433D02*
X334646D01*
X363978Y504526D02*
X367727Y508275D01*
X334646Y504526D02*
X363978D01*
X307087Y462598D02*
Y466527D01*
X308992Y468433D01*
X961551Y492063D02*
X989173Y519685D01*
X950724Y492063D02*
X961551D01*
X809055Y308159D02*
Y309882D01*
X631890Y747150D02*
Y749118D01*
X1804134Y120275D02*
Y186303D01*
X107283Y437008D02*
X108268Y436024D01*
X1312027Y695359D02*
X1313331Y694055D01*
X1276516Y729787D02*
X1277500D01*
X1284327Y722960D01*
Y722075D02*
Y722960D01*
X1314902Y691500D02*
X1315886D01*
X939961Y480315D02*
Y481299D01*
X950724Y492063D01*
X511913Y527748D02*
X517614Y522047D01*
X759527Y554528D02*
Y613740D01*
D55*
X1496693Y461811D02*
X1578740D01*
X1495323Y463181D02*
X1496693Y461811D01*
X1571850Y527522D02*
X1578880Y534551D01*
X1571850Y506008D02*
Y527522D01*
Y506008D02*
X1572740Y505118D01*
X1578740D01*
X1578880Y534551D02*
X1624110D01*
X1625000Y533662D01*
X1534055Y433268D02*
X1625000D01*
X1899606Y179134D02*
X1903937Y183464D01*
X1847638Y146063D02*
X1874016D01*
X1844161Y149540D02*
X1847638Y146063D01*
X1899606Y226378D02*
X1903937Y222047D01*
Y183464D02*
Y222047D01*
X1903100Y134302D02*
X1903543Y133858D01*
X1844161Y181335D02*
Y183678D01*
Y181335D02*
X1844394Y181102D01*
X1840551Y187287D02*
X1844161Y183678D01*
X789905Y617850D02*
X791712Y616043D01*
X399608Y570677D02*
X401036D01*
X79111Y284472D02*
X101725Y307087D01*
X1338760Y302146D02*
Y326246D01*
X1338189Y301575D02*
X1338760Y302146D01*
X1294006Y371000D02*
X1338760Y326246D01*
X1282110Y371000D02*
X1294006D01*
X430380Y724093D02*
X431851Y722623D01*
X421891Y724093D02*
X430380D01*
X397953Y748031D02*
X421891Y724093D01*
X388110Y748031D02*
X397953D01*
X1917323Y86614D02*
Y95729D01*
X410433Y130008D02*
X463496Y183071D01*
X410433Y104331D02*
Y130008D01*
X139764Y212384D02*
X169992Y182156D01*
X196781D01*
X198819Y180118D01*
X139764Y212384D02*
Y244094D01*
X136905Y246953D02*
X139764Y244094D01*
X410433Y91535D02*
Y104331D01*
Y51323D02*
Y91535D01*
X406982Y94986D02*
X410433Y91535D01*
X384886Y94986D02*
X406982D01*
X383415Y96457D02*
X384886Y94986D01*
X410433Y104331D02*
X411850Y105748D01*
X463496D01*
Y183071D02*
Y184055D01*
X193898Y308071D02*
X194882Y309055D01*
X140748Y308071D02*
X193898D01*
X139764Y307087D02*
X140748Y308071D01*
X409110Y50000D02*
X410433Y51323D01*
X116630Y246953D02*
X136905D01*
X79111Y284472D02*
X116630Y246953D01*
X139764Y307087D02*
Y338583D01*
X70229Y275591D02*
X79111Y284472D01*
X37401Y275591D02*
X70229D01*
X101725Y307087D02*
X139764D01*
X1163973Y389281D02*
X1261665D01*
X1105315Y330623D02*
X1163973Y389281D01*
X372499Y571701D02*
X399608D01*
X367727Y566929D02*
X372499Y571701D01*
X367727Y529581D02*
Y566929D01*
X788898Y618858D02*
X789905Y617850D01*
X787913Y618858D02*
X789961Y616811D01*
X307087Y458661D02*
Y462598D01*
X1261665Y389281D02*
X1279945Y371000D01*
X516720Y223609D02*
X518110Y225000D01*
X1279945Y371000D02*
X1282110D01*
X1104331Y330623D02*
X1105315D01*
X1104331Y294383D02*
Y330623D01*
Y263032D02*
Y294383D01*
X925984Y609055D02*
Y614173D01*
X899606Y582677D02*
X925984Y609055D01*
X825079Y582677D02*
X899606D01*
X791712Y616043D02*
X825079Y582677D01*
X1903100Y134302D02*
Y136270D01*
Y109953D02*
Y134302D01*
Y109953D02*
X1917323Y95729D01*
X1899606Y139764D02*
X1903100Y136270D01*
X1844394Y181102D02*
X1897638D01*
X787913Y618858D02*
X788898D01*
X789961Y524094D02*
Y616811D01*
X334646Y440945D02*
X334740Y440850D01*
X401036Y570677D02*
X406425Y576066D01*
Y610563D01*
D56*
X1522563Y427240D02*
X1524090D01*
X1526607Y429757D01*
X1522834Y425984D02*
X1524090Y427240D01*
X1526607Y429757D02*
Y459444D01*
X1524606Y422835D02*
Y423819D01*
X1495323Y520268D02*
Y553212D01*
X1192000Y541000D02*
X1193268D01*
X1208980Y556712D01*
X1221083D01*
X1225394Y561024D01*
X1787599Y375196D02*
X1798228Y364567D01*
X1663382Y375196D02*
X1787599D01*
X1641979Y108654D02*
X1643701Y110376D01*
X1641979Y61861D02*
Y108654D01*
X1633858Y53740D02*
X1641979Y61861D01*
X1645669Y165957D02*
X1648622Y163004D01*
X1645669Y165957D02*
Y212381D01*
X1643701Y110376D02*
X1645423Y112098D01*
Y159805D01*
X1648622Y163004D01*
X1844161Y149540D02*
Y181335D01*
X1511872Y625258D02*
X1516110Y621020D01*
X1499323Y524268D02*
Y538177D01*
X1495323Y520268D02*
X1499323Y524268D01*
X1495323Y553212D02*
X1517444Y575333D01*
X1517110Y614000D02*
X1517444Y613666D01*
Y575333D02*
Y613666D01*
D57*
X1697953Y463701D02*
X1740768Y506516D01*
X1749626D01*
X1672658D02*
X1740768D01*
X1749626D02*
X1751968Y508858D01*
X1671260Y505118D02*
X1672658Y506516D01*
X1673150Y463701D02*
X1697953D01*
X1671260Y461811D02*
X1673150Y463701D01*
X1840551Y285712D02*
Y314961D01*
X1850091Y324500D01*
X406228Y612103D02*
Y662059D01*
X803858Y307086D02*
X821575D01*
X792913Y672008D02*
X796488D01*
X787913D02*
X792913D01*
X386270Y435630D02*
X388238D01*
X330709Y440945D02*
X331614Y440039D01*
X1850091Y324500D02*
X1885925D01*
X406228Y612103D02*
X407097Y611235D01*
X406228Y662059D02*
X407097Y662928D01*
X821575Y307086D02*
X830228Y298433D01*
X805504Y313433D02*
X809055Y309882D01*
X762433Y313433D02*
X805504D01*
D58*
X506693Y43701D02*
Y65099D01*
X332806Y599936D02*
X347794D01*
X325261D02*
X332806D01*
X861519Y318000D02*
X914110D01*
X839173Y378346D02*
X840141Y377378D01*
X838173D02*
X840141D01*
X825362Y364567D02*
X838173Y377378D01*
X136811Y552165D02*
X163258D01*
X125984Y541338D02*
X136811Y552165D01*
X163258D02*
X164768Y553676D01*
X197835D01*
X1116142Y704660D02*
X1120819Y709337D01*
X1116142Y690551D02*
X1145425D01*
X1103017D02*
X1116142D01*
Y704660D01*
X1120819Y709337D02*
X1144526D01*
X1097505Y685039D02*
X1103017Y690551D01*
X1144526Y709337D02*
X1145425Y710236D01*
X125984Y530512D02*
Y541338D01*
X108268Y571850D02*
X111220Y574803D01*
X278543Y108265D02*
Y160433D01*
X260433Y90155D02*
X278543Y108265D01*
X79724Y597454D02*
X90551Y608281D01*
X79724Y552165D02*
Y597454D01*
Y552165D02*
X90551Y541338D01*
X91522Y611220D02*
X135827D01*
X90551Y608281D02*
Y610249D01*
X91522Y611220D01*
X190117Y653575D02*
X279474D01*
X186609Y657083D02*
X190117Y653575D01*
X148293Y405512D02*
X151575D01*
Y440945D01*
X260433Y46260D02*
Y90155D01*
X258911Y373228D02*
X287007D01*
X287402Y373622D02*
Y379921D01*
X287007Y373228D02*
X287402Y373622D01*
Y379921D02*
Y383858D01*
X136482Y393701D02*
X148293Y405512D01*
X39370Y393701D02*
X136482D01*
X125984Y466535D02*
X151575Y440945D01*
X347794Y599936D02*
X374264Y573466D01*
X805232Y427559D02*
X808126Y430453D01*
X808621D01*
X816554Y438386D01*
X813921Y417658D02*
X821854Y425590D01*
X813426Y417658D02*
X813921D01*
X807579Y411811D02*
X813426Y417658D01*
X792008Y411811D02*
X807579D01*
X1045383Y425590D02*
X1052732Y432939D01*
X821854Y425590D02*
X1045383D01*
X816554Y438386D02*
X1040083D01*
X1082012Y480315D01*
X792008Y427559D02*
X805232D01*
X1082012Y480315D02*
X1188976D01*
X536968Y258032D02*
X586023Y307086D01*
X536968Y207561D02*
Y258032D01*
X840141Y339378D02*
X861519Y318000D01*
X840141Y377378D02*
X859441Y358079D01*
X914031D01*
X916110Y356000D01*
X1052732Y432939D02*
X1065441D01*
X1091163Y458661D01*
X551960Y253082D02*
X602047Y303168D01*
X551960Y151703D02*
Y253082D01*
X529528Y200120D02*
X536968Y207561D01*
X1091163Y458661D02*
X1249016D01*
X529528Y149606D02*
Y200120D01*
Y87933D02*
Y149606D01*
X323014Y602183D02*
X325261Y599936D01*
X323014Y602183D02*
Y660706D01*
X566929Y135827D02*
Y136735D01*
Y74504D02*
Y135827D01*
X551960Y151703D02*
X566929Y136735D01*
Y74504D02*
X581543Y59890D01*
X506693Y65099D02*
X529528Y87933D01*
X1211580Y729921D02*
X1212938Y731280D01*
X1209985Y728327D02*
X1211580Y729921D01*
X1237110D01*
X1275532Y691500D01*
X1276516D01*
X838173Y339378D02*
X840141D01*
X321516Y662205D02*
X323014Y660706D01*
X136847Y610200D02*
X187008D01*
X839173Y378346D02*
Y379063D01*
X1249016Y458661D02*
X1270669Y480315D01*
X1271653D01*
X125984Y466535D02*
Y477362D01*
X90551Y530512D02*
Y541338D01*
X135827Y611220D02*
X136847Y610200D01*
X828732Y348819D02*
X838173Y339378D01*
X602047Y303168D02*
Y304385D01*
X792008Y396063D02*
X805553D01*
X792008Y380315D02*
X806475D01*
X792008Y364567D02*
X825362D01*
X792008Y348819D02*
X828732D01*
D59*
X1097220Y723140D02*
X1104001Y729921D01*
X1092652Y723140D02*
X1097220D01*
X1104001Y729921D02*
X1145425D01*
X1073819Y704307D02*
X1092652Y723140D01*
X1073819Y632087D02*
Y704307D01*
Y632087D02*
X1075984Y629921D01*
D60*
X1206693Y295276D02*
X1207677D01*
X1145745D02*
X1206693D01*
X1143701Y297320D02*
X1145745Y295276D01*
X407097Y511836D02*
X421575D01*
X186110Y746000D02*
Y749000D01*
X442110Y662000D02*
X443110Y663000D01*
X385491Y613156D02*
Y631856D01*
X369648Y628774D02*
X379110Y638236D01*
X369648Y613156D02*
Y628774D01*
X1213778Y314961D02*
Y358647D01*
X1213582D02*
X1213778D01*
X204988Y458661D02*
X287402D01*
X387523Y496477D02*
Y529470D01*
X1143701Y333560D02*
X1147622D01*
X608231Y586842D02*
X617795Y577278D01*
X484962Y586033D02*
X493447Y577548D01*
X578664Y603236D02*
X593612D01*
X611022Y585826D01*
X488586Y680706D02*
X560836Y608455D01*
X449756Y655362D02*
X472197D01*
X442913Y662205D02*
X449756Y655362D01*
X268508Y680706D02*
X488586D01*
X228788Y720425D02*
X268508Y680706D01*
X1186669Y275019D02*
X1206121D01*
X1206693Y275590D01*
X1175197Y263547D02*
X1186669Y275019D01*
X1152521Y255906D02*
X1175197D01*
Y259844D02*
Y263547D01*
X1143701Y263032D02*
X1147737Y258996D01*
X1206693Y275590D02*
X1207677D01*
X336743Y578740D02*
Y580250D01*
X304740Y578740D02*
X336743D01*
X300000Y556451D02*
Y574000D01*
X304740Y578740D01*
X407097Y525644D02*
Y529581D01*
Y511836D02*
Y525644D01*
X421575Y511836D02*
X422198D01*
X397756Y486244D02*
X421579D01*
X387523Y496477D02*
X397756Y486244D01*
X376432Y640915D02*
Y648628D01*
X362854Y662205D02*
X376432Y648628D01*
Y640915D02*
X379110Y638236D01*
X473236Y573147D02*
Y592764D01*
X466064Y599936D02*
X473236Y592764D01*
X442018Y599936D02*
X466064D01*
X473236Y573147D02*
X482526Y563857D01*
Y508834D02*
Y563857D01*
Y508834D02*
X494266Y497094D01*
X579524Y212680D02*
X579823Y212381D01*
X581771D01*
X485398Y358285D02*
X507427Y380315D01*
X449831Y386783D02*
X473126D01*
X389716Y397657D02*
X438957D01*
X649310Y302000D02*
Y316000D01*
X547046Y443110D02*
X547243Y443307D01*
X517112Y464682D02*
X522739Y459055D01*
X492296Y464682D02*
X517112D01*
X479358Y486173D02*
X511066D01*
X574013Y187055D02*
Y190843D01*
X522004Y508016D02*
X523720Y506299D01*
X493447Y513358D02*
Y577548D01*
X594032Y675597D02*
Y677423D01*
X633543Y302360D02*
Y316339D01*
X523427Y626770D02*
X552663Y597534D01*
X696535Y554528D02*
Y589365D01*
X602047Y554528D02*
Y563893D01*
X619370Y651085D02*
X680787Y589668D01*
X595277Y704920D02*
X610239Y689958D01*
X563850Y201006D02*
Y248179D01*
X564175Y697833D02*
X568736D01*
X493483Y407141D02*
X521017D01*
X613736Y640164D02*
X614847D01*
X613110Y266000D02*
X649310Y302000D01*
X512616Y443110D02*
X547046D01*
X598157Y567783D02*
X602047Y563893D01*
X492083Y427200D02*
X553460D01*
X522436Y474803D02*
X553819D01*
X712283Y554528D02*
Y589062D01*
X633543Y302360D02*
X633543D01*
X507427Y380315D02*
X553819D01*
X680787Y554528D02*
Y589668D01*
X521017Y407141D02*
X525688Y411811D01*
X601994Y651906D02*
X613736Y640164D01*
X438957Y397657D02*
X449831Y386783D01*
X614847Y640164D02*
X665039Y589971D01*
X617795Y554528D02*
Y577278D01*
X563850Y201006D02*
X574013Y190843D01*
X460586Y357301D02*
X461570Y358285D01*
X618544Y651085D02*
X619370D01*
X665039Y554528D02*
Y589971D01*
X623894Y662006D02*
X696535Y589365D01*
X473126Y386783D02*
X493483Y407141D01*
X476808Y626770D02*
X523427D01*
X581771Y212381D02*
Y250589D01*
X523720Y506299D02*
X553819D01*
X568921Y597534D02*
X598157Y568298D01*
X581771Y250589D02*
X633543Y302360D01*
X610239Y674835D02*
Y689958D01*
X461570Y358285D02*
X485398D01*
X568736Y697833D02*
X578648Y687921D01*
X598157Y567783D02*
Y568298D01*
X633543Y554528D02*
Y590577D01*
X563850Y248179D02*
X617795Y302124D01*
X628530Y681888D02*
X644574Y665844D01*
X626490Y681888D02*
X628530D01*
X610239Y674835D02*
X623067Y662006D01*
X617795Y302124D02*
Y303583D01*
X578648Y687921D02*
X583533D01*
X511066Y486173D02*
X522436Y474803D01*
X577110Y668685D02*
X577425D01*
X605799Y618321D02*
X633543Y590577D01*
X644574Y656771D02*
Y665844D01*
X491265Y463652D02*
X492296Y464682D01*
X493447Y513358D02*
X498790Y508016D01*
X623067Y662006D02*
X623894D01*
X613110Y241412D02*
Y266000D01*
X525688Y411811D02*
X553819D01*
X583533Y687921D02*
X594032Y677423D01*
X522739Y459055D02*
X553819D01*
X498790Y508016D02*
X522004D01*
X577425Y668685D02*
X594204Y651906D01*
X553460Y427200D02*
X553819Y427559D01*
X593741Y618321D02*
X605799D01*
X644574Y656771D02*
X712283Y589062D01*
X594204Y651906D02*
X601994D01*
X552663Y597534D02*
X568921D01*
X594032Y675597D02*
X618544Y651085D01*
X740913Y246433D02*
Y256760D01*
X873598Y124213D02*
Y171748D01*
X832173Y263433D02*
X834228Y261378D01*
X828913Y222457D02*
X834228Y227772D01*
X725457Y679087D02*
Y734433D01*
X668370Y729787D02*
Y734433D01*
X629110Y708000D02*
X641189Y720079D01*
X573445Y608455D02*
X578664Y603236D01*
X560836Y608455D02*
X573445D01*
X387412Y529581D02*
X387523Y529470D01*
X717961Y672244D02*
Y673038D01*
X718199Y619203D02*
Y672244D01*
X718614D01*
X717961D02*
X718199D01*
X718614D02*
X725457Y679087D01*
X831497Y412007D02*
X1063795D01*
X1065869Y414081D01*
X126908Y735905D02*
X142388Y720425D01*
X92205Y735905D02*
X126908D01*
X142388Y720425D02*
X228788D01*
X359626Y371035D02*
X367134Y378542D01*
X395529Y375862D02*
X487435D01*
X392849Y378542D02*
X395529Y375862D01*
X367134Y378542D02*
X392849D01*
X375061Y360779D02*
X385491D01*
X360433Y346151D02*
X375061Y360779D01*
X360433Y323819D02*
Y346151D01*
X309992Y371035D02*
X359626D01*
X487435Y375862D02*
X502841Y391267D01*
X431851Y722623D02*
X498143D01*
X494266Y497094D02*
X517480D01*
X524023Y490551D01*
X553819D01*
X418573Y336760D02*
X483061D01*
X413273Y283005D02*
X453121Y322853D01*
X490571D01*
X352050Y283005D02*
X413273D01*
X286423Y217378D02*
X352050Y283005D01*
X269919Y217378D02*
X286423D01*
X490571Y322853D02*
X516537Y348819D01*
X483061Y336760D02*
X510868Y364567D01*
X240157Y610200D02*
X278424Y571933D01*
X280514D01*
X157281Y376275D02*
X173231Y392225D01*
X96066Y376275D02*
X157281D01*
X58374Y338583D02*
X96066Y376275D01*
X37401Y338583D02*
X58374D01*
X100590Y365353D02*
X197049D01*
X42323Y307087D02*
X100590Y365353D01*
X410433Y328620D02*
X418573Y336760D01*
X410433Y323819D02*
Y328620D01*
X202147Y149606D02*
X269919Y217378D01*
X68897Y149606D02*
X202147D01*
X281899Y228299D02*
X309055Y255455D01*
X206654Y228299D02*
X281899D01*
X198827Y220472D02*
X206654Y228299D01*
X198827Y219488D02*
Y220472D01*
X309055Y255455D02*
Y322441D01*
X310433Y323819D01*
X360433Y46260D02*
Y132274D01*
X417394Y189234D01*
X430289D01*
X463496Y222441D01*
Y223425D01*
X298382Y420427D02*
X299215Y419594D01*
X191042D02*
X212393Y440945D01*
X173231Y426904D02*
X204988Y458661D01*
X173231Y392225D02*
Y426904D01*
X310272Y96457D02*
Y100838D01*
Y46421D02*
Y96457D01*
X307087Y373940D02*
X309992Y371035D01*
X498143Y722623D02*
X579781Y640985D01*
X597470D01*
X310433Y308071D02*
Y323819D01*
X516537Y348819D02*
X553819D01*
X217273Y385577D02*
Y415891D01*
X197049Y365353D02*
X217273Y385577D01*
X222641Y421260D02*
X255905D01*
X217273Y415891D02*
X222641Y421260D01*
X173231Y392225D02*
X195571D01*
X256738Y420427D02*
X298382D01*
X255905Y421260D02*
X256738Y420427D01*
X37401Y307087D02*
X42323D01*
X1172167Y368203D02*
X1200745D01*
X1161639Y357675D02*
X1172167Y368203D01*
X1161639Y347577D02*
Y357675D01*
X655496Y661309D02*
X728031Y588774D01*
X655496Y661309D02*
Y684173D01*
X597470Y640985D02*
X609212Y629242D01*
X610323D01*
X649291Y590274D01*
Y554528D02*
Y590274D01*
X631669Y708000D02*
X655496Y684173D01*
X502765Y692516D02*
X571962Y623320D01*
X873598Y123433D02*
Y124213D01*
X1065869Y414081D02*
X1068550Y416762D01*
X825545Y406055D02*
X831497Y412007D01*
X819089Y406055D02*
X825545D01*
X818833Y405799D02*
X819089Y406055D01*
X818338Y405799D02*
X818833D01*
X812491Y399953D02*
X818338Y405799D01*
X812480Y399953D02*
X812491D01*
X808590Y396063D02*
X812480Y399953D01*
X805553Y396063D02*
X808590D01*
X822861Y394878D02*
X823357D01*
X817015Y389031D02*
X822861Y394878D01*
X823613Y395134D02*
X930048D01*
X823357Y394878D02*
X823613Y395134D01*
X817004Y389031D02*
X817015D01*
X808287Y380315D02*
X817004Y389031D01*
X806475Y380315D02*
X808287D01*
X276596Y692516D02*
X502765D01*
X212393Y440945D02*
X255905D01*
X259843D01*
X237766Y731346D02*
X276596Y692516D01*
X191882Y731346D02*
X237766D01*
X175197Y748031D02*
X191882Y731346D01*
X629110Y708000D02*
X631669D01*
X718199Y619203D02*
X743779Y593622D01*
X571962Y623320D02*
X588743D01*
X728031Y554528D02*
Y588774D01*
X743779Y554528D02*
Y593622D01*
X1068550Y416762D02*
X1096113D01*
X1100610Y421260D01*
X525519Y396219D02*
X553662D01*
X520567Y391267D02*
X525519Y396219D01*
X502841Y391267D02*
X520567D01*
X1200745Y368203D02*
X1204026D01*
X510868Y364567D02*
X553819D01*
X1204026Y368203D02*
X1213582Y358647D01*
X1147622Y333560D02*
X1161639Y347577D01*
X930048Y395134D02*
X960847Y364335D01*
X1070852D01*
X1083895Y377378D01*
X1084646D01*
X310272Y46421D02*
X310433Y46260D01*
X1180497Y295490D02*
Y348620D01*
X246063Y609800D02*
X249782Y606081D01*
X379110Y638236D02*
X385491Y631856D01*
Y613156D02*
X387412Y611235D01*
X367727D02*
X369648Y613156D01*
X360886Y662205D02*
X362854D01*
X641189Y720079D02*
X658661D01*
X1147737Y258996D02*
X1148584Y259844D01*
X553662Y396219D02*
X553819Y396063D01*
X1148584Y259844D02*
X1152521Y255906D01*
X696535Y301138D02*
X740913Y256760D01*
X658661Y720079D02*
X668370Y729787D01*
X851913Y193433D02*
X873598Y171748D01*
X807913Y193433D02*
X851913D01*
X754103Y270433D02*
X773163Y251373D01*
X743779Y304933D02*
Y316339D01*
Y304933D02*
X754169Y294543D01*
X728031Y303582D02*
Y316339D01*
Y303582D02*
X749071Y282543D01*
X712283Y302360D02*
Y316339D01*
Y302360D02*
X744211Y270433D01*
X754103Y270433D01*
X696535Y301138D02*
Y316339D01*
X800913Y200433D02*
X807913Y193433D01*
X800913Y200433D02*
Y257017D01*
X834228Y227772D02*
Y261378D01*
X832173Y263433D02*
X834228D01*
X768858Y282543D02*
X775387D01*
X800913Y257017D01*
X749071Y282543D02*
X768858Y282543D01*
X754169Y294543D02*
X780057D01*
X811167Y263433D01*
X832173D01*
X828913Y222457D02*
Y222457D01*
Y230987D01*
X826354Y219898D02*
X828913Y222457D01*
D61*
X1293307Y255905D02*
X1340590D01*
X1292323Y295276D02*
Y314961D01*
X1250000Y285433D02*
X1258366Y293799D01*
X1250906Y255905D02*
Y284527D01*
X1446024Y54685D02*
X1447244Y55906D01*
X1402717Y54685D02*
X1446024D01*
X1386614Y38583D02*
X1402717Y54685D01*
X1293307Y275590D02*
X1314173D01*
X1338189Y299606D01*
Y301575D01*
X1292323Y275590D02*
X1293307D01*
X1250906Y255905D02*
X1293307D01*
X1259842Y295276D02*
X1292323D01*
X1076688Y493169D02*
X1134858D01*
X1169420Y527732D01*
Y547189D01*
X1203983Y581752D01*
X1218579D01*
X1238441Y601614D01*
X1239425D01*
X617795Y303583D02*
Y316339D01*
X1283747Y559338D02*
Y601614D01*
X811230Y451240D02*
X1034759D01*
X803297Y443307D02*
X811230Y451240D01*
X792008Y443307D02*
X803297D01*
X1034759Y451240D02*
X1076688Y493169D01*
X528260Y560252D02*
X530498Y558014D01*
X517760Y560252D02*
X528260D01*
X511913Y566098D02*
X517760Y560252D01*
X511913Y566098D02*
Y567118D01*
X1310039Y480315D02*
X1311024D01*
X1296201Y494154D02*
X1310039Y480315D01*
X1296201Y494154D02*
Y516791D01*
X1287401Y525590D02*
X1296201Y516791D01*
X1283465Y525590D02*
X1287401D01*
X1283465Y559055D02*
X1283747Y559338D01*
X1226378Y525590D02*
X1228347Y523622D01*
Y480315D02*
Y523622D01*
X366692Y610200D02*
X367727Y611235D01*
X1250000Y285433D02*
X1250906Y284527D01*
X946519Y60331D02*
X946850Y60000D01*
X602047Y304385D02*
Y316339D01*
X873598Y263433D02*
Y297433D01*
D62*
X827302Y472044D02*
X831913Y467433D01*
X692213Y270118D02*
Y286368D01*
X680913Y297668D02*
Y411118D01*
X791712Y616043D02*
X794370Y618701D01*
X810302Y472044D02*
X827302D01*
X807543Y474803D02*
X810302Y472044D01*
X792008Y474803D02*
X807543D01*
X759527D02*
X792008D01*
X652843Y270118D02*
Y285442D01*
X791023Y615355D02*
X791712Y616043D01*
X792641Y491185D02*
X935618D01*
X665039Y297638D02*
Y316339D01*
X652843Y285442D02*
X665039Y297638D01*
X680913Y297668D02*
X692213Y286368D01*
X793211Y506299D02*
X838408D01*
D63*
X1716142Y729921D02*
X1757087Y688976D01*
X1706693Y739370D02*
X1716142Y729921D01*
X1757087Y688976D02*
X1824803D01*
X653039Y235118D02*
Y270433D01*
X986220Y60000D02*
X1062008D01*
X1803150Y286305D02*
Y349481D01*
X1751968Y508858D02*
X1752953D01*
X1824803Y580709D01*
Y629921D01*
D64*
X454560Y612912D02*
X521796D01*
X437008Y630465D02*
X454560Y612912D01*
X521796D02*
X548127Y586581D01*
X560322D01*
X586299Y560604D01*
Y554528D02*
Y560604D01*
X1247763Y661923D02*
X1278673D01*
X1169882Y647636D02*
Y684917D01*
X1191343Y706378D01*
X1202591D02*
X1206449Y710236D01*
X1191343Y706378D02*
X1202591D01*
X1240157Y669529D02*
Y694464D01*
X1228244Y706378D02*
X1240157Y694464D01*
X1210307Y706378D02*
X1228244D01*
X1240157Y669529D02*
X1247763Y661923D01*
X1208043Y708642D02*
X1210307Y706378D01*
D65*
X950646Y518559D02*
X951772Y519685D01*
X895817Y518559D02*
X950646D01*
X894691Y517433D02*
X895817Y518559D01*
X894691Y517433D02*
X901837D01*
D66*
X1120079Y60000D02*
X1144685D01*
D67*
X1616535Y729921D02*
D03*
X1566535D02*
D03*
X1516535D02*
D03*
X925984D02*
D03*
X975984D02*
D03*
X1025984D02*
D03*
X925984Y614173D02*
D03*
X975984D02*
D03*
X1025984D02*
D03*
X1075984D02*
D03*
X1125984D02*
D03*
X1716535D02*
D03*
X1666535D02*
D03*
X1616535D02*
D03*
X1566535D02*
D03*
X1516535D02*
D03*
D68*
X1466535Y729921D02*
D03*
X875984D02*
D03*
D69*
X1893701Y659449D02*
D03*
Y541338D02*
D03*
D70*
X1712599Y53740D02*
D03*
X1452756D02*
D03*
D71*
X1373740Y403150D02*
D03*
X1373731Y351969D02*
D03*
D72*
X875984Y614173D02*
D03*
X1466535D02*
D03*
D73*
X158268Y62381D02*
D03*
D74*
X58268D02*
D03*
D75*
X1126378Y530707D02*
D03*
X1716142Y729921D02*
D03*
D76*
X1386614Y118110D02*
D03*
D77*
Y38583D02*
D03*
D78*
X1661417Y307087D02*
D03*
Y267717D02*
D03*
X1622047Y307087D02*
D03*
Y267716D02*
D03*
X1643701Y110376D02*
D03*
X1704721Y232283D02*
D03*
X1874016Y146063D02*
D03*
X1625000Y497087D02*
D03*
X1250000Y302165D02*
D03*
Y268701D02*
D03*
X613786Y145115D02*
D03*
X613858Y186929D02*
D03*
X784094Y96378D02*
D03*
Y23500D02*
D03*
X734094Y96378D02*
D03*
Y23500D02*
D03*
X884094D02*
D03*
Y96378D02*
D03*
X834094D02*
D03*
Y23500D02*
D03*
X700858Y105378D02*
D03*
X693858Y146378D02*
D03*
X934094Y96378D02*
D03*
X994724D02*
D03*
X1052724D02*
D03*
X1044724Y25000D02*
D03*
X994724Y23500D02*
D03*
X934094D02*
D03*
X636264Y50000D02*
D03*
X682337Y23500D02*
D03*
X617858Y96378D02*
D03*
D79*
X1499258Y388210D02*
D03*
X1663382Y375196D02*
D03*
X1456693Y251673D02*
D03*
X1579134Y114961D02*
D03*
X1449960Y339934D02*
D03*
X1608661Y114134D02*
D03*
X611022Y585826D02*
D03*
X93399Y106672D02*
D03*
X131890Y175197D02*
D03*
X470078Y630707D02*
D03*
X472197Y655362D02*
D03*
X1282110Y371000D02*
D03*
X1192000Y541000D02*
D03*
X300000Y556451D02*
D03*
X376432Y640915D02*
D03*
X491000Y590000D02*
D03*
X509801Y446872D02*
D03*
X479012Y487227D02*
D03*
X491265Y464682D02*
D03*
X564175Y697833D02*
D03*
X460586Y357301D02*
D03*
X389716Y397657D02*
D03*
X576110Y670000D02*
D03*
X831913Y470000D02*
D03*
X614110Y245000D02*
D03*
X574013Y187055D02*
D03*
X552167Y538554D02*
D03*
X628160Y682258D02*
D03*
X592110Y621000D02*
D03*
X581771Y212381D02*
D03*
X437008Y630465D02*
D03*
X492083Y429155D02*
D03*
X595277Y704920D02*
D03*
X421575Y511836D02*
D03*
X147766Y571933D02*
D03*
X197835Y553676D02*
D03*
X353876Y256760D02*
D03*
X123955Y693931D02*
D03*
X385491Y360779D02*
D03*
X458617Y404547D02*
D03*
X431851Y722623D02*
D03*
X421579Y486244D02*
D03*
X270616Y628968D02*
D03*
X280514Y571933D02*
D03*
X236220Y363189D02*
D03*
X169233Y230326D02*
D03*
X310272Y96457D02*
D03*
X239877Y250000D02*
D03*
X91535Y298976D02*
D03*
X196850Y123634D02*
D03*
X278543Y160433D02*
D03*
X324110Y198000D02*
D03*
X60960Y565972D02*
D03*
X279474Y653575D02*
D03*
X299215Y419594D02*
D03*
X191042D02*
D03*
X151575Y405512D02*
D03*
X335041Y352755D02*
D03*
X383415Y96457D02*
D03*
X282427Y752989D02*
D03*
X362110Y198000D02*
D03*
X500766Y744676D02*
D03*
X258911Y373228D02*
D03*
X195571Y392225D02*
D03*
X1347323Y670118D02*
D03*
X1347913Y699646D02*
D03*
X1169882Y647636D02*
D03*
X399608Y571701D02*
D03*
X1065869Y414081D02*
D03*
X826182Y740353D02*
D03*
X530498Y558014D02*
D03*
X776182Y740943D02*
D03*
X597049Y737203D02*
D03*
X1043308Y503542D02*
D03*
X914110Y315000D02*
D03*
X809055Y308159D02*
D03*
X38386Y650748D02*
D03*
X1200745Y368203D02*
D03*
X518110Y225000D02*
D03*
X916110Y356000D02*
D03*
X1180497Y348620D02*
D03*
X566929Y135827D02*
D03*
X529528Y149606D02*
D03*
X1327752Y587257D02*
D03*
X1893799Y324500D02*
D03*
X800913Y125433D02*
D03*
X743308Y174017D02*
D03*
X773913Y176433D02*
D03*
X1175197Y259844D02*
D03*
X497873Y123031D02*
D03*
X1084646Y377378D02*
D03*
X40354Y612562D02*
D03*
D80*
X602047Y364567D02*
D03*
Y411811D02*
D03*
Y459055D02*
D03*
Y506299D02*
D03*
X649291Y364567D02*
D03*
Y411811D02*
D03*
Y459055D02*
D03*
Y506299D02*
D03*
X696535Y364567D02*
D03*
Y411811D02*
D03*
Y459055D02*
D03*
Y506299D02*
D03*
X743779Y364567D02*
D03*
Y411811D02*
D03*
Y459055D02*
D03*
Y506299D02*
D03*
%TF.MD5,6420eddca64d74bac2913fad381107a9*%
M02*
