%TF.GenerationSoftware,Altium Limited,Altium Designer,19.0.15 (446)*%
G04 Layer_Color=0*
%FSLAX26Y26*%
%MOIN*%
%TF.FileFunction,Profile,NP*%
%TF.Part,Single*%
G01*
G75*
%TA.AperFunction,Profile*%
%ADD132C,0.001000*%
G36*
X1368110Y433070D02*
X1368109Y431112D01*
X1369607Y427494D01*
X1372376Y424725D01*
X1375994Y423226D01*
X1379910Y423226D01*
X1383528Y424725D01*
X1386297Y427494D01*
X1387795Y431112D01*
X1387794Y433070D01*
X1387795Y433070D01*
X1387795Y698695D01*
X1387697Y700653D01*
X1386018Y704196D01*
X1383111Y706827D01*
X1379418Y708145D01*
X1375502Y707949D01*
X1371959Y706269D01*
X1369329Y703361D01*
X1368011Y699668D01*
X1368110Y697710D01*
Y697711D01*
X1368110Y433070D01*
D02*
G37*
G36*
X1368110Y167322D02*
X1368110Y165364D01*
X1369608Y161746D01*
X1372376Y158977D01*
X1375994Y157478D01*
X1379910Y157478D01*
X1383528Y158977D01*
X1386297Y161746D01*
X1387795Y165364D01*
X1387794Y167322D01*
X1387795Y167322D01*
X1387795Y324500D01*
X1387795Y326458D01*
X1386297Y330076D01*
X1383528Y332845D01*
X1379910Y334344D01*
X1375994Y334344D01*
X1372377Y332845D01*
X1369608Y330076D01*
X1368110Y326457D01*
X1368110Y324499D01*
Y324500D01*
X1368110Y167322D01*
D02*
G37*
D132*
X1958661Y787401D02*
Y-0D01*
X-0Y-0D01*
Y787402D01*
X1958661Y787401D01*
%TF.MD5,f9f1be222021b4b5456ca26375bef987*%
M02*
