%TF.GenerationSoftware,Altium Limited,Altium Designer,19.0.15 (446)*%
G04 Layer_Color=32896*
%FSLAX26Y26*%
%MOIN*%
%TF.FileFunction,Legend,Bot*%
%TF.Part,Single*%
G01*
G75*
%TA.AperFunction,NonConductor*%
%ADD10C,0.008000*%
%ADD108C,0.009842*%
%ADD109C,0.010000*%
%ADD110C,0.004921*%
%ADD111C,0.007874*%
%ADD112C,0.006000*%
%ADD113C,0.005984*%
%ADD114C,0.005000*%
%ADD115R,0.114952X0.028906*%
G36*
X890005Y86670D02*
X880806D01*
Y93370D01*
X880606Y92070D01*
X880106Y90970D01*
X879505Y89970D01*
X878905Y89170D01*
X878306Y88470D01*
X877706Y87970D01*
X877306Y87670D01*
X877206Y87570D01*
X875905Y86870D01*
X874606Y86370D01*
X873405Y85970D01*
X872206Y85770D01*
X871206Y85570D01*
X870405Y85470D01*
X869706D01*
X868206Y85570D01*
X866706Y85770D01*
X865306Y86170D01*
X864005Y86670D01*
X861606Y87870D01*
X859505Y89370D01*
X858606Y90070D01*
X857806Y90770D01*
X857106Y91370D01*
X856606Y91970D01*
X856106Y92470D01*
X855806Y92870D01*
X855606Y93070D01*
X855505Y93170D01*
X854405Y94670D01*
X853505Y96370D01*
X852706Y98070D01*
X852005Y99870D01*
X851405Y101670D01*
X850905Y103570D01*
X850206Y107070D01*
X849905Y108670D01*
X849706Y110170D01*
X849606Y111570D01*
X849505Y112770D01*
X849405Y113770D01*
Y114470D01*
Y114870D01*
Y115070D01*
X849505Y118370D01*
X849806Y121370D01*
X850306Y123970D01*
X850505Y125170D01*
X850706Y126270D01*
X851005Y127270D01*
X851206Y128170D01*
X851505Y128870D01*
X851706Y129470D01*
X851806Y129970D01*
X852005Y130370D01*
X852106Y130570D01*
Y130670D01*
X853106Y132970D01*
X854306Y134970D01*
X855505Y136670D01*
X856606Y138070D01*
X857606Y139170D01*
X858505Y139970D01*
X859005Y140370D01*
X859106Y140570D01*
X859206D01*
X860905Y141670D01*
X862706Y142470D01*
X864306Y143070D01*
X865905Y143470D01*
X867206Y143670D01*
X868306Y143870D01*
X869206D01*
X870706Y143770D01*
X872005Y143570D01*
X873306Y143270D01*
X874306Y142870D01*
X875206Y142470D01*
X875905Y142170D01*
X876306Y141970D01*
X876505Y141870D01*
X877606Y141070D01*
X878505Y140170D01*
X879106Y139370D01*
X879606Y138570D01*
X879905Y137770D01*
X880106Y137170D01*
X880206Y136770D01*
Y163170D01*
X890005D01*
Y86670D01*
D02*
G37*
G36*
X947106D02*
X936806D01*
Y116870D01*
X922306D01*
X919905Y116970D01*
X917806Y117170D01*
X915806Y117470D01*
X913905Y117970D01*
X912306Y118470D01*
X910806Y118970D01*
X909405Y119570D01*
X908206Y120270D01*
X907206Y120870D01*
X906306Y121470D01*
X905505Y121970D01*
X904905Y122570D01*
X904505Y122970D01*
X904206Y123270D01*
X904005Y123470D01*
X903905Y123570D01*
X902905Y124870D01*
X902106Y126270D01*
X901306Y127670D01*
X900706Y129070D01*
X899706Y131970D01*
X899106Y134670D01*
X898905Y135870D01*
X898706Y137070D01*
X898606Y138070D01*
X898505Y138970D01*
X898405Y139670D01*
Y140170D01*
Y140570D01*
Y140670D01*
X898505Y143470D01*
X898905Y146070D01*
X899505Y148270D01*
X900106Y150270D01*
X900405Y151070D01*
X900706Y151870D01*
X901005Y152470D01*
X901306Y152970D01*
X901505Y153370D01*
X901706Y153770D01*
X901806Y153870D01*
Y153970D01*
X903106Y155870D01*
X904606Y157570D01*
X906106Y158870D01*
X907505Y159970D01*
X908806Y160670D01*
X909806Y161270D01*
X910206Y161470D01*
X910405Y161570D01*
X910606Y161670D01*
X910706D01*
X912405Y162170D01*
X914405Y162570D01*
X916405Y162770D01*
X918405Y162970D01*
X920306Y163070D01*
X921005Y163170D01*
X947106D01*
Y86670D01*
D02*
G37*
%LPC*%
G36*
X870405Y134270D02*
X869405D01*
X868606Y134070D01*
X867106Y133570D01*
X865806Y132770D01*
X864706Y131970D01*
X863706Y131070D01*
X863106Y130270D01*
X862606Y129770D01*
X862505Y129670D01*
Y129570D01*
X861905Y128670D01*
X861405Y127570D01*
X860606Y125370D01*
X860106Y122870D01*
X859706Y120470D01*
X859606Y119270D01*
X859505Y118270D01*
X859405Y117270D01*
X859306Y116470D01*
Y115770D01*
Y115270D01*
Y114870D01*
Y114770D01*
Y112970D01*
X859405Y111270D01*
X859606Y109670D01*
X859806Y108170D01*
X860106Y106870D01*
X860405Y105670D01*
X860706Y104470D01*
X861005Y103570D01*
X861306Y102670D01*
X861606Y101970D01*
X861905Y101270D01*
X862206Y100770D01*
X862405Y100370D01*
X862606Y100070D01*
X862706Y99970D01*
Y99870D01*
X863306Y99070D01*
X864005Y98270D01*
X865206Y97070D01*
X866505Y96270D01*
X867606Y95670D01*
X868606Y95370D01*
X869306Y95170D01*
X869806Y95070D01*
X870005D01*
X871106Y95170D01*
X872106Y95370D01*
X873106Y95670D01*
X873905Y96070D01*
X874606Y96370D01*
X875106Y96670D01*
X875505Y96870D01*
X875606Y96970D01*
X876505Y97770D01*
X877306Y98770D01*
X878005Y99670D01*
X878505Y100670D01*
X879005Y101570D01*
X879306Y102270D01*
X879505Y102670D01*
X879606Y102870D01*
X880106Y104570D01*
X880405Y106470D01*
X880706Y108470D01*
X880806Y110470D01*
X880905Y112270D01*
X881005Y113070D01*
Y113770D01*
Y114270D01*
Y114670D01*
Y114970D01*
Y115070D01*
Y116770D01*
X880905Y118370D01*
X880706Y119970D01*
X880505Y121270D01*
X880206Y122570D01*
X879905Y123770D01*
X879606Y124870D01*
X879306Y125770D01*
X879005Y126670D01*
X878706Y127370D01*
X878405Y127970D01*
X878106Y128470D01*
X877905Y128870D01*
X877706Y129170D01*
X877606Y129270D01*
Y129370D01*
X877005Y130270D01*
X876306Y130970D01*
X875706Y131670D01*
X875005Y132170D01*
X873806Y133070D01*
X872606Y133670D01*
X871606Y133970D01*
X870905Y134170D01*
X870405Y134270D01*
D02*
G37*
G36*
X936806Y152270D02*
X920306D01*
X918606Y152070D01*
X917206Y151970D01*
X916106Y151770D01*
X915306Y151570D01*
X914706Y151370D01*
X914405Y151270D01*
X914306Y151170D01*
X913505Y150670D01*
X912806Y150170D01*
X912206Y149470D01*
X911606Y148870D01*
X911206Y148270D01*
X910905Y147770D01*
X910706Y147370D01*
X910606Y147270D01*
X910106Y146170D01*
X909706Y144970D01*
X909405Y143770D01*
X909206Y142670D01*
X909106Y141770D01*
X909005Y140970D01*
Y140470D01*
Y140270D01*
X909106Y138070D01*
X909505Y136070D01*
X910005Y134470D01*
X910606Y133170D01*
X911206Y132070D01*
X911706Y131370D01*
X912106Y130870D01*
X912206Y130770D01*
X913505Y129770D01*
X915106Y129070D01*
X916706Y128470D01*
X918405Y128170D01*
X919905Y127970D01*
X921106Y127870D01*
X921505Y127770D01*
X936806D01*
Y152270D01*
D02*
G37*
%LPD*%
D10*
X1199748Y45669D02*
X1233071D01*
X1199748Y78992D01*
Y87323D01*
X1208079Y95653D01*
X1224740D01*
X1233071Y87323D01*
X1183087D02*
X1174756Y95653D01*
X1158095D01*
X1149764Y87323D01*
Y54000D01*
X1158095Y45669D01*
X1174756D01*
X1183087Y54000D01*
Y87323D01*
X1133103Y45669D02*
X1116442D01*
X1124773D01*
Y95653D01*
X1133103Y87323D01*
X1091450Y54000D02*
X1083120Y45669D01*
X1066458D01*
X1058128Y54000D01*
Y87323D01*
X1066458Y95653D01*
X1083120D01*
X1091450Y87323D01*
Y78992D01*
X1083120Y70661D01*
X1058128D01*
X1210630Y137924D02*
Y187907D01*
X1193969Y171246D01*
X1177307Y187907D01*
Y137924D01*
X1152315Y171246D02*
X1135654D01*
X1127323Y162916D01*
Y137924D01*
X1152315D01*
X1160646Y146254D01*
X1152315Y154585D01*
X1127323D01*
X1110662Y171246D02*
Y146254D01*
X1102332Y137924D01*
X1077340D01*
Y129593D01*
X1085670Y121262D01*
X1094001D01*
X1077340Y137924D02*
Y171246D01*
D108*
X395669Y761220D02*
G03*
X395669Y761220I-4921J0D01*
G01*
X1734252Y343504D02*
G03*
X1734252Y343504I-4921J0D01*
G01*
X1804921Y584252D02*
G03*
X1804921Y584252I-4921J0D01*
G01*
X72835Y228346D02*
G03*
X72835Y228346I-1968J0D01*
G01*
D109*
X979106Y122670D02*
G03*
X979106Y122670I-79000J0D01*
G01*
X255496Y15409D02*
X431677D01*
X439552Y134504D02*
Y166984D01*
X246637Y134504D02*
Y166984D01*
X402149D02*
X439551D01*
X246638D02*
X284039D01*
X845106Y67670D02*
X955106Y177670D01*
D110*
X751849Y196602D02*
G03*
X751750Y196679I-4148J-5148D01*
G01*
X751957Y196512D02*
G03*
X751849Y196602I-4220J-5013D01*
G01*
X715473Y97072D02*
G03*
X715473Y97072I-9390J0D01*
G01*
X696852Y191173D02*
G03*
X696852Y191173I-5190J0D01*
G01*
X709037Y97077D02*
G03*
X709037Y97077I-2953J0D01*
G01*
X668378Y63580D02*
X783330D01*
X668378Y34674D02*
X668378Y63580D01*
X668378Y34674D02*
X783330Y34674D01*
Y63580D01*
X695124Y187482D02*
Y187482D01*
X695124Y187482D01*
X695124Y187482D02*
X695124Y187482D01*
X695124Y187482D02*
X695124Y187482D01*
Y187482D01*
Y187482D01*
Y187483D01*
X695124Y187483D01*
X695124Y187483D02*
X695124Y187483D01*
X695124Y187483D02*
Y187483D01*
Y187484D01*
X695124Y187484D01*
Y187484D01*
X695125Y187485D01*
X695125Y187485D02*
X695125Y187485D01*
X695125Y187485D02*
Y187486D01*
X695125Y187486D01*
X695125Y187487D01*
Y187487D01*
X695125Y187488D01*
Y187488D01*
X695125Y187489D01*
X695125Y187489D01*
X695125Y187490D02*
X695125Y187489D01*
X695125Y187490D02*
X695125Y187491D01*
X695125Y187491D01*
X695125Y187492D01*
X695125Y187493D01*
X695125Y187494D01*
X695126Y187494D01*
X695126Y187495D01*
X695126Y187496D01*
X695126Y187497D01*
X695126Y187498D01*
X695126Y187499D01*
X695126Y187500D01*
X695126Y187501D01*
X695126Y187502D01*
X695127Y187503D01*
X695127Y187504D01*
X695127Y187505D01*
X695127Y187506D01*
X695127Y187507D01*
X695127Y187508D01*
X695127Y187509D01*
X695128Y187511D01*
X695128Y187512D01*
X695128Y187513D01*
X695128Y187514D01*
X695128Y187516D01*
X695128Y187517D01*
X695129Y187518D01*
X695129Y187520D01*
X695129Y187521D01*
X695129Y187523D01*
X695129Y187524D01*
X695130Y187525D01*
X695130Y187527D01*
X695130Y187528D01*
X695130Y187530D01*
X695130Y187531D01*
X695131Y187533D01*
X695131Y187535D01*
X695131Y187536D01*
X695131Y187538D01*
X695131Y187540D01*
X695132Y187542D01*
X695132Y187543D01*
X695132Y187545D01*
X695133Y187547D01*
X695133Y187549D01*
X695133Y187550D01*
X695133Y187552D01*
X695134Y187554D01*
X695134Y187556D01*
X695134Y187558D01*
X695134Y187560D01*
X695135Y187562D01*
X695135Y187564D01*
X695135Y187566D01*
X695136Y187568D01*
X695136Y187570D01*
X695136Y187572D01*
X695137Y187575D01*
X695137Y187577D01*
X695137Y187579D01*
X695138Y187581D01*
X695138Y187583D01*
X695139Y187588D01*
X695139Y187593D01*
X695140Y187597D01*
X695141Y187602D01*
X695142Y187607D01*
X695142Y187612D01*
X695143Y187617D01*
X695144Y187623D01*
X695145Y187628D01*
X695146Y187633D01*
X695147Y187639D01*
X695148Y187644D01*
X695149Y187650D01*
X695150Y187656D01*
X695151Y187662D01*
X695152Y187668D01*
X695153Y187674D01*
X695154Y187680D01*
X695155Y187686D01*
X695156Y187693D01*
X695157Y187699D01*
X695159Y187706D01*
X695160Y187712D01*
X695161Y187719D01*
X695162Y187726D01*
X695163Y187733D01*
X695165Y187740D01*
X695166Y187747D01*
X695168Y187754D01*
X695169Y187761D01*
X695170Y187769D01*
X695172Y187776D01*
X695173Y187784D01*
X695175Y187791D01*
X695176Y187799D01*
X695178Y187807D01*
X695180Y187819D01*
X695183Y187831D01*
X695185Y187843D01*
X695188Y187856D01*
X695191Y187868D01*
X695193Y187881D01*
X695196Y187894D01*
X695199Y187907D01*
X695202Y187921D01*
X695205Y187935D01*
X695208Y187949D01*
X695211Y187963D01*
X695214Y187977D01*
X695217Y187991D01*
X695221Y188006D01*
X695224Y188021D01*
X695228Y188036D01*
X695231Y188051D01*
X695235Y188066D01*
X695239Y188082D01*
X695243Y188098D01*
X695248Y188119D01*
X695253Y188141D01*
X695259Y188163D01*
X695264Y188185D01*
X695270Y188208D01*
X695276Y188231D01*
X695283Y188254D01*
X695289Y188278D01*
X695295Y188302D01*
X695302Y188326D01*
X695308Y188350D01*
X695315Y188375D01*
X695322Y188400D01*
X695330Y188426D01*
X695339Y188458D01*
X695348Y188491D01*
X695358Y188524D01*
X695368Y188558D01*
X695379Y188592D01*
X695389Y188627D01*
X695400Y188662D01*
X695412Y188698D01*
X695423Y188734D01*
X695435Y188771D01*
X695447Y188808D01*
X695462Y188853D01*
X695477Y188898D01*
X695493Y188945D01*
X695509Y188991D01*
X695526Y189039D01*
X695543Y189087D01*
X695560Y189136D01*
X695578Y189185D01*
X695597Y189235D01*
X695619Y189294D01*
X695642Y189354D01*
X695666Y189415D01*
X695690Y189476D01*
X695715Y189539D01*
X695741Y189602D01*
X695767Y189666D01*
X695794Y189730D01*
X695826Y189805D01*
X695859Y189880D01*
X695893Y189957D01*
X695928Y190035D01*
X695964Y190113D01*
X696000Y190192D01*
X696038Y190273D01*
X696077Y190354D01*
X696123Y190446D01*
X696169Y190540D01*
X696217Y190634D01*
X696267Y190730D01*
X696317Y190826D01*
X696370Y190924D01*
X696423Y191023D01*
X696479Y191122D01*
X696535Y191223D01*
X696594Y191324D01*
X696654Y191427D01*
X696715Y191530D01*
X696778Y191634D01*
X696850Y191751D01*
X696924Y191869D01*
X697000Y191988D01*
X697078Y192107D01*
X697159Y192228D01*
X697241Y192350D01*
X697325Y192473D01*
X697412Y192596D01*
X697501Y192721D01*
X697592Y192846D01*
X697686Y192972D01*
X697782Y193099D01*
X697870Y193214D01*
X697960Y193329D01*
X698052Y193446D01*
X698146Y193562D01*
X698242Y193679D01*
X698340Y193797D01*
X698440Y193915D01*
X698542Y194034D01*
X698646Y194153D01*
X698752Y194273D01*
X698861Y194393D01*
X698971Y194514D01*
X699083Y194635D01*
X699198Y194756D01*
X699315Y194877D01*
X699434Y195000D01*
X699555Y195122D01*
X699678Y195245D01*
X699804Y195368D01*
X699918Y195477D01*
X700033Y195587D01*
X700151Y195697D01*
X700270Y195807D01*
X700391Y195917D01*
X700514Y196028D01*
X700638Y196138D01*
X700765Y196249D01*
X700894Y196360D01*
X701024Y196471D01*
X701073Y196512D01*
X701106Y196539D01*
X701130Y196559D01*
X701155Y196579D01*
X701179Y196599D01*
X701204Y196619D01*
X701229Y196639D01*
X701255Y196659D01*
X701280Y196679D01*
X701306Y196698D01*
X701332Y196718D01*
X701357Y196738D01*
X701384Y196757D01*
X701410Y196777D01*
X701437Y196796D01*
X701463Y196815D01*
X701490Y196835D01*
X701517Y196854D01*
X701544Y196873D01*
X701572Y196892D01*
X701600Y196911D01*
X701627Y196930D01*
X701655Y196949D01*
X701683Y196968D01*
X701712Y196987D01*
X701740Y197006D01*
X701769Y197024D01*
X701798Y197043D01*
X701827Y197062D01*
X701856Y197080D01*
X701885Y197099D01*
X701914Y197117D01*
X701944Y197136D01*
X701974Y197154D01*
X702004Y197172D01*
X702034Y197190D01*
X702064Y197208D01*
X702095Y197226D01*
X702125Y197245D01*
X702156Y197263D01*
X702187Y197280D01*
X702218Y197298D01*
X702249Y197316D01*
X702281Y197334D01*
X702312Y197352D01*
X702344Y197369D01*
X702376Y197387D01*
X702408Y197405D01*
X702440Y197422D01*
X702473Y197439D01*
X702505Y197457D01*
X702538Y197474D01*
X702571Y197491D01*
X702604Y197509D01*
X702637Y197526D01*
X702670Y197543D01*
X702703Y197560D01*
X702737Y197577D01*
X702771Y197594D01*
X702805Y197611D01*
X702839Y197628D01*
X702873Y197644D01*
X702907Y197661D01*
X702942Y197678D01*
X702976Y197694D01*
X703011Y197711D01*
X703046Y197728D01*
X703081Y197744D01*
X703116Y197760D01*
X703152Y197777D01*
X703187Y197793D01*
X703223Y197809D01*
X703259Y197826D01*
X703294Y197842D01*
X703331Y197858D01*
X703367Y197874D01*
X703403Y197890D01*
X703439Y197906D01*
X703476Y197922D01*
X703513Y197937D01*
X703550Y197953D01*
X703587Y197969D01*
X703624Y197985D01*
X703661Y198000D01*
X703698Y198016D01*
X703736Y198031D01*
X703774Y198047D01*
X703811Y198062D01*
X703849Y198077D01*
X703887Y198093D01*
X703926Y198108D01*
X703964Y198123D01*
X704002Y198138D01*
X704041Y198154D01*
X704080Y198169D01*
X704119Y198184D01*
X704157Y198199D01*
X704197Y198214D01*
X704236Y198228D01*
X704275Y198243D01*
X704314Y198258D01*
X704354Y198273D01*
X704394Y198287D01*
X704433Y198302D01*
X704473Y198316D01*
X704514Y198331D01*
X704554Y198345D01*
X704594Y198360D01*
X704648Y198379D01*
X704702Y198398D01*
X704756Y198417D01*
X704811Y198436D01*
X704865Y198454D01*
X704920Y198473D01*
X704976Y198492D01*
X705031Y198510D01*
X705086Y198529D01*
X705142Y198547D01*
X705198Y198565D01*
X705254Y198583D01*
X705310Y198601D01*
X705367Y198620D01*
X705423Y198637D01*
X705480Y198655D01*
X705537Y198673D01*
X705595Y198691D01*
X705652Y198708D01*
X705710Y198726D01*
X705767Y198743D01*
X705825Y198761D01*
X705883Y198778D01*
X705942Y198795D01*
X706000Y198812D01*
X706059Y198829D01*
X706117Y198846D01*
X706176Y198863D01*
X706236Y198879D01*
X706295Y198896D01*
X706354Y198913D01*
X706414Y198929D01*
X706474Y198946D01*
X706534Y198962D01*
X706594Y198978D01*
X706654Y198994D01*
X706714Y199010D01*
X706775Y199026D01*
X706836Y199042D01*
X706896Y199058D01*
X706957Y199074D01*
X707019Y199089D01*
X707080Y199105D01*
X707141Y199121D01*
X707203Y199136D01*
X707264Y199151D01*
X707326Y199167D01*
X707388Y199182D01*
X707451Y199197D01*
X707513Y199212D01*
X707575Y199227D01*
X707638Y199242D01*
X707700Y199257D01*
X707763Y199272D01*
X707826Y199286D01*
X707889Y199301D01*
X707968Y199319D01*
X708047Y199337D01*
X708126Y199355D01*
X708206Y199373D01*
X708286Y199390D01*
X708365Y199408D01*
X708446Y199425D01*
X708526Y199442D01*
X708606Y199459D01*
X708687Y199476D01*
X708768Y199494D01*
X708848Y199510D01*
X708929Y199527D01*
X709011Y199544D01*
X709092Y199560D01*
X709173Y199576D01*
X709255Y199593D01*
X709337Y199609D01*
X709419Y199625D01*
X709501Y199641D01*
X709583Y199656D01*
X709665Y199672D01*
X709748Y199688D01*
X709830Y199703D01*
X709913Y199719D01*
X709996Y199734D01*
X710079Y199749D01*
X710162Y199764D01*
X710245Y199779D01*
X710328Y199794D01*
X710412Y199808D01*
X710495Y199823D01*
X710579Y199838D01*
X710679Y199855D01*
X710779Y199872D01*
X710880Y199889D01*
X710981Y199905D01*
X711082Y199922D01*
X711183Y199939D01*
X711284Y199955D01*
X711385Y199971D01*
X711486Y199987D01*
X711588Y200003D01*
X711689Y200019D01*
X711791Y200034D01*
X711892Y200050D01*
X711994Y200065D01*
X712096Y200080D01*
X712198Y200095D01*
X712299Y200110D01*
X712401Y200125D01*
X712503Y200139D01*
X712605Y200154D01*
X712707Y200168D01*
X712826Y200185D01*
X712945Y200201D01*
X713065Y200217D01*
X713184Y200233D01*
X713303Y200249D01*
X713422Y200264D01*
X713541Y200280D01*
X713660Y200295D01*
X713779Y200310D01*
X713898Y200325D01*
X714017Y200339D01*
X714136Y200354D01*
X714255Y200368D01*
X714374Y200382D01*
X714509Y200398D01*
X714645Y200414D01*
X714780Y200429D01*
X714916Y200445D01*
X715051Y200460D01*
X715186Y200475D01*
X715321Y200489D01*
X715455Y200504D01*
X715472Y200505D01*
X751236Y197042D02*
X751282Y197012D01*
X751330Y196981D01*
X751379Y196948D01*
X751430Y196913D01*
X751483Y196876D01*
X751541Y196835D01*
X751603Y196791D01*
X751672Y196740D01*
X751750Y196679D01*
X751957Y196512D02*
X752105Y196387D01*
X752234Y196277D01*
X752361Y196166D01*
X752486Y196055D01*
X752610Y195945D01*
X752731Y195834D01*
X752851Y195724D01*
X752968Y195614D01*
X753084Y195505D01*
X753198Y195395D01*
X753311Y195286D01*
X753421Y195176D01*
X753543Y195054D01*
X753663Y194932D01*
X753781Y194810D01*
X753897Y194688D01*
X754010Y194567D01*
X754122Y194447D01*
X754231Y194326D01*
X754338Y194206D01*
X754443Y194087D01*
X754546Y193968D01*
X754647Y193850D01*
X754745Y193732D01*
X754842Y193614D01*
X754937Y193497D01*
X755030Y193381D01*
X755121Y193265D01*
X755210Y193150D01*
X755297Y193036D01*
X755383Y192922D01*
X755466Y192808D01*
X755548Y192696D01*
X755627Y192584D01*
X755714Y192460D01*
X755798Y192338D01*
X755880Y192216D01*
X755960Y192095D01*
X756038Y191976D01*
X756107Y191869D01*
X756173Y191763D01*
X756239Y191657D01*
X756302Y191553D01*
X756364Y191450D01*
X756424Y191347D01*
X756482Y191245D01*
X756539Y191144D01*
X756595Y191045D01*
X756649Y190946D01*
X756702Y190848D01*
X756753Y190751D01*
X756803Y190655D01*
X756851Y190561D01*
X756898Y190467D01*
X756943Y190374D01*
X756982Y190293D01*
X757021Y190212D01*
X757058Y190133D01*
X757094Y190054D01*
X757129Y189976D01*
X757163Y189899D01*
X757196Y189824D01*
X757228Y189749D01*
X757256Y189684D01*
X757282Y189620D01*
X757308Y189557D01*
X757333Y189494D01*
X757358Y189432D01*
X757382Y189371D01*
X757405Y189311D01*
X757427Y189252D01*
X757446Y189202D01*
X757464Y189152D01*
X757482Y189103D01*
X757499Y189055D01*
X757516Y189007D01*
X757532Y188960D01*
X757548Y188914D01*
X757564Y188868D01*
X757579Y188822D01*
X757591Y188785D01*
X757603Y188749D01*
X757614Y188712D01*
X757626Y188677D01*
X757637Y188641D01*
X757647Y188606D01*
X757658Y188572D01*
X757668Y188538D01*
X757678Y188504D01*
X757688Y188471D01*
X757697Y188439D01*
X757704Y188413D01*
X757712Y188388D01*
X757718Y188363D01*
X757725Y188338D01*
X757732Y188314D01*
X757739Y188290D01*
X757745Y188266D01*
X757751Y188242D01*
X757757Y188219D01*
X757763Y188196D01*
X757769Y188174D01*
X757774Y188152D01*
X757780Y188130D01*
X757785Y188108D01*
X757789Y188093D01*
X757793Y188077D01*
X757797Y188061D01*
X757800Y188046D01*
X757804Y188031D01*
X757807Y188016D01*
X757811Y188001D01*
X757814Y187987D01*
X757817Y187972D01*
X757820Y187958D01*
X757823Y187944D01*
X757827Y187930D01*
X757830Y187917D01*
X757832Y187903D01*
X757835Y187890D01*
X757838Y187877D01*
X757841Y187864D01*
X757843Y187851D01*
X757846Y187839D01*
X757848Y187827D01*
X757851Y187815D01*
X757852Y187807D01*
X757854Y187799D01*
X757856Y187791D01*
X757857Y187784D01*
X757858Y187776D01*
X757860Y187769D01*
X757861Y187761D01*
X757863Y187754D01*
X757864Y187747D01*
X757865Y187740D01*
X757867Y187733D01*
X757868Y187726D01*
X757869Y187719D01*
X757871Y187712D01*
X757872Y187706D01*
X757873Y187699D01*
X757874Y187693D01*
X757875Y187686D01*
X757876Y187680D01*
X757877Y187674D01*
X757879Y187668D01*
X757880Y187662D01*
X757880Y187656D01*
X757881Y187650D01*
X757883Y187644D01*
X757883Y187639D01*
X757884Y187633D01*
X757885Y187628D01*
X757886Y187623D01*
X757887Y187617D01*
X757888Y187612D01*
X757889Y187607D01*
X757889Y187602D01*
X757890Y187597D01*
X757891Y187593D01*
X757891Y187588D01*
X757892Y187583D01*
X757893Y187581D01*
X757893Y187579D01*
X757893Y187577D01*
X757894Y187575D01*
X757894Y187572D01*
X757894Y187570D01*
X757895Y187568D01*
X757895Y187566D01*
X757895Y187564D01*
X757896Y187562D01*
X757896Y187560D01*
X757896Y187558D01*
X757896Y187556D01*
X757897Y187554D01*
X757897Y187552D01*
X757897Y187550D01*
X757898Y187549D01*
X757898Y187547D01*
X757898Y187545D01*
X757898Y187543D01*
X757899Y187542D01*
X757899Y187540D01*
X757899Y187538D01*
X757899Y187536D01*
X757899Y187535D01*
X757900Y187533D01*
X757900Y187531D01*
X757900Y187530D01*
X757900Y187529D01*
X757900Y187527D01*
X757901Y187525D01*
X757901Y187524D01*
X757901Y187523D01*
X757901Y187521D01*
X757902Y187520D01*
X757902Y187518D01*
X757902Y187517D01*
X757902Y187516D01*
X757902Y187514D01*
X757902Y187513D01*
X757903Y187512D01*
X757903Y187511D01*
X757903Y187509D01*
X757903Y187508D01*
X757903Y187507D01*
X757903Y187506D01*
X757903Y187505D01*
X757904Y187504D01*
X757904Y187503D01*
X757904Y187502D01*
Y187501D02*
Y187502D01*
Y187501D02*
X757904Y187500D01*
X757904Y187499D01*
X757904Y187498D01*
X757904Y187497D01*
X757904Y187496D01*
Y187495D02*
Y187496D01*
Y187495D02*
X757905Y187494D01*
Y187494D02*
Y187494D01*
Y187494D02*
X757905Y187493D01*
Y187492D02*
Y187493D01*
Y187492D02*
X757905Y187491D01*
X757905Y187491D01*
X757905Y187490D01*
X757905Y187489D01*
Y187489D02*
Y187489D01*
Y187489D02*
X757905Y187488D01*
X757905Y187488D01*
Y187487D02*
Y187488D01*
Y187487D02*
X757906Y187487D01*
Y187486D02*
Y187487D01*
Y187486D02*
X757906Y187486D01*
Y187485D02*
Y187486D01*
Y187485D02*
Y187485D01*
Y187485D02*
X757906Y187484D01*
X757906Y187484D01*
Y187484D02*
Y187484D01*
Y187483D02*
Y187484D01*
Y187483D02*
X757906Y187483D01*
Y187483D02*
Y187483D01*
Y187483D02*
Y187483D01*
Y187482D02*
Y187483D01*
Y187482D02*
Y187482D01*
Y187482D02*
X757906Y187482D01*
Y187482D02*
Y187482D01*
Y187482D02*
Y187482D01*
Y187482D02*
Y187482D01*
X696701Y168433D02*
X702120Y105998D01*
X733335Y200867D02*
X733597Y200849D01*
X733838Y200832D01*
X734056Y200816D01*
X734276Y200800D01*
X734485Y200784D01*
X734683Y200769D01*
X734882Y200753D01*
X735070Y200738D01*
X735258Y200722D01*
X735435Y200708D01*
X735612Y200692D01*
X735778Y200678D01*
X735944Y200663D01*
X736111Y200648D01*
X736278Y200633D01*
X736433Y200618D01*
X736588Y200603D01*
X736743Y200588D01*
X736899Y200573D01*
X737042Y200559D01*
X737186Y200544D01*
X737330Y200529D01*
X737474Y200514D01*
X737618Y200499D01*
X737749Y200485D01*
X737881Y200470D01*
X738013Y200456D01*
X738144Y200441D01*
X738276Y200426D01*
X738409Y200411D01*
X738541Y200396D01*
X738673Y200380D01*
X738792Y200366D01*
X738912Y200351D01*
X739031Y200337D01*
X739150Y200322D01*
X739270Y200307D01*
X739389Y200292D01*
X739509Y200277D01*
X739628Y200261D01*
X739747Y200245D01*
X739867Y200230D01*
X739973Y200215D01*
X740079Y200201D01*
X740186Y200186D01*
X740292Y200172D01*
X740398Y200157D01*
X740504Y200142D01*
X740610Y200127D01*
X740716Y200111D01*
X740822Y200096D01*
X740928Y200080D01*
X741034Y200064D01*
X741139Y200048D01*
X741245Y200032D01*
X741351Y200016D01*
X741443Y200002D01*
X741535Y199987D01*
X741628Y199973D01*
X741720Y199958D01*
X741812Y199943D01*
X741904Y199928D01*
X741996Y199913D01*
X742087Y199898D01*
X742179Y199883D01*
X742271Y199867D01*
X742362Y199851D01*
X742454Y199836D01*
X742545Y199820D01*
X742636Y199804D01*
X742727Y199788D01*
X742818Y199772D01*
X742909Y199755D01*
X742999Y199739D01*
X743090Y199722D01*
X743180Y199705D01*
X743257Y199691D01*
X743335Y199676D01*
X743412Y199662D01*
X743489Y199647D01*
X743566Y199632D01*
X743642Y199617D01*
X743719Y199602D01*
X743796Y199587D01*
X743872Y199572D01*
X743948Y199556D01*
X744024Y199541D01*
X744100Y199525D01*
X744176Y199510D01*
X744252Y199494D01*
X744328Y199478D01*
X744403Y199462D01*
X744478Y199446D01*
X744554Y199430D01*
X744629Y199414D01*
X744703Y199397D01*
X744778Y199381D01*
X744853Y199364D01*
X744927Y199347D01*
X745001Y199331D01*
X745076Y199314D01*
X745149Y199297D01*
X745223Y199280D01*
X745297Y199263D01*
X745370Y199245D01*
X745431Y199231D01*
X745492Y199216D01*
X745553Y199202D01*
X745614Y199187D01*
X745674Y199172D01*
X745734Y199157D01*
X745795Y199142D01*
X745855Y199127D01*
X745915Y199112D01*
X745975Y199097D01*
X746034Y199082D01*
X746094Y199066D01*
X746141Y199054D01*
X749972Y95186D02*
X757906Y187482D01*
X715472Y95186D02*
X749972D01*
X715930Y203693D02*
X733332D01*
X715930Y197739D02*
Y203693D01*
Y197739D02*
X733332D01*
Y203693D01*
X751192Y186595D02*
Y201401D01*
X746614Y201400D02*
X751192Y201401D01*
X746614Y186595D02*
Y201400D01*
X687848Y179726D02*
X699141D01*
X687848Y168433D02*
Y179726D01*
Y168433D02*
X699141D01*
Y179726D01*
X690898Y189647D02*
X765236D01*
X690898Y184151D02*
Y189647D01*
Y184151D02*
X765236D01*
X765236Y189647D02*
X765236Y184151D01*
X712966Y169020D02*
X736625D01*
X712966Y160470D02*
X712966Y169020D01*
X712966Y160470D02*
X736625D01*
X736625Y169020D01*
X741118Y95167D02*
X747078Y95167D01*
X741118Y86378D02*
Y95167D01*
Y86378D02*
X747077D01*
X747078Y95167D01*
X668361Y73701D02*
X783717Y208073D01*
X668361Y208073D02*
X783717Y73701D01*
D111*
X30512Y446260D02*
Y654921D01*
Y269094D02*
Y306496D01*
Y269094D02*
X449803D01*
X500984Y418701D02*
Y654921D01*
X420276Y719882D02*
X441929D01*
X500984Y326181D02*
Y332087D01*
X1612598Y488779D02*
X1636220D01*
X1612598Y439567D02*
X1636220D01*
X1703741Y338189D02*
Y349409D01*
X1692519D02*
X1703741D01*
X1579725D02*
X1590945D01*
X1579725Y338189D02*
Y349409D01*
Y225393D02*
Y236615D01*
Y225393D02*
X1590945D01*
X1703741D02*
Y236615D01*
X1692519Y225393D02*
X1703741D01*
X1824567Y596457D02*
X1920079D01*
X1820473Y720866D02*
X1915984D01*
X1812992Y346299D02*
X1820866D01*
X1812992Y322677D02*
X1820866D01*
D112*
X1416535Y188976D02*
X1453740D01*
X1711614D02*
X1750000D01*
X1399606Y422283D02*
X1407480D01*
X1399606Y345433D02*
X1407480D01*
X1826772Y357205D02*
X1865354D01*
X1768583D02*
X1807087D01*
X1827165Y311772D02*
X1865354D01*
X1768622D02*
X1807087D01*
X1768622Y311732D02*
Y354173D01*
X1865236Y311772D02*
Y357205D01*
X560024Y250457D02*
Y279157D01*
X524197Y250457D02*
X559905D01*
X560024Y298842D02*
Y327543D01*
X524315D02*
X559905D01*
X524197Y298842D02*
Y327543D01*
Y250457D02*
Y279157D01*
X1832283Y85630D02*
X1860984D01*
X1783898D02*
X1812598D01*
X1783898Y85748D02*
Y121339D01*
Y121457D02*
X1812598D01*
X1860984Y85630D02*
Y121339D01*
X1832283Y121457D02*
X1860984D01*
X1783898D02*
X1812598D01*
X1783898Y121575D02*
Y157284D01*
X1832283Y121457D02*
X1860984D01*
Y121575D02*
Y157165D01*
X1832283Y157284D02*
X1860984D01*
X1783898D02*
X1812598D01*
X1513780Y272441D02*
X1542480D01*
X1465394D02*
X1494094D01*
X1465394Y272559D02*
Y308150D01*
Y308268D02*
X1494094D01*
X1542480Y272441D02*
Y308150D01*
X1513780Y308268D02*
X1542480D01*
X1511811Y344685D02*
X1540512D01*
Y308858D02*
Y344567D01*
X1463425Y344685D02*
X1492126D01*
X1463425Y308976D02*
Y344567D01*
Y308858D02*
X1492126D01*
X1511811D02*
X1540512D01*
X1511811Y344529D02*
X1540512D01*
X1463425D02*
X1492126D01*
X1463425Y344647D02*
Y380238D01*
Y380356D02*
X1492126D01*
X1540512Y344529D02*
Y380238D01*
X1511811Y380356D02*
X1540512D01*
X1513780Y271850D02*
X1542480D01*
Y236024D02*
Y271732D01*
X1465394Y271850D02*
X1494094D01*
X1465394Y236142D02*
Y271732D01*
Y236024D02*
X1494094D01*
X1513780D02*
X1542480D01*
X1465394Y236024D02*
X1494094D01*
X1513780D02*
X1542480D01*
Y200315D02*
Y235905D01*
X1513780Y200197D02*
X1542480D01*
X1465394Y200315D02*
Y236024D01*
Y200197D02*
X1494094D01*
X1783898Y311472D02*
X1812598D01*
X1832283D02*
X1860984D01*
Y275764D02*
Y311354D01*
X1832283Y275645D02*
X1860984D01*
X1783898Y275764D02*
Y311472D01*
Y275645D02*
X1812598D01*
X1832283Y268756D02*
X1860984D01*
Y232929D02*
Y268638D01*
X1783898Y268756D02*
X1812598D01*
X1783898Y233047D02*
Y268638D01*
Y232929D02*
X1812598D01*
X1832283D02*
X1860984D01*
X1783898Y232756D02*
X1812598D01*
X1832283D02*
X1860984D01*
Y197047D02*
Y232638D01*
X1832283Y196929D02*
X1860984D01*
X1783898Y197047D02*
Y232756D01*
Y196929D02*
X1812598D01*
X1602126Y394646D02*
X1630712D01*
X1650397D02*
X1678976D01*
X1602126Y428189D02*
X1630712D01*
X1650397D02*
X1678976D01*
Y394646D02*
Y428189D01*
X1602126Y394646D02*
Y428189D01*
X1860866Y163071D02*
Y196614D01*
X1784016Y163071D02*
Y196614D01*
Y163071D02*
X1812595D01*
X1832280D02*
X1860866D01*
X1784016Y196614D02*
X1812595D01*
X1832280D02*
X1860866D01*
X344685Y208228D02*
X373271D01*
X392956D02*
X421535D01*
X344685Y241772D02*
X373271D01*
X392956D02*
X421535D01*
Y208228D02*
Y241772D01*
X344685Y208228D02*
Y241772D01*
X341535Y208228D02*
Y241772D01*
X264685Y208228D02*
Y241772D01*
Y208228D02*
X293264D01*
X312949D02*
X341535D01*
X264685Y241772D02*
X293264D01*
X312949D02*
X341535D01*
X13150Y114134D02*
X46693D01*
X13150Y190984D02*
X46693D01*
X13150Y162405D02*
Y190984D01*
Y114134D02*
Y142720D01*
X46693Y162405D02*
Y190984D01*
Y114134D02*
Y142720D01*
D113*
X1750000Y153150D02*
Y188976D01*
X1415354Y153150D02*
Y188976D01*
X66929Y134055D02*
Y137992D01*
X177165Y134449D02*
Y137992D01*
Y208661D02*
Y212598D01*
X66929Y208661D02*
Y212598D01*
X84646D01*
X66929Y133858D02*
X84646Y133858D01*
X159449D02*
X177165Y133858D01*
X159449Y212598D02*
X177165D01*
D114*
X1776370Y648779D02*
X1759708D01*
X1751378Y657110D01*
X1759708Y665441D01*
X1776370D01*
X1772204Y690433D02*
X1776370Y686267D01*
Y677937D01*
X1772204Y673771D01*
X1768039D01*
X1763874Y677937D01*
Y686267D01*
X1759708Y690433D01*
X1755543D01*
X1751378Y686267D01*
Y677937D01*
X1755543Y673771D01*
X1776370Y698763D02*
Y715425D01*
Y707094D01*
X1751378D01*
X1776370Y736251D02*
Y727920D01*
X1772204Y723755D01*
X1755543D01*
X1751378Y727920D01*
Y736251D01*
X1755543Y740417D01*
X1772204D01*
X1776370Y736251D01*
X1751378Y748747D02*
X1776370D01*
Y761243D01*
X1772204Y765408D01*
X1763874D01*
X1759708Y761243D01*
Y748747D01*
Y757078D02*
X1751378Y765408D01*
X1348888Y117323D02*
X1318898D01*
Y132318D01*
X1323896Y137316D01*
X1328894D01*
X1333893Y132318D01*
Y117323D01*
Y132318D01*
X1338891Y137316D01*
X1343889D01*
X1348888Y132318D01*
Y117323D01*
X1318898Y147313D02*
X1338891D01*
X1348888Y157310D01*
X1338891Y167307D01*
X1318898D01*
X1333893D01*
Y147313D01*
X1348888Y177303D02*
Y197297D01*
Y187300D01*
X1318898D01*
X1344677Y34954D02*
X1349675Y29956D01*
Y19959D01*
X1344677Y14961D01*
X1324683D01*
X1319685Y19959D01*
Y29956D01*
X1324683Y34954D01*
X1334680D01*
Y24957D01*
X1319685Y44951D02*
X1349675D01*
X1319685Y64944D01*
X1349675D01*
Y74941D02*
X1319685D01*
Y89936D01*
X1324683Y94935D01*
X1344677D01*
X1349675Y89936D01*
Y74941D01*
X1039102Y676661D02*
Y668331D01*
Y672496D01*
X1018275D01*
X1014110Y668331D01*
Y664165D01*
X1018275Y660000D01*
X1014110Y701653D02*
Y684992D01*
X1030772Y701653D01*
X1034937D01*
X1039102Y697488D01*
Y689157D01*
X1034937Y684992D01*
X991102Y680661D02*
Y672331D01*
Y676496D01*
X970275D01*
X966110Y672331D01*
Y668165D01*
X970275Y664000D01*
X966110Y688992D02*
Y697322D01*
Y693157D01*
X991102D01*
X986937Y688992D01*
X1485393Y536346D02*
X1489559Y532181D01*
Y523850D01*
X1485393Y519685D01*
X1468732D01*
X1464567Y523850D01*
Y532181D01*
X1468732Y536346D01*
X1477063D01*
Y528015D01*
X1464567Y544677D02*
X1489559D01*
X1464567Y561338D01*
X1489559D01*
Y569669D02*
X1464567D01*
Y582165D01*
X1468732Y586330D01*
X1485393D01*
X1489559Y582165D01*
Y569669D01*
X1530897Y520456D02*
X1514236D01*
X1505906Y528787D01*
X1514236Y537117D01*
X1530897D01*
Y545448D02*
X1505906D01*
Y557944D01*
X1510071Y562109D01*
X1526732D01*
X1530897Y557944D01*
Y545448D01*
Y570440D02*
X1505906D01*
Y582936D01*
X1510071Y587101D01*
X1526732D01*
X1530897Y582936D01*
Y570440D01*
X1577913Y534378D02*
X1582079Y530212D01*
Y521882D01*
X1577913Y517716D01*
X1573748D01*
X1569583Y521882D01*
Y530212D01*
X1565417Y534378D01*
X1561252D01*
X1557087Y530212D01*
Y521882D01*
X1561252Y517716D01*
X1582079Y542708D02*
X1557087D01*
X1565417Y551039D01*
X1557087Y559370D01*
X1582079D01*
Y567700D02*
X1557087D01*
X1565417D01*
X1582079Y584361D01*
X1569583Y571865D01*
X1557087Y584361D01*
X1624764Y537134D02*
X1628929Y532968D01*
Y524638D01*
X1624764Y520472D01*
X1620598D01*
X1616433Y524638D01*
Y532968D01*
X1612268Y537134D01*
X1608102D01*
X1603937Y532968D01*
Y524638D01*
X1608102Y520472D01*
X1628929Y545464D02*
X1603937D01*
X1612268Y553795D01*
X1603937Y562126D01*
X1628929D01*
Y582952D02*
Y574621D01*
X1624764Y570456D01*
X1608102D01*
X1603937Y574621D01*
Y582952D01*
X1608102Y587117D01*
X1624764D01*
X1628929Y582952D01*
X1682884Y501272D02*
X1666223D01*
X1657892Y509602D01*
X1666223Y517933D01*
X1682884D01*
Y526264D02*
X1657892D01*
Y538760D01*
X1662057Y542925D01*
X1666223D01*
X1670388Y538760D01*
Y526264D01*
Y538760D01*
X1674553Y542925D01*
X1678718D01*
X1682884Y538760D01*
Y526264D01*
X1657892Y551255D02*
X1674553D01*
X1682884Y559586D01*
X1674553Y567917D01*
X1657892D01*
X1670388D01*
Y551255D01*
X1682884Y576247D02*
Y592909D01*
Y584578D01*
X1657892D01*
X1718464Y546131D02*
X1722630Y541966D01*
Y533635D01*
X1718464Y529470D01*
X1714299D01*
X1710134Y533635D01*
Y541966D01*
X1705968Y546131D01*
X1701803D01*
X1697638Y541966D01*
Y533635D01*
X1701803Y529470D01*
X1722630Y566958D02*
Y558627D01*
X1718464Y554462D01*
X1701803D01*
X1697638Y558627D01*
Y566958D01*
X1701803Y571123D01*
X1718464D01*
X1722630Y566958D01*
Y579454D02*
X1697638D01*
Y596115D01*
X1474937Y675661D02*
X1479102Y671496D01*
Y663165D01*
X1474937Y659000D01*
X1458275D01*
X1454110Y663165D01*
Y671496D01*
X1458275Y675661D01*
X1474937Y700653D02*
X1479102Y696488D01*
Y688157D01*
X1474937Y683992D01*
X1470772D01*
X1466606Y688157D01*
Y696488D01*
X1462441Y700653D01*
X1458275D01*
X1454110Y696488D01*
Y688157D01*
X1458275Y683992D01*
X1524937Y656661D02*
X1529102Y652496D01*
Y644165D01*
X1524937Y640000D01*
X1520772D01*
X1516606Y644165D01*
Y652496D01*
X1512441Y656661D01*
X1508275D01*
X1504110Y652496D01*
Y644165D01*
X1508275Y640000D01*
X1524937Y681653D02*
X1529102Y677488D01*
Y669157D01*
X1524937Y664992D01*
X1508275D01*
X1504110Y669157D01*
Y677488D01*
X1508275Y681653D01*
X1529102Y689984D02*
X1504110D01*
X1512441D01*
X1529102Y706645D01*
X1516606Y694149D01*
X1504110Y706645D01*
X1577913Y685779D02*
X1582078Y681614D01*
Y673283D01*
X1577913Y669118D01*
X1573748D01*
X1569582Y673283D01*
Y681614D01*
X1565417Y685779D01*
X1561252D01*
X1557086Y681614D01*
Y673283D01*
X1561252Y669118D01*
X1582078Y694110D02*
Y702440D01*
Y698275D01*
X1557086D01*
Y694110D01*
Y702440D01*
X1625157Y677448D02*
X1629322Y673283D01*
Y664952D01*
X1625157Y660787D01*
X1620992D01*
X1616827Y664952D01*
Y673283D01*
X1612661Y677448D01*
X1608496D01*
X1604331Y673283D01*
Y664952D01*
X1608496Y660787D01*
X1629322Y698275D02*
Y689944D01*
X1625157Y685779D01*
X1608496D01*
X1604331Y689944D01*
Y698275D01*
X1608496Y702440D01*
X1625157D01*
X1629322Y698275D01*
X934937Y656661D02*
X939102Y652496D01*
Y644165D01*
X934937Y640000D01*
X930771D01*
X926606Y644165D01*
Y652496D01*
X922441Y656661D01*
X918275D01*
X914110Y652496D01*
Y644165D01*
X918275Y640000D01*
X934937Y681653D02*
X939102Y677488D01*
Y669157D01*
X934937Y664992D01*
X918275D01*
X914110Y669157D01*
Y677488D01*
X918275Y681653D01*
X939102Y689984D02*
X914110D01*
X922441D01*
X939102Y706645D01*
X926606Y694149D01*
X914110Y706645D01*
X884937Y677661D02*
X889102Y673496D01*
Y665165D01*
X884937Y661000D01*
X868275D01*
X864110Y665165D01*
Y673496D01*
X868275Y677661D01*
X884937Y702653D02*
X889102Y698488D01*
Y690157D01*
X884937Y685992D01*
X880771D01*
X876606Y690157D01*
Y698488D01*
X872441Y702653D01*
X868275D01*
X864110Y698488D01*
Y690157D01*
X868275Y685992D01*
X1183622Y546581D02*
X1187787Y542416D01*
Y534085D01*
X1183622Y529920D01*
X1179457D01*
X1175292Y534085D01*
Y542416D01*
X1171126Y546581D01*
X1166961D01*
X1162796Y542416D01*
Y534085D01*
X1166961Y529920D01*
X1187787Y567408D02*
Y559077D01*
X1183622Y554912D01*
X1166961D01*
X1162796Y559077D01*
Y567408D01*
X1166961Y571573D01*
X1183622D01*
X1187787Y567408D01*
Y579904D02*
X1162796D01*
Y596565D01*
X1089953Y497433D02*
X1073291D01*
X1064961Y505763D01*
X1073291Y514094D01*
X1089953D01*
Y522425D02*
X1064961D01*
Y534921D01*
X1069126Y539086D01*
X1073291D01*
X1077457Y534921D01*
Y522425D01*
Y534921D01*
X1081622Y539086D01*
X1085787D01*
X1089953Y534921D01*
Y522425D01*
X1064961Y547417D02*
X1081622D01*
X1089953Y555747D01*
X1081622Y564078D01*
X1064961D01*
X1077457D01*
Y547417D01*
X1089953Y572408D02*
Y589070D01*
Y580739D01*
X1064961D01*
X1037575Y489267D02*
X1041740Y485102D01*
Y476771D01*
X1037575Y472606D01*
X1033409D01*
X1029244Y476771D01*
Y485102D01*
X1025079Y489267D01*
X1020913D01*
X1016748Y485102D01*
Y476771D01*
X1020913Y472606D01*
X1041740Y497598D02*
X1016748D01*
X1025079Y505929D01*
X1016748Y514259D01*
X1041740D01*
Y522590D02*
X1016748D01*
Y535086D01*
X1020913Y539251D01*
X1037575D01*
X1041740Y535086D01*
Y522590D01*
Y547582D02*
Y555912D01*
Y551747D01*
X1016748D01*
Y547582D01*
Y555912D01*
X1041740Y580904D02*
Y572574D01*
X1037575Y568408D01*
X1020913D01*
X1016748Y572574D01*
Y580904D01*
X1020913Y585070D01*
X1037575D01*
X1041740Y580904D01*
X988362Y485102D02*
X992527Y480937D01*
Y472606D01*
X988362Y468441D01*
X984197D01*
X980031Y472606D01*
Y480937D01*
X975866Y485102D01*
X971701D01*
X967535Y480937D01*
Y472606D01*
X971701Y468441D01*
X992527Y493433D02*
X967535D01*
X975866Y501763D01*
X967535Y510094D01*
X992527D01*
Y518425D02*
X967535D01*
Y530921D01*
X971701Y535086D01*
X988362D01*
X992527Y530921D01*
Y518425D01*
X988362Y560078D02*
X992527Y555913D01*
Y547582D01*
X988362Y543417D01*
X971701D01*
X967535Y547582D01*
Y555913D01*
X971701Y560078D01*
X992527Y568408D02*
X967535D01*
Y585070D01*
X939378Y518425D02*
X922716D01*
X914386Y526755D01*
X922716Y535086D01*
X939378D01*
Y543417D02*
X914386D01*
Y555913D01*
X918551Y560078D01*
X935212D01*
X939378Y555913D01*
Y543417D01*
Y568408D02*
X914386D01*
Y580904D01*
X918551Y585070D01*
X935212D01*
X939378Y580904D01*
Y568408D01*
X884031Y535086D02*
X888197Y530921D01*
Y522590D01*
X884031Y518425D01*
X867370D01*
X863205Y522590D01*
Y530921D01*
X867370Y535086D01*
X875701D01*
Y526755D01*
X863205Y543417D02*
X888197D01*
X863205Y560078D01*
X888197D01*
Y568408D02*
X863205D01*
Y580904D01*
X867370Y585070D01*
X884031D01*
X888197Y580904D01*
Y568408D01*
X1240120Y323488D02*
X1247618Y330985D01*
X1262613D01*
X1270110Y323488D01*
Y293498D01*
X1262613Y286000D01*
X1247618D01*
X1240120Y293498D01*
Y308493D01*
X1255115D01*
X1217627Y315990D02*
X1202632D01*
X1195134Y308493D01*
Y286000D01*
X1217627D01*
X1225125Y293498D01*
X1217627Y300995D01*
X1195134D01*
X1172642Y323488D02*
Y315990D01*
X1180139D01*
X1165144D01*
X1172642D01*
Y293498D01*
X1165144Y286000D01*
X1120159D02*
X1135154D01*
X1142651Y293498D01*
Y308493D01*
X1135154Y315990D01*
X1120159D01*
X1112661Y308493D01*
Y300995D01*
X1142651D01*
X1097666Y286000D02*
Y330985D01*
Y300995D02*
X1075173Y315990D01*
X1097666Y300995D02*
X1075173Y286000D01*
X1030188D02*
X1045183D01*
X1052680Y293498D01*
Y308493D01*
X1045183Y315990D01*
X1030188D01*
X1022690Y308493D01*
Y300995D01*
X1052680D01*
X985202Y286000D02*
X1000197D01*
X1007695Y293498D01*
Y308493D01*
X1000197Y315990D01*
X985202D01*
X977705Y308493D01*
Y300995D01*
X1007695D01*
X962709Y271005D02*
Y315990D01*
X940217D01*
X932719Y308493D01*
Y293498D01*
X940217Y286000D01*
X962709D01*
X895231D02*
X910226D01*
X917724Y293498D01*
Y308493D01*
X910226Y315990D01*
X895231D01*
X887734Y308493D01*
Y300995D01*
X917724D01*
X872738Y315990D02*
Y286000D01*
Y300995D01*
X865241Y308493D01*
X857743Y315990D01*
X850246D01*
X782767Y330985D02*
Y300995D01*
X767772Y286000D01*
X752777Y300995D01*
Y330985D01*
X707792Y286000D02*
X737782D01*
X707792Y315990D01*
Y323488D01*
X715289Y330985D01*
X730284D01*
X737782Y323488D01*
X692796Y286000D02*
Y293498D01*
X685299D01*
Y286000D01*
X692796D01*
X625318D02*
X655308D01*
X625318Y315990D01*
Y323488D01*
X632816Y330985D01*
X647811D01*
X655308Y323488D01*
X1139110Y374000D02*
Y433036D01*
X1099753Y374000D01*
Y433036D01*
X1080074D02*
Y374000D01*
X1050556D01*
X1040717Y383839D01*
Y393679D01*
X1050556Y403518D01*
X1080074D01*
X1050556D01*
X1040717Y413357D01*
Y423197D01*
X1050556Y433036D01*
X1080074D01*
X1021038D02*
Y374000D01*
X981681D01*
X962002Y403518D02*
X922645D01*
X863609Y423197D02*
X873448Y433036D01*
X893127D01*
X902966Y423197D01*
Y383839D01*
X893127Y374000D01*
X873448D01*
X863609Y383839D01*
X843930Y374000D02*
Y413357D01*
X824251Y433036D01*
X804573Y413357D01*
Y374000D01*
Y403518D01*
X843930D01*
X784894Y374000D02*
Y433036D01*
X765216Y413357D01*
X745537Y433036D01*
Y374000D01*
X1818898Y23228D02*
Y48220D01*
X1806402D01*
X1802236Y44055D01*
Y35724D01*
X1806402Y31559D01*
X1818898D01*
X1793906Y44055D02*
X1789740Y48220D01*
X1781410D01*
X1777244Y44055D01*
Y39890D01*
X1781410Y35724D01*
X1785575D01*
X1781410D01*
X1777244Y31559D01*
Y27394D01*
X1781410Y23228D01*
X1789740D01*
X1793906Y27394D01*
X1884914Y585334D02*
X1889079Y589500D01*
X1897409D01*
X1901575Y585334D01*
Y581169D01*
X1897409Y577004D01*
X1889079D01*
X1884914Y572838D01*
Y568673D01*
X1889079Y564508D01*
X1897409D01*
X1901575Y568673D01*
X1876583Y589500D02*
Y564508D01*
X1868252Y572838D01*
X1859922Y564508D01*
Y589500D01*
X1834930Y564508D02*
X1851591D01*
X1834930Y581169D01*
Y585334D01*
X1839095Y589500D01*
X1847426D01*
X1851591Y585334D01*
X120402Y62381D02*
X99576D01*
X95410Y66546D01*
Y74877D01*
X99576Y79042D01*
X120402D01*
X95410Y87373D02*
Y95704D01*
Y91538D01*
X120402D01*
X116237Y87373D01*
X95410Y108200D02*
Y116530D01*
Y112365D01*
X120402D01*
X116237Y108200D01*
X39134Y209633D02*
X43299Y205468D01*
Y197137D01*
X39134Y192972D01*
X22473D01*
X18307Y197137D01*
Y205468D01*
X22473Y209633D01*
X39134Y217964D02*
X43299Y222129D01*
Y230460D01*
X39134Y234625D01*
X34968D01*
X30803Y230460D01*
Y226295D01*
Y230460D01*
X26638Y234625D01*
X22473D01*
X18307Y230460D01*
Y222129D01*
X22473Y217964D01*
X43299Y259617D02*
Y242956D01*
X30803D01*
X34968Y251287D01*
Y255452D01*
X30803Y259617D01*
X22473D01*
X18307Y255452D01*
Y247121D01*
X22473Y242956D01*
X483117Y61990D02*
X493113D01*
X488115D01*
Y36998D01*
X493113Y32000D01*
X498112D01*
X503110Y36998D01*
X473120Y32000D02*
X463123D01*
X468122D01*
Y61990D01*
X473120Y56992D01*
X1936220Y203937D02*
Y228929D01*
X1923725D01*
X1919559Y224764D01*
Y216433D01*
X1923725Y212268D01*
X1936220D01*
X1927890D02*
X1919559Y203937D01*
X1894567D02*
X1911229D01*
X1894567Y220598D01*
Y224764D01*
X1898733Y228929D01*
X1907063D01*
X1911229Y224764D01*
X1886237Y228929D02*
Y203937D01*
X1873741D01*
X1869575Y208102D01*
Y212268D01*
Y216433D01*
X1873741Y220598D01*
X1886237D01*
X1910504Y346153D02*
X1914669Y350319D01*
X1923000D01*
X1927165Y346153D01*
Y329492D01*
X1923000Y325327D01*
X1914669D01*
X1910504Y329492D01*
X1902173Y325327D02*
X1893843D01*
X1898008D01*
Y350319D01*
X1902173Y346153D01*
X238459Y238739D02*
X242624Y242905D01*
X250955D01*
X255120Y238739D01*
Y222078D01*
X250955Y217913D01*
X242624D01*
X238459Y222078D01*
X230128Y238739D02*
X225963Y242905D01*
X217632D01*
X213467Y238739D01*
Y234574D01*
X217632Y230409D01*
X221798D01*
X217632D01*
X213467Y226244D01*
Y222078D01*
X217632Y217913D01*
X225963D01*
X230128Y222078D01*
X192641Y217913D02*
Y242905D01*
X205137Y230409D01*
X188475D01*
X1480955Y455226D02*
X1485055Y451126D01*
Y442926D01*
X1480955Y438827D01*
X1476856D01*
X1472756Y442926D01*
Y451126D01*
X1468656Y455226D01*
X1464556D01*
X1460457Y451126D01*
Y442926D01*
X1464556Y438827D01*
X1485055Y463425D02*
X1460457D01*
Y475724D01*
X1464556Y479824D01*
X1468656D01*
X1472756Y475724D01*
Y463425D01*
Y475724D01*
X1476856Y479824D01*
X1480955D01*
X1485055Y475724D01*
Y463425D01*
X1460457Y504422D02*
Y488023D01*
X1476856Y504422D01*
X1480955D01*
X1485055Y500322D01*
Y492123D01*
X1480955Y488023D01*
X1916354Y403662D02*
X1891362D01*
Y420323D01*
Y428654D02*
Y436984D01*
Y432819D01*
X1916354D01*
X1912189Y428654D01*
X1923441Y240842D02*
Y265834D01*
X1910945D01*
X1906780Y261669D01*
Y253338D01*
X1910945Y249173D01*
X1923441D01*
X1915110D02*
X1906780Y240842D01*
X1881788D02*
X1898449D01*
X1881788Y257504D01*
Y261669D01*
X1885953Y265834D01*
X1894284D01*
X1898449Y261669D01*
X1253359Y539559D02*
Y514567D01*
X1240862D01*
X1236697Y518732D01*
Y535393D01*
X1240862Y539559D01*
X1253359D01*
X1228367Y535393D02*
X1224201Y539559D01*
X1215871D01*
X1211705Y535393D01*
Y531228D01*
X1215871Y527063D01*
X1220036D01*
X1215871D01*
X1211705Y522897D01*
Y518732D01*
X1215871Y514567D01*
X1224201D01*
X1228367Y518732D01*
X479529Y238739D02*
X483695Y242905D01*
X492025D01*
X496191Y238739D01*
Y222078D01*
X492025Y217913D01*
X483695D01*
X479529Y222078D01*
X471199Y238739D02*
X467033Y242905D01*
X458703D01*
X454537Y238739D01*
Y234574D01*
X458703Y230409D01*
X462868D01*
X458703D01*
X454537Y226244D01*
Y222078D01*
X458703Y217913D01*
X467033D01*
X471199Y222078D01*
X446207Y238739D02*
X442041Y242905D01*
X433711D01*
X429546Y238739D01*
Y234574D01*
X433711Y230409D01*
X437876D01*
X433711D01*
X429546Y226244D01*
Y222078D01*
X433711Y217913D01*
X442041D01*
X446207Y222078D01*
X233471Y87909D02*
Y104570D01*
Y96239D01*
X208479D01*
Y112901D02*
X233471D01*
Y125397D01*
X229305Y129562D01*
X220975D01*
X216809Y125397D01*
Y112901D01*
X208479Y154554D02*
Y137893D01*
X225140Y154554D01*
X229305D01*
X233471Y150388D01*
Y142058D01*
X229305Y137893D01*
X561750Y193587D02*
X545088D01*
X553419D01*
Y168595D01*
X536758D02*
Y193587D01*
X524262D01*
X520097Y189422D01*
Y181091D01*
X524262Y176925D01*
X536758D01*
X511766Y168595D02*
X503435D01*
X507601D01*
Y193587D01*
X511766Y189422D01*
X1246102Y443990D02*
Y418998D01*
X1233606D01*
X1229441Y423163D01*
Y439825D01*
X1233606Y443990D01*
X1246102D01*
X1208614Y418998D02*
Y443990D01*
X1221110Y431494D01*
X1204449D01*
X798905Y666758D02*
Y658428D01*
Y662593D01*
X778078D01*
X773913Y658428D01*
Y654262D01*
X778078Y650097D01*
X798905Y675089D02*
X778078D01*
X773913Y679254D01*
Y687585D01*
X778078Y691750D01*
X798905D01*
X773913Y700081D02*
X798905D01*
X790574Y708412D01*
X798905Y716742D01*
X773913D01*
Y741734D02*
Y725073D01*
X790574Y741734D01*
X794740D01*
X798905Y737569D01*
Y729238D01*
X794740Y725073D01*
X642316Y669416D02*
Y661085D01*
Y665250D01*
X621490D01*
X617324Y661085D01*
Y656920D01*
X621490Y652755D01*
X642316Y677746D02*
X621490D01*
X617324Y681912D01*
Y690242D01*
X621490Y694408D01*
X642316D01*
X617324Y702738D02*
X642316D01*
X633986Y711069D01*
X642316Y719400D01*
X617324D01*
Y727730D02*
Y736061D01*
Y731895D01*
X642316D01*
X638151Y727730D01*
X1230315Y714567D02*
X1246976D01*
X1255307Y722897D01*
X1246976Y731228D01*
X1230315D01*
X1242811D01*
Y714567D01*
X1230315Y739559D02*
Y747889D01*
Y743724D01*
X1255307D01*
X1251141Y739559D01*
X1438378Y504724D02*
Y521386D01*
Y513055D01*
X1413386D01*
X1438378Y529716D02*
X1413386D01*
X1425882D01*
Y546378D01*
X1438378D01*
X1413386D01*
Y554708D02*
Y563039D01*
Y558873D01*
X1438378D01*
X1434212Y554708D01*
X1127953Y708661D02*
X1144614D01*
X1152945Y716992D01*
X1144614Y725323D01*
X1127953D01*
X1140449D01*
Y708661D01*
X1127953Y750314D02*
Y733653D01*
X1144614Y750314D01*
X1148779D01*
X1152945Y746149D01*
Y737818D01*
X1148779Y733653D01*
X1906016Y186891D02*
X1910181Y191056D01*
X1918512D01*
X1922677Y186891D01*
Y170229D01*
X1918512Y166064D01*
X1910181D01*
X1906016Y170229D01*
X1881024Y166064D02*
X1897685D01*
X1881024Y182725D01*
Y186891D01*
X1885189Y191056D01*
X1893520D01*
X1897685Y186891D01*
X1576646Y424450D02*
X1580811Y428616D01*
X1589142D01*
X1593307Y424450D01*
Y407789D01*
X1589142Y403624D01*
X1580811D01*
X1576646Y407789D01*
X1568315Y424450D02*
X1564150Y428616D01*
X1555819D01*
X1551654Y424450D01*
Y420285D01*
X1555819Y416120D01*
X1559985D01*
X1555819D01*
X1551654Y411954D01*
Y407789D01*
X1555819Y403624D01*
X1564150D01*
X1568315Y407789D01*
X1579191Y391071D02*
X1582523Y394403D01*
X1589187D01*
X1592520Y391071D01*
Y377742D01*
X1589187Y374409D01*
X1582523D01*
X1579191Y377742D01*
X1562529Y374409D02*
Y394403D01*
X1572526Y384406D01*
X1559197D01*
X1922677Y281748D02*
Y306740D01*
X1910181D01*
X1906016Y302575D01*
Y294244D01*
X1910181Y290079D01*
X1922677D01*
X1914347D02*
X1906016Y281748D01*
X1897685D02*
X1889355D01*
X1893520D01*
Y306740D01*
X1897685Y302575D01*
X1452756Y205690D02*
Y229304D01*
X1440949D01*
X1437013Y225369D01*
Y217497D01*
X1440949Y213561D01*
X1452756D01*
X1444884D02*
X1437013Y205690D01*
X1413399Y229304D02*
X1421270Y225369D01*
X1429141Y217497D01*
Y209626D01*
X1425206Y205690D01*
X1417334D01*
X1413399Y209626D01*
Y213561D01*
X1417334Y217497D01*
X1429141D01*
X1452756Y242525D02*
Y266139D01*
X1440949D01*
X1437013Y262203D01*
Y254332D01*
X1440949Y250396D01*
X1452756D01*
X1444884D02*
X1437013Y242525D01*
X1429141Y266139D02*
X1413399D01*
Y262203D01*
X1429141Y246460D01*
Y242525D01*
X1537402Y387795D02*
Y412787D01*
X1524906D01*
X1520740Y408622D01*
Y400291D01*
X1524906Y396126D01*
X1537402D01*
X1529071D02*
X1520740Y387795D01*
X1512410D02*
X1504079D01*
X1508244D01*
Y412787D01*
X1512410Y408622D01*
X1491583D02*
X1487418Y412787D01*
X1479087D01*
X1474922Y408622D01*
Y391961D01*
X1479087Y387795D01*
X1487418D01*
X1491583Y391961D01*
Y408622D01*
X1454724Y311024D02*
Y334638D01*
X1442917D01*
X1438982Y330702D01*
Y322831D01*
X1442917Y318895D01*
X1454724D01*
X1446853D02*
X1438982Y311024D01*
X1431110D02*
X1423238D01*
X1427174D01*
Y334638D01*
X1431110Y330702D01*
X1411431Y311024D02*
X1403560D01*
X1407496D01*
Y334638D01*
X1411431Y330702D01*
X1456693Y279528D02*
Y300387D01*
X1446263D01*
X1442787Y296910D01*
Y289957D01*
X1446263Y286481D01*
X1456693D01*
X1449740D02*
X1442787Y279528D01*
X1435833D02*
X1428880D01*
X1432357D01*
Y300387D01*
X1435833Y296910D01*
X1404544Y279528D02*
X1418451D01*
X1404544Y293434D01*
Y296910D01*
X1408021Y300387D01*
X1414974D01*
X1418451Y296910D01*
X1928055Y131890D02*
Y156882D01*
X1915559D01*
X1911394Y152716D01*
Y144386D01*
X1915559Y140220D01*
X1928055D01*
X1919725D02*
X1911394Y131890D01*
X1903063Y152716D02*
X1898898Y156882D01*
X1890567D01*
X1886402Y152716D01*
Y148551D01*
X1890567Y144386D01*
X1886402Y140220D01*
Y136055D01*
X1890567Y131890D01*
X1898898D01*
X1903063Y136055D01*
Y140220D01*
X1898898Y144386D01*
X1903063Y148551D01*
Y152716D01*
X1898898Y144386D02*
X1890567D01*
X1927661Y92913D02*
Y117905D01*
X1915166D01*
X1911000Y113740D01*
Y105409D01*
X1915166Y101244D01*
X1927661D01*
X1919331D02*
X1911000Y92913D01*
X1902670Y97079D02*
X1898504Y92913D01*
X1890174D01*
X1886008Y97079D01*
Y113740D01*
X1890174Y117905D01*
X1898504D01*
X1902670Y113740D01*
Y109575D01*
X1898504Y105409D01*
X1886008D01*
X1755118Y237373D02*
Y216546D01*
X1750953Y212381D01*
X1742622D01*
X1738457Y216546D01*
Y237373D01*
X1730126Y212381D02*
X1721796D01*
X1725961D01*
Y237373D01*
X1730126Y233208D01*
X1403346Y446063D02*
X1428338D01*
Y458559D01*
X1424173Y462724D01*
X1415842D01*
X1411677Y458559D01*
Y446063D01*
Y454394D02*
X1403346Y462724D01*
X1428338Y487716D02*
Y471055D01*
X1415842D01*
X1420008Y479385D01*
Y483551D01*
X1415842Y487716D01*
X1407512D01*
X1403346Y483551D01*
Y475220D01*
X1407512Y471055D01*
X562393Y652126D02*
X566558Y656291D01*
X574889D01*
X579054Y652126D01*
Y647960D01*
X574889Y643795D01*
X566558D01*
X562393Y639630D01*
Y635464D01*
X566558Y631299D01*
X574889D01*
X579054Y635464D01*
X554063Y656291D02*
Y631299D01*
X541567D01*
X537401Y635464D01*
Y652126D01*
X541567Y656291D01*
X554063D01*
X529071Y631299D02*
X520740D01*
X524905D01*
Y656291D01*
X529071Y652126D01*
X572240Y255610D02*
X597232D01*
Y268106D01*
X593067Y272271D01*
X584736D01*
X580571Y268106D01*
Y255610D01*
Y263941D02*
X572240Y272271D01*
Y280602D02*
Y288933D01*
Y284767D01*
X597232D01*
X593067Y280602D01*
X597232Y318090D02*
Y301429D01*
X584736D01*
X588901Y309759D01*
Y313925D01*
X584736Y318090D01*
X576405D01*
X572240Y313925D01*
Y305594D01*
X576405Y301429D01*
X1253359Y609800D02*
Y626462D01*
X1245028Y634792D01*
X1236697Y626462D01*
Y609800D01*
Y622296D01*
X1253359D01*
X1228367Y630627D02*
X1224201Y634792D01*
X1215871D01*
X1211705Y630627D01*
Y626462D01*
X1215871Y622296D01*
X1220036D01*
X1215871D01*
X1211705Y618131D01*
Y613966D01*
X1215871Y609800D01*
X1224201D01*
X1228367Y613966D01*
D115*
X725854Y49127D02*
D03*
%TF.MD5,7025b32714a8e85224e25875892976ce*%
M02*
