%TF.GenerationSoftware,Altium Limited,Altium Designer,19.0.15 (446)*%
G04 Layer_Color=11065270*
%FSLAX26Y26*%
%MOIN*%
%TF.FileFunction,Soldermask,Bot*%
%TF.Part,Single*%
G01*
G75*
%TA.AperFunction,NonConductor*%
%ADD10C,0.008000*%
%TA.AperFunction,SMDPad,CuDef*%
%ADD12R,0.021654X0.023622*%
%ADD13R,0.023622X0.021654*%
%ADD22R,0.029528X0.031496*%
%ADD23R,0.023622X0.019685*%
%ADD24C,0.012008*%
%ADD25O,0.012008X0.062992*%
%ADD36C,0.047244*%
%ADD39R,0.019685X0.023622*%
%ADD52R,0.011811X0.031496*%
%TA.AperFunction,Conductor*%
%ADD54C,0.008000*%
%TA.AperFunction,ComponentPad*%
%ADD67C,0.039370*%
G04:AMPARAMS|DCode=68|XSize=39mil|YSize=39mil|CornerRadius=0mil|HoleSize=0mil|Usage=FLASHONLY|Rotation=0.000|XOffset=0mil|YOffset=0mil|HoleType=Round|Shape=Octagon|*
%AMOCTAGOND68*
4,1,8,0.019500,-0.009750,0.019500,0.009750,0.009750,0.019500,-0.009750,0.019500,-0.019500,0.009750,-0.019500,-0.009750,-0.009750,-0.019500,0.009750,-0.019500,0.019500,-0.009750,0.0*
%
%ADD68OCTAGOND68*%

%ADD69C,0.023622*%
%ADD70O,0.035433X0.062992*%
%TA.AperFunction,WasherPad*%
%ADD71C,0.015000*%
%TA.AperFunction,ComponentPad*%
%ADD72R,0.039000X0.039000*%
%ADD73C,0.059055*%
%ADD74R,0.059055X0.059055*%
%ADD75C,0.047244*%
%ADD76C,0.055118*%
%ADD77R,0.055118X0.055118*%
%TA.AperFunction,ViaPad*%
%ADD78C,0.024000*%
%TA.AperFunction,SMDPad,CuDef*%
%ADD83R,0.027559X0.068898*%
%ADD84R,0.059055X0.059055*%
%ADD85R,0.051181X0.059055*%
%ADD86R,0.031496X0.059055*%
%ADD87R,0.057087X0.039370*%
%ADD88R,0.031496X0.055118*%
%ADD89R,0.039370X0.061024*%
%ADD90R,0.023622X0.102362*%
%ADD92R,0.029528X0.057087*%
G04:AMPARAMS|DCode=93|XSize=66.929mil|YSize=66.929mil|CornerRadius=2.008mil|HoleSize=0mil|Usage=FLASHONLY|Rotation=180.000|XOffset=0mil|YOffset=0mil|HoleType=Round|Shape=RoundedRectangle|*
%AMROUNDEDRECTD93*
21,1,0.066929,0.062913,0,0,180.0*
21,1,0.062913,0.066929,0,0,180.0*
1,1,0.004016,-0.031457,0.031457*
1,1,0.004016,0.031457,0.031457*
1,1,0.004016,0.031457,-0.031457*
1,1,0.004016,-0.031457,-0.031457*
%
%ADD93ROUNDEDRECTD93*%
G04:AMPARAMS|DCode=94|XSize=9.842mil|YSize=27.559mil|CornerRadius=1.968mil|HoleSize=0mil|Usage=FLASHONLY|Rotation=180.000|XOffset=0mil|YOffset=0mil|HoleType=Round|Shape=RoundedRectangle|*
%AMROUNDEDRECTD94*
21,1,0.009842,0.023622,0,0,180.0*
21,1,0.005906,0.027559,0,0,180.0*
1,1,0.003937,-0.002953,0.011811*
1,1,0.003937,0.002953,0.011811*
1,1,0.003937,0.002953,-0.011811*
1,1,0.003937,-0.002953,-0.011811*
%
%ADD94ROUNDEDRECTD94*%
G04:AMPARAMS|DCode=95|XSize=9.842mil|YSize=27.559mil|CornerRadius=1.968mil|HoleSize=0mil|Usage=FLASHONLY|Rotation=90.000|XOffset=0mil|YOffset=0mil|HoleType=Round|Shape=RoundedRectangle|*
%AMROUNDEDRECTD95*
21,1,0.009842,0.023622,0,0,90.0*
21,1,0.005906,0.027559,0,0,90.0*
1,1,0.003937,0.011811,0.002953*
1,1,0.003937,0.011811,-0.002953*
1,1,0.003937,-0.011811,-0.002953*
1,1,0.003937,-0.011811,0.002953*
%
%ADD95ROUNDEDRECTD95*%
%ADD96R,0.027559X0.025591*%
%TA.AperFunction,ConnectorPad*%
%ADD97R,0.062992X0.055118*%
%ADD98R,0.074803X0.061024*%
%ADD99R,0.015748X0.053150*%
%TA.AperFunction,SMDPad,CuDef*%
%ADD100O,0.008661X0.029528*%
%ADD101O,0.029528X0.008661*%
%ADD102R,0.029528X0.027559*%
%ADD103R,0.029528X0.025591*%
%ADD104R,0.029528X0.025591*%
%ADD105R,0.082677X0.047244*%
%ADD106R,0.047244X0.082677*%
%ADD116R,0.027559X0.027559*%
G36*
X1535747Y448472D02*
X1531724Y442471D01*
X1527736Y438483D01*
X1523106Y436473D01*
X1515748Y434472D01*
X1509747Y436473D01*
X1505771Y438482D01*
X1499747Y442472D01*
X1495785Y448472D01*
Y456472D01*
X1535747D01*
Y448472D01*
D02*
G37*
G36*
X1527748Y503472D02*
X1533748Y499472D01*
X1537748Y491472D01*
X1535748Y484472D01*
X1495748D01*
X1493764Y489488D01*
X1497757Y497481D01*
X1503748Y503472D01*
X1511719Y505471D01*
X1517903Y505471D01*
X1523748Y505472D01*
X1527748Y503472D01*
D02*
G37*
G36*
X1755905Y504724D02*
X1733071Y481299D01*
Y436024D01*
X1755905Y412598D01*
Y382087D01*
X1720866D01*
X1702756Y403740D01*
Y513583D01*
X1720866Y535236D01*
X1755905D01*
Y504724D01*
D02*
G37*
G36*
X1868110Y513583D02*
Y403740D01*
X1850000Y382087D01*
X1814961D01*
Y412598D01*
X1837795Y436024D01*
Y481299D01*
X1814961Y504724D01*
Y535236D01*
X1850000D01*
X1868110Y513583D01*
D02*
G37*
D10*
X1496149Y452485D02*
G03*
X1535347Y452485I19599J3987D01*
G01*
Y488460D02*
G03*
X1496149Y488460I-19599J-3987D01*
G01*
D12*
X1397638Y403543D02*
D03*
Y364173D02*
D03*
X542110Y269315D02*
D03*
Y308685D02*
D03*
D13*
X1802756Y103543D02*
D03*
X1842126D02*
D03*
X1802756Y139370D02*
D03*
X1842126D02*
D03*
X1484252Y290354D02*
D03*
X1523622D02*
D03*
X1521653Y326772D02*
D03*
X1482283D02*
D03*
Y362442D02*
D03*
X1521653D02*
D03*
X1523622Y253937D02*
D03*
X1484252D02*
D03*
X1523622Y218110D02*
D03*
X1484252D02*
D03*
X1842126Y293559D02*
D03*
X1802756D02*
D03*
X1842126Y250842D02*
D03*
X1802756D02*
D03*
X1842126Y214842D02*
D03*
X1802756D02*
D03*
D22*
X1790354Y334488D02*
D03*
X1843504D02*
D03*
D23*
X1620866Y411417D02*
D03*
X1660236D02*
D03*
X1802756Y179842D02*
D03*
X1842126D02*
D03*
X363425Y225000D02*
D03*
X402795D02*
D03*
X283425D02*
D03*
X322795D02*
D03*
D24*
X1515748Y496063D02*
D03*
D25*
Y470472D02*
D03*
D36*
X1444882Y413524D02*
D03*
X465748Y186595D02*
D03*
X219095D02*
D03*
D39*
X29921Y172244D02*
D03*
Y132874D02*
D03*
D52*
X323409Y166984D02*
D03*
X343094D02*
D03*
X362779D02*
D03*
X382464D02*
D03*
X303724D02*
D03*
D54*
X679134Y692913D02*
Y742913D01*
X740157Y692913D02*
Y742913D01*
D67*
X1616535Y729921D02*
D03*
X1566535D02*
D03*
X1516535D02*
D03*
X925984D02*
D03*
X975984D02*
D03*
X1025984D02*
D03*
X925984Y614173D02*
D03*
X975984D02*
D03*
X1025984D02*
D03*
X1075984D02*
D03*
X1125984D02*
D03*
X1716535D02*
D03*
X1666535D02*
D03*
X1616535D02*
D03*
X1566535D02*
D03*
X1516535D02*
D03*
D68*
X1466535Y729921D02*
D03*
X875984D02*
D03*
D69*
X1893701Y659449D02*
D03*
Y541338D02*
D03*
D70*
X1712599Y53740D02*
D03*
X1452756D02*
D03*
D71*
X1373740Y403150D02*
D03*
X1373731Y351969D02*
D03*
D72*
X875984Y614173D02*
D03*
X1466535D02*
D03*
D73*
X158268Y62381D02*
D03*
D74*
X58268D02*
D03*
D75*
X1126378Y530707D02*
D03*
X1716142Y729921D02*
D03*
D76*
X1386614Y118110D02*
D03*
D77*
Y38583D02*
D03*
D78*
X1661417Y307087D02*
D03*
Y267717D02*
D03*
X1622047Y307087D02*
D03*
Y267716D02*
D03*
D83*
X260827Y705118D02*
D03*
X217519D02*
D03*
X174213D02*
D03*
X130905D02*
D03*
X87599D02*
D03*
X304134D02*
D03*
X347440D02*
D03*
X390748D02*
D03*
D84*
X487205Y700197D02*
D03*
D85*
X40354D02*
D03*
D86*
X30512Y400984D02*
D03*
D87*
X43307Y341929D02*
D03*
D88*
X500984Y375394D02*
D03*
D89*
X485236Y279921D02*
D03*
D90*
X268291Y76433D02*
D03*
X417898D02*
D03*
D92*
X1666732Y464173D02*
D03*
X1582087D02*
D03*
D93*
X1641733Y287401D02*
D03*
D94*
X1671261Y344488D02*
D03*
X1651575D02*
D03*
X1631891D02*
D03*
X1612205D02*
D03*
Y230315D02*
D03*
X1631891D02*
D03*
X1651575D02*
D03*
X1671261D02*
D03*
D95*
X1584646Y316929D02*
D03*
Y297245D02*
D03*
Y277559D02*
D03*
Y257875D02*
D03*
X1698819D02*
D03*
Y277559D02*
D03*
Y297245D02*
D03*
Y316929D02*
D03*
D96*
X1812795Y696457D02*
D03*
X1928937D02*
D03*
Y621654D02*
D03*
X1812795D02*
D03*
D97*
X1708661Y150196D02*
D03*
X1456693D02*
D03*
D98*
X1535433Y53740D02*
D03*
X1629922D02*
D03*
D99*
X1531496Y159055D02*
D03*
X1557087D02*
D03*
X1633858D02*
D03*
X1608268D02*
D03*
X1582677D02*
D03*
D100*
X98425Y207677D02*
D03*
X114173D02*
D03*
X129921D02*
D03*
X145669D02*
D03*
Y138779D02*
D03*
X129921D02*
D03*
X114173D02*
D03*
X98425D02*
D03*
D101*
X172244Y196850D02*
D03*
Y181102D02*
D03*
Y165354D02*
D03*
Y149606D02*
D03*
X71850D02*
D03*
Y165354D02*
D03*
Y181102D02*
D03*
Y196850D02*
D03*
D102*
X679134Y692913D02*
D03*
X740157D02*
D03*
D103*
X679134Y642913D02*
D03*
X740157D02*
D03*
D104*
X679134Y742913D02*
D03*
X740157D02*
D03*
D105*
X1312992Y629921D02*
D03*
Y429921D02*
D03*
Y529921D02*
D03*
D106*
X1092520Y726378D02*
D03*
X1192323D02*
D03*
D116*
X1852362Y458662D02*
D03*
X1718505D02*
D03*
%TF.MD5,f784d005347f445dce5ad087a824608d*%
M02*
