%TF.GenerationSoftware,Altium Limited,Altium Designer,19.0.15 (446)*%
G04 Layer_Physical_Order=3*
G04 Layer_Color=7058166*
%FSLAX26Y26*%
%MOIN*%
%TF.FileFunction,Copper,L3,Inr,Signal*%
%TF.Part,Single*%
G01*
G75*
%TA.AperFunction,Conductor*%
%ADD54C,0.008000*%
%ADD57C,0.010000*%
%ADD58C,0.007874*%
%ADD60C,0.006000*%
%ADD61C,0.007992*%
%ADD63C,0.020000*%
%TA.AperFunction,ComponentPad*%
%ADD67C,0.039370*%
G04:AMPARAMS|DCode=68|XSize=39mil|YSize=39mil|CornerRadius=0mil|HoleSize=0mil|Usage=FLASHONLY|Rotation=0.000|XOffset=0mil|YOffset=0mil|HoleType=Round|Shape=Octagon|*
%AMOCTAGOND68*
4,1,8,0.019500,-0.009750,0.019500,0.009750,0.009750,0.019500,-0.009750,0.019500,-0.019500,0.009750,-0.019500,-0.009750,-0.009750,-0.019500,0.009750,-0.019500,0.019500,-0.009750,0.0*
%
%ADD68OCTAGOND68*%

%ADD69C,0.023622*%
%ADD70O,0.035433X0.062992*%
%TA.AperFunction,WasherPad*%
%ADD71C,0.015000*%
%TA.AperFunction,ComponentPad*%
%ADD72R,0.039000X0.039000*%
%ADD73C,0.059055*%
%ADD74R,0.059055X0.059055*%
%ADD75C,0.047244*%
%ADD76C,0.055118*%
%ADD77R,0.055118X0.055118*%
%TA.AperFunction,ViaPad*%
%ADD78C,0.024000*%
%ADD79C,0.019685*%
%ADD80C,0.025984*%
%TA.AperFunction,Conductor*%
%ADD81C,0.025000*%
G36*
X1002726Y777367D02*
X1005023Y771823D01*
X986013Y752814D01*
X985585Y753100D01*
X975984Y755010D01*
X966383Y753100D01*
X958244Y747661D01*
X954354Y741839D01*
X947615D01*
X943724Y747661D01*
X935585Y753100D01*
X925984Y755010D01*
X916383Y753100D01*
X915091Y752236D01*
X902909Y764418D01*
X900289Y766169D01*
X897198Y766784D01*
X768824D01*
X765733Y766169D01*
X763113Y764418D01*
X648504Y649809D01*
X581034D01*
X580443Y655809D01*
X581871Y656093D01*
X586754Y659356D01*
X590017Y664239D01*
X591163Y670000D01*
X590017Y675760D01*
X586754Y680644D01*
X581871Y683907D01*
X580268Y689952D01*
X580525Y690445D01*
X587706Y692222D01*
X589517Y691013D01*
X595277Y689867D01*
X601038Y691013D01*
X605921Y694276D01*
X609184Y699159D01*
X610330Y704920D01*
X609184Y710680D01*
X605921Y715564D01*
X603345Y717285D01*
X603127Y719735D01*
X603767Y723936D01*
X607693Y726559D01*
X610956Y731443D01*
X612102Y737203D01*
X610956Y742964D01*
X607693Y747847D01*
X602809Y751110D01*
X597049Y752256D01*
X591288Y751110D01*
X586405Y747847D01*
X583141Y742964D01*
X581996Y737203D01*
X583141Y731443D01*
X586405Y726559D01*
X588981Y724838D01*
X589199Y722388D01*
X588559Y718187D01*
X584633Y715564D01*
X581370Y710680D01*
X581185Y709750D01*
X574819Y708477D01*
X569935Y711740D01*
X564175Y712886D01*
X558414Y711740D01*
X553531Y708477D01*
X550268Y703594D01*
X549122Y697833D01*
X550268Y692073D01*
X553531Y687189D01*
X558414Y683926D01*
X560205Y683570D01*
X562966Y676903D01*
X562203Y675760D01*
X561057Y670000D01*
X562203Y664239D01*
X565466Y659356D01*
X570350Y656093D01*
X571777Y655809D01*
X571187Y649809D01*
X542732D01*
X539641Y649194D01*
X537021Y647443D01*
X494029Y604451D01*
X491000Y605053D01*
X485240Y603907D01*
X480356Y600644D01*
X477093Y595760D01*
X475947Y590000D01*
X477093Y584240D01*
X480356Y579356D01*
X483482Y577267D01*
X485157Y570457D01*
X437798Y523098D01*
X432219Y522480D01*
X427335Y525743D01*
X421575Y526889D01*
X415814Y525743D01*
X410931Y522480D01*
X409215Y519912D01*
X391457D01*
X388366Y519298D01*
X385746Y517547D01*
X302243Y434044D01*
X299215Y434647D01*
X293454Y433501D01*
X288571Y430238D01*
X285308Y425354D01*
X284162Y419594D01*
X285308Y413833D01*
X288571Y408950D01*
X293454Y405687D01*
X299215Y404541D01*
X304975Y405687D01*
X309859Y408950D01*
X313122Y413833D01*
X314268Y419594D01*
X313665Y422623D01*
X394802Y503759D01*
X409215D01*
X410931Y501192D01*
X410935Y501189D01*
Y496888D01*
X407671Y492005D01*
X406526Y486244D01*
X407671Y480483D01*
X410935Y475600D01*
X415818Y472337D01*
X421579Y471191D01*
X427339Y472337D01*
X432223Y475600D01*
X435486Y480483D01*
X436632Y486244D01*
X436029Y489273D01*
X442054Y495298D01*
X450736D01*
X453826Y495913D01*
X456446Y497663D01*
X510955Y552172D01*
X517765Y550496D01*
X519854Y547370D01*
X524737Y544107D01*
X530498Y542962D01*
X536258Y544107D01*
X541142Y547370D01*
X544405Y552254D01*
X545551Y558014D01*
X544405Y563775D01*
X541142Y568659D01*
X540602Y575885D01*
X541879Y577749D01*
X598663D01*
X600378Y575182D01*
X605262Y571918D01*
X611022Y570773D01*
X614482Y571461D01*
X617438Y565931D01*
X512829Y461323D01*
X511808Y461526D01*
X506318Y464682D01*
X505172Y470443D01*
X501909Y475326D01*
X497846Y478041D01*
X492919Y481467D01*
X494065Y487227D01*
X492919Y492988D01*
X489656Y497871D01*
X484772Y501134D01*
X479012Y502280D01*
X473251Y501134D01*
X468368Y497871D01*
X465104Y492988D01*
X463959Y487227D01*
X465104Y481467D01*
X468368Y476583D01*
X472431Y473868D01*
X477358Y470443D01*
X476212Y464682D01*
X477358Y458922D01*
X480621Y454038D01*
X485505Y450775D01*
X489258Y450029D01*
X489925Y449645D01*
Y443778D01*
X486323Y443062D01*
X481439Y439799D01*
X478176Y434915D01*
X477030Y429155D01*
X478176Y423394D01*
X481439Y418511D01*
X486323Y415248D01*
X492083Y414102D01*
X497844Y415248D01*
X502727Y418511D01*
X505990Y423394D01*
X507136Y429155D01*
X509801Y431819D01*
X515561Y432965D01*
X520445Y436228D01*
X523708Y441112D01*
X524854Y446872D01*
X524251Y449901D01*
X578160Y503810D01*
X584671Y501835D01*
X585173Y499310D01*
X589132Y493384D01*
X595058Y489425D01*
X602047Y488035D01*
X609037Y489425D01*
X614962Y493384D01*
X618921Y499310D01*
X620311Y506299D01*
X618921Y513288D01*
X614962Y519214D01*
X609037Y523173D01*
X606511Y523675D01*
X604536Y530186D01*
X781893Y707543D01*
X783644Y710163D01*
X784259Y713254D01*
Y728584D01*
X786826Y730299D01*
X790089Y735183D01*
X791235Y740943D01*
X790502Y744630D01*
X794133Y750631D01*
X808626D01*
X811980Y744630D01*
X811129Y740353D01*
X812275Y734592D01*
X815538Y729709D01*
X820422Y726446D01*
X826182Y725300D01*
X831943Y726446D01*
X836826Y729709D01*
X840089Y734592D01*
X841235Y740353D01*
X840384Y744630D01*
X843738Y750631D01*
X852222D01*
X854519Y745087D01*
X851563Y742132D01*
Y717711D01*
X863774Y705500D01*
X888195D01*
X898564Y715869D01*
X905695Y715995D01*
X908244Y712181D01*
X916383Y706742D01*
X925984Y704833D01*
X935585Y706742D01*
X943724Y712181D01*
X947615Y718003D01*
X954354D01*
X958244Y712181D01*
X966383Y706742D01*
X975984Y704833D01*
X985585Y706742D01*
X993724Y712181D01*
X997615Y718003D01*
X1004354D01*
X1008244Y712181D01*
X1016383Y706742D01*
X1025984Y704833D01*
X1035585Y706742D01*
X1043724Y712181D01*
X1049163Y720320D01*
X1051073Y729921D01*
X1050453Y733037D01*
X1066902Y749487D01*
X1392239D01*
X1404205Y737521D01*
X1446843Y694883D01*
X1449794Y692911D01*
X1453275Y692219D01*
X1587929D01*
X1591410Y692911D01*
X1594361Y694883D01*
X1606506Y707028D01*
X1606935Y706742D01*
X1616535Y704833D01*
X1626136Y706742D01*
X1634276Y712181D01*
X1639714Y720320D01*
X1641624Y729921D01*
X1639714Y739522D01*
X1634276Y747661D01*
X1626136Y753100D01*
X1616535Y755010D01*
X1606935Y753100D01*
X1598795Y747661D01*
X1594905Y741839D01*
X1588166D01*
X1584276Y747661D01*
X1576136Y753100D01*
X1566535Y755010D01*
X1556935Y753100D01*
X1556506Y752814D01*
X1537497Y771823D01*
X1539793Y777367D01*
X1948627D01*
Y10035D01*
X1419094D01*
Y45593D01*
X1429675D01*
Y39961D01*
X1431432Y31128D01*
X1436435Y23640D01*
X1443923Y18636D01*
X1452756Y16879D01*
X1461589Y18636D01*
X1469077Y23640D01*
X1474080Y31128D01*
X1475837Y39961D01*
Y67520D01*
X1474080Y76353D01*
X1469077Y83841D01*
X1461589Y88844D01*
X1452756Y90601D01*
X1443923Y88844D01*
X1436435Y83841D01*
X1431432Y76353D01*
X1429675Y67520D01*
Y63777D01*
X1419094D01*
Y71063D01*
X1398661D01*
Y87944D01*
X1402995Y89739D01*
X1409779Y94945D01*
X1414986Y101730D01*
X1418258Y109631D01*
X1419375Y118110D01*
X1418258Y126589D01*
X1414986Y134490D01*
X1414711Y134849D01*
X1428080Y148219D01*
X1431378Y153154D01*
X1432536Y158976D01*
Y304409D01*
X1432536Y304410D01*
Y328637D01*
X1438536Y330457D01*
X1439316Y329290D01*
X1444200Y326027D01*
X1449960Y324881D01*
X1455721Y326027D01*
X1460605Y329290D01*
X1463868Y334173D01*
X1465014Y339934D01*
X1463868Y345695D01*
X1460605Y350578D01*
X1455721Y353841D01*
X1449960Y354987D01*
X1444200Y353841D01*
X1439316Y350578D01*
X1438536Y349411D01*
X1432536Y351231D01*
Y358659D01*
X1663555Y589678D01*
X1666535Y589085D01*
X1676136Y590994D01*
X1684276Y596433D01*
X1688166Y602255D01*
X1694905D01*
X1698795Y596433D01*
X1706935Y590994D01*
X1716535Y589085D01*
X1726136Y590994D01*
X1734276Y596433D01*
X1739714Y604572D01*
X1741624Y614173D01*
X1739714Y623774D01*
X1734276Y631913D01*
X1726136Y637352D01*
X1716535Y639261D01*
X1706935Y637352D01*
X1698795Y631913D01*
X1694905Y626091D01*
X1688166D01*
X1684276Y631913D01*
X1676136Y637352D01*
X1666535Y639261D01*
X1656935Y637352D01*
X1648795Y631913D01*
X1644905Y626091D01*
X1638166D01*
X1634276Y631913D01*
X1626136Y637352D01*
X1616535Y639261D01*
X1606935Y637352D01*
X1598795Y631913D01*
X1594905Y626091D01*
X1588166D01*
X1584276Y631913D01*
X1576136Y637352D01*
X1566535Y639261D01*
X1556935Y637352D01*
X1548795Y631913D01*
X1546768Y628879D01*
X1544105Y628530D01*
X1539755Y629183D01*
X1536191Y633828D01*
X1530434Y638246D01*
X1523730Y641023D01*
X1520472Y641452D01*
Y614173D01*
Y586895D01*
X1523730Y587323D01*
X1530434Y590100D01*
X1536191Y594518D01*
X1539755Y599163D01*
X1544105Y599816D01*
X1546768Y599467D01*
X1548795Y596433D01*
X1556935Y590994D01*
X1566535Y589085D01*
X1576136Y590994D01*
X1584276Y596433D01*
X1588166Y602255D01*
X1594905D01*
X1598795Y596433D01*
X1606935Y590994D01*
X1612291Y589929D01*
X1614266Y583419D01*
X1406565Y375718D01*
X1404661Y372869D01*
X1403267Y370782D01*
X1402109Y364960D01*
Y339308D01*
X1396109Y333887D01*
X1395569Y333916D01*
X1394206Y335956D01*
X1393394Y337171D01*
X1390625Y339941D01*
X1390624Y339941D01*
X1390624Y339941D01*
X1388601Y341294D01*
X1387369Y342116D01*
X1385432Y347122D01*
X1386396Y351969D01*
X1385432Y356815D01*
X1382686Y360924D01*
X1378578Y363669D01*
X1373731Y364633D01*
X1368885Y363669D01*
X1364776Y360924D01*
X1362031Y356815D01*
X1361067Y351969D01*
X1362031Y347122D01*
X1364776Y343013D01*
X1362595Y337255D01*
X1362511Y337171D01*
X1360336Y333915D01*
X1358838Y330296D01*
X1358838Y330296D01*
X1358837Y330295D01*
X1358508Y328636D01*
X1358074Y326456D01*
X1358074Y326455D01*
X1358074Y326455D01*
X1358075Y324497D01*
Y247244D01*
X1261942D01*
X1260947Y248447D01*
X1262117Y256446D01*
X1262200Y256501D01*
X1265939Y262098D01*
X1267253Y268701D01*
X1265939Y275303D01*
X1262200Y280900D01*
X1260816Y281825D01*
Y289041D01*
X1262200Y289966D01*
X1265939Y295563D01*
X1267253Y302165D01*
X1265939Y308768D01*
X1262200Y314365D01*
X1256602Y318105D01*
X1250000Y319418D01*
X1243398Y318105D01*
X1237800Y314365D01*
X1234061Y308768D01*
X1232747Y302165D01*
X1234061Y295563D01*
X1237800Y289966D01*
X1239184Y289041D01*
Y281825D01*
X1237800Y280900D01*
X1234061Y275303D01*
X1232747Y268701D01*
X1234061Y262098D01*
X1237800Y256501D01*
X1237883Y256446D01*
X1239053Y248447D01*
X1238058Y247244D01*
X1191751D01*
X1188543Y253244D01*
X1189104Y254083D01*
X1190250Y259844D01*
X1189104Y265604D01*
X1185841Y270488D01*
X1180957Y273751D01*
X1175197Y274897D01*
X1169436Y273751D01*
X1164553Y270488D01*
X1161290Y265604D01*
X1160144Y259844D01*
X1161290Y254083D01*
X1161850Y253244D01*
X1158643Y247244D01*
X1062128D01*
Y117113D01*
X1056127Y112954D01*
X1052724Y113631D01*
X1046122Y112317D01*
X1040525Y108578D01*
X1036785Y102980D01*
X1035472Y96378D01*
X1036785Y89775D01*
X1040525Y84178D01*
X1046122Y80438D01*
X1052724Y79125D01*
X1056127Y79802D01*
X1062128Y75643D01*
Y40212D01*
X1059410Y38639D01*
X1056128Y37732D01*
X1051327Y40939D01*
X1044724Y42253D01*
X1038122Y40939D01*
X1032525Y37200D01*
X1028785Y31602D01*
X1027472Y25000D01*
X1028785Y18398D01*
X1030364Y16035D01*
X1027157Y10035D01*
X1013294D01*
X1010087Y16035D01*
X1010664Y16898D01*
X1011977Y23500D01*
X1010664Y30102D01*
X1006924Y35700D01*
X1001327Y39439D01*
X994724Y40753D01*
X988122Y39439D01*
X982525Y35700D01*
X978785Y30102D01*
X977471Y23500D01*
X978785Y16898D01*
X979361Y16035D01*
X976154Y10035D01*
X952664D01*
X949457Y16035D01*
X950034Y16898D01*
X951347Y23500D01*
X950034Y30102D01*
X946294Y35700D01*
X940697Y39439D01*
X934094Y40753D01*
X927492Y39439D01*
X921895Y35700D01*
X918155Y30102D01*
X916842Y23500D01*
X918155Y16898D01*
X918731Y16035D01*
X915524Y10035D01*
X902664D01*
X899457Y16035D01*
X900034Y16898D01*
X901347Y23500D01*
X900034Y30102D01*
X896294Y35700D01*
X890697Y39439D01*
X884094Y40753D01*
X877492Y39439D01*
X871895Y35700D01*
X868155Y30102D01*
X866842Y23500D01*
X868155Y16898D01*
X868731Y16035D01*
X865524Y10035D01*
X852664D01*
X849457Y16035D01*
X850034Y16898D01*
X851347Y23500D01*
X850034Y30102D01*
X846294Y35700D01*
X840697Y39439D01*
X834094Y40753D01*
X827492Y39439D01*
X821895Y35700D01*
X818155Y30102D01*
X816842Y23500D01*
X818155Y16898D01*
X818731Y16035D01*
X815524Y10035D01*
X802664D01*
X799457Y16035D01*
X800034Y16898D01*
X801347Y23500D01*
X800034Y30102D01*
X796294Y35700D01*
X790697Y39439D01*
X784094Y40753D01*
X777492Y39439D01*
X771895Y35700D01*
X768155Y30102D01*
X766842Y23500D01*
X768155Y16898D01*
X768731Y16035D01*
X765524Y10035D01*
X752664D01*
X749457Y16035D01*
X750034Y16898D01*
X751347Y23500D01*
X750034Y30102D01*
X746294Y35700D01*
X740697Y39439D01*
X734094Y40753D01*
X727492Y39439D01*
X721895Y35700D01*
X718155Y30102D01*
X716842Y23500D01*
X718155Y16898D01*
X718731Y16035D01*
X715524Y10035D01*
X700907D01*
X697700Y16035D01*
X698276Y16898D01*
X699590Y23500D01*
X698276Y30102D01*
X694537Y35700D01*
X688939Y39439D01*
X682337Y40753D01*
X675735Y39439D01*
X670137Y35700D01*
X666397Y30102D01*
X665084Y23500D01*
X666397Y16898D01*
X666974Y16035D01*
X663767Y10035D01*
X10035D01*
Y777367D01*
X1002726Y777367D01*
D02*
G37*
%LPC*%
G36*
X282427Y768042D02*
X276667Y766897D01*
X271783Y763634D01*
X268520Y758750D01*
X267374Y752989D01*
X268520Y747229D01*
X271783Y742345D01*
X276667Y739082D01*
X282427Y737936D01*
X288188Y739082D01*
X293071Y742345D01*
X296334Y747229D01*
X297480Y752989D01*
X296334Y758750D01*
X293071Y763634D01*
X288188Y766897D01*
X282427Y768042D01*
D02*
G37*
G36*
X500766Y759729D02*
X495005Y758583D01*
X490122Y755320D01*
X486858Y750436D01*
X485713Y744676D01*
X486858Y738915D01*
X490122Y734032D01*
X495005Y730769D01*
X500766Y729623D01*
X506526Y730769D01*
X511410Y734032D01*
X514673Y738915D01*
X515819Y744676D01*
X514673Y750436D01*
X511410Y755320D01*
X506526Y758583D01*
X500766Y759729D01*
D02*
G37*
G36*
X1378916Y718167D02*
X1375000Y717971D01*
X1371203Y717016D01*
X1367660Y715337D01*
X1364517Y713001D01*
X1364198Y712648D01*
X1359741Y710785D01*
X1356025Y711982D01*
X1353674Y713553D01*
X1347913Y714699D01*
X1342153Y713553D01*
X1337269Y710290D01*
X1334006Y705406D01*
X1332860Y699646D01*
X1334006Y693885D01*
X1337269Y689001D01*
X1337740Y688687D01*
Y681471D01*
X1336679Y680762D01*
X1333416Y675879D01*
X1332270Y670118D01*
X1333416Y664357D01*
X1336679Y659474D01*
X1341562Y656211D01*
X1347323Y655065D01*
X1352074Y656010D01*
X1355904Y654017D01*
X1358074Y652329D01*
X1358074Y433072D01*
X1358074Y431114D01*
X1358074Y431114D01*
X1358074Y431113D01*
X1358453Y429205D01*
X1358837Y427274D01*
X1358837Y427274D01*
X1358837Y427273D01*
X1360335Y423655D01*
X1360335Y423655D01*
X1360336Y423654D01*
X1361428Y422019D01*
X1362510Y420399D01*
X1362511Y420399D01*
X1362511Y420399D01*
X1364068Y418842D01*
X1364785Y412105D01*
X1364252Y411308D01*
X1362040Y407996D01*
X1361076Y403150D01*
X1362040Y398303D01*
X1364785Y394194D01*
X1368894Y391449D01*
X1373740Y390485D01*
X1378587Y391449D01*
X1382695Y394194D01*
X1385441Y398303D01*
X1386405Y403150D01*
X1385441Y407996D01*
X1385246Y408287D01*
X1385191Y408498D01*
X1387369Y415453D01*
X1387369Y415454D01*
X1390624Y417629D01*
X1393393Y420399D01*
X1395568Y423654D01*
X1397067Y427273D01*
X1397830Y431113D01*
X1397830Y433068D01*
X1397830Y433070D01*
X1397831Y698695D01*
X1397781Y698945D01*
X1397818Y699196D01*
X1397720Y701154D01*
X1396766Y704952D01*
X1395086Y708495D01*
X1392751Y711638D01*
X1389843Y714269D01*
X1386483Y716279D01*
X1382790Y717596D01*
X1382219Y717681D01*
X1378916Y718167D01*
D02*
G37*
G36*
X431851Y737676D02*
X426090Y736530D01*
X421207Y733267D01*
X417943Y728383D01*
X416798Y722623D01*
X417943Y716862D01*
X421207Y711979D01*
X426090Y708716D01*
X431851Y707570D01*
X437611Y708716D01*
X442495Y711979D01*
X445758Y716862D01*
X446904Y722623D01*
X445758Y728383D01*
X442495Y733267D01*
X437611Y736530D01*
X431851Y737676D01*
D02*
G37*
G36*
X1716142Y758711D02*
X1708690Y757730D01*
X1701747Y754854D01*
X1695784Y750279D01*
X1691209Y744316D01*
X1688333Y737373D01*
X1687352Y729921D01*
X1688333Y722470D01*
X1691209Y715527D01*
X1695784Y709564D01*
X1701747Y704989D01*
X1708690Y702113D01*
X1716142Y701132D01*
X1723593Y702113D01*
X1730536Y704989D01*
X1736499Y709564D01*
X1741074Y715527D01*
X1743950Y722470D01*
X1744931Y729921D01*
X1743950Y737373D01*
X1741074Y744316D01*
X1736499Y750279D01*
X1730536Y754854D01*
X1723593Y757730D01*
X1716142Y758711D01*
D02*
G37*
G36*
X123955Y708984D02*
X118195Y707839D01*
X113311Y704576D01*
X110048Y699692D01*
X108902Y693931D01*
X110048Y688171D01*
X113311Y683287D01*
X118195Y680024D01*
X123955Y678878D01*
X129715Y680024D01*
X134599Y683287D01*
X137862Y688171D01*
X139008Y693931D01*
X137862Y699692D01*
X134599Y704576D01*
X129715Y707839D01*
X123955Y708984D01*
D02*
G37*
G36*
X628160Y697311D02*
X622399Y696166D01*
X617516Y692903D01*
X614253Y688019D01*
X613107Y682258D01*
X614253Y676498D01*
X617516Y671614D01*
X622399Y668351D01*
X628160Y667205D01*
X633920Y668351D01*
X638804Y671614D01*
X642067Y676498D01*
X643213Y682258D01*
X642067Y688019D01*
X638804Y692903D01*
X633920Y696166D01*
X628160Y697311D01*
D02*
G37*
G36*
X472197Y670415D02*
X466437Y669269D01*
X461553Y666006D01*
X458290Y661123D01*
X457144Y655362D01*
X458290Y649602D01*
X461553Y644718D01*
X458310Y639669D01*
X456795Y637403D01*
X453841Y636811D01*
X453666Y636807D01*
X450214Y637275D01*
X447652Y641109D01*
X442768Y644372D01*
X437008Y645518D01*
X431247Y644372D01*
X426364Y641109D01*
X423101Y636225D01*
X421955Y630465D01*
X423101Y624704D01*
X426364Y619821D01*
X431247Y616557D01*
X437008Y615412D01*
X442768Y616557D01*
X447652Y619821D01*
X450291Y623769D01*
X453245Y624361D01*
X453419Y624365D01*
X456872Y623897D01*
X459434Y620063D01*
X464317Y616800D01*
X470078Y615654D01*
X475838Y616800D01*
X480722Y620063D01*
X483985Y624947D01*
X485131Y630707D01*
X483985Y636468D01*
X483154Y637711D01*
X482841Y644718D01*
X486104Y649602D01*
X487250Y655362D01*
X486104Y661123D01*
X482841Y666006D01*
X477958Y669269D01*
X472197Y670415D01*
D02*
G37*
G36*
X1893701Y682530D02*
X1884868Y680773D01*
X1877380Y675770D01*
X1872377Y668282D01*
X1870620Y659449D01*
X1872377Y650616D01*
X1877380Y643128D01*
X1884868Y638124D01*
X1893701Y636367D01*
X1902534Y638124D01*
X1910022Y643128D01*
X1915025Y650616D01*
X1916782Y659449D01*
X1915025Y668282D01*
X1910022Y675770D01*
X1902534Y680773D01*
X1893701Y682530D01*
D02*
G37*
G36*
X1512598Y641452D02*
X1509341Y641023D01*
X1502637Y638246D01*
X1496957Y633887D01*
X1496585Y633935D01*
X1490957Y635965D01*
Y638594D01*
X1442114D01*
Y589752D01*
X1490957D01*
Y592381D01*
X1496585Y594412D01*
X1496957Y594459D01*
X1502637Y590100D01*
X1509341Y587323D01*
X1512598Y586895D01*
Y614173D01*
Y641452D01*
D02*
G37*
G36*
X922047D02*
X918790Y641023D01*
X912086Y638246D01*
X906405Y633887D01*
X906034Y633935D01*
X900405Y635965D01*
Y638594D01*
X851563D01*
Y589752D01*
X900405D01*
Y592381D01*
X906034Y594412D01*
X906405Y594459D01*
X912086Y590100D01*
X918790Y587323D01*
X922047Y586895D01*
Y614173D01*
Y641452D01*
D02*
G37*
G36*
X376432Y655968D02*
X370671Y654822D01*
X365787Y651559D01*
X362524Y646675D01*
X361378Y640915D01*
X362524Y635154D01*
X365787Y630271D01*
X370671Y627008D01*
X376432Y625862D01*
X382192Y627008D01*
X387076Y630271D01*
X390339Y635154D01*
X391485Y640915D01*
X390339Y646675D01*
X387076Y651559D01*
X382192Y654822D01*
X376432Y655968D01*
D02*
G37*
G36*
X270616Y644021D02*
X264855Y642875D01*
X259972Y639612D01*
X256709Y634728D01*
X255563Y628968D01*
X256709Y623207D01*
X259972Y618323D01*
X264855Y615060D01*
X270616Y613915D01*
X276376Y615060D01*
X281260Y618323D01*
X284523Y623207D01*
X285669Y628968D01*
X284523Y634728D01*
X281260Y639612D01*
X276376Y642875D01*
X270616Y644021D01*
D02*
G37*
G36*
X40354Y627615D02*
X34594Y626469D01*
X29710Y623206D01*
X26447Y618322D01*
X25301Y612562D01*
X26447Y606801D01*
X29710Y601918D01*
X34594Y598655D01*
X40354Y597509D01*
X46115Y598655D01*
X50998Y601918D01*
X54262Y606801D01*
X55407Y612562D01*
X54262Y618322D01*
X50998Y623206D01*
X46115Y626469D01*
X40354Y627615D01*
D02*
G37*
G36*
X1327752Y602310D02*
X1321991Y601164D01*
X1317108Y597901D01*
X1313845Y593017D01*
X1312699Y587257D01*
X1313845Y581496D01*
X1317108Y576613D01*
X1321991Y573350D01*
X1327752Y572204D01*
X1333512Y573350D01*
X1338396Y576613D01*
X1341659Y581496D01*
X1342805Y587257D01*
X1341659Y593017D01*
X1338396Y597901D01*
X1333512Y601164D01*
X1327752Y602310D01*
D02*
G37*
G36*
X280514Y586986D02*
X274753Y585841D01*
X269870Y582577D01*
X266607Y577694D01*
X265461Y571933D01*
X266607Y566173D01*
X269870Y561289D01*
X274753Y558026D01*
X280514Y556880D01*
X285867Y551827D01*
X286093Y550690D01*
X289356Y545807D01*
X294240Y542543D01*
X300000Y541398D01*
X305760Y542543D01*
X310644Y545807D01*
X313907Y550690D01*
X315053Y556451D01*
X313907Y562211D01*
X310644Y567095D01*
X305760Y570358D01*
X300000Y571504D01*
X294647Y576557D01*
X294421Y577694D01*
X291158Y582577D01*
X286274Y585841D01*
X280514Y586986D01*
D02*
G37*
G36*
X1893701Y564420D02*
X1884868Y562663D01*
X1877380Y557659D01*
X1872377Y550171D01*
X1870620Y541338D01*
X1872377Y532506D01*
X1877380Y525018D01*
X1884868Y520014D01*
X1893701Y518257D01*
X1902534Y520014D01*
X1910022Y525018D01*
X1915025Y532506D01*
X1916782Y541338D01*
X1915025Y550171D01*
X1910022Y557659D01*
X1902534Y562663D01*
X1893701Y564420D01*
D02*
G37*
G36*
X929921Y641452D02*
Y614173D01*
Y586895D01*
X933178Y587323D01*
X939883Y590100D01*
X945639Y594518D01*
X949204Y599163D01*
X953553Y599816D01*
X956217Y599467D01*
X958244Y596433D01*
X966383Y590994D01*
X975984Y589085D01*
X981659Y590213D01*
X989393Y582479D01*
Y309238D01*
X902770Y222614D01*
X611014D01*
X607557Y221927D01*
X604627Y219969D01*
X601963Y217304D01*
X598613Y217751D01*
X595132Y218959D01*
X592415Y223025D01*
X587532Y226288D01*
X581771Y227434D01*
X576011Y226288D01*
X571127Y223025D01*
X567864Y218142D01*
X566718Y212381D01*
X567791Y206988D01*
X568252Y200962D01*
X565989Y199450D01*
X563368Y197699D01*
X560105Y192815D01*
X558960Y187055D01*
X559894Y182355D01*
X557822Y178414D01*
X556190Y176355D01*
X547244D01*
X543788Y175667D01*
X540857Y173709D01*
X531429Y164281D01*
X529528Y164659D01*
X523767Y163513D01*
X518883Y160250D01*
X515620Y155367D01*
X514475Y149606D01*
X515620Y143846D01*
X518883Y138962D01*
X523767Y135699D01*
X529528Y134553D01*
X535288Y135699D01*
X540172Y138962D01*
X543435Y143846D01*
X544581Y149606D01*
X544202Y151508D01*
X550985Y158291D01*
X563757D01*
X564018Y158095D01*
X566824Y152291D01*
X565476Y150591D01*
X561169Y149734D01*
X556285Y146471D01*
X553022Y141587D01*
X551876Y135827D01*
X553022Y130066D01*
X556285Y125183D01*
X561169Y121919D01*
X566929Y120774D01*
X572690Y121919D01*
X577573Y125183D01*
X580836Y130066D01*
X581982Y135827D01*
X581604Y137729D01*
X589371Y145496D01*
X590806D01*
X596534Y145115D01*
X597847Y138513D01*
X601587Y132916D01*
X607184Y129176D01*
X613786Y127862D01*
X620389Y129176D01*
X625986Y132916D01*
X629726Y138513D01*
X631039Y145115D01*
X629726Y151718D01*
X628866Y153005D01*
X626134Y157435D01*
X628884Y159685D01*
X655460Y186260D01*
X726516D01*
X729723Y180260D01*
X729401Y179777D01*
X728255Y174017D01*
X729401Y168256D01*
X732664Y163373D01*
X737548Y160110D01*
X743308Y158964D01*
X749069Y160110D01*
X753952Y163373D01*
X755810Y166153D01*
X762080Y166769D01*
X762751Y166564D01*
X763269Y165789D01*
X768153Y162526D01*
X773913Y161380D01*
X779674Y162526D01*
X784557Y165789D01*
X787820Y170673D01*
X788966Y176433D01*
X788205Y180259D01*
X791770Y186260D01*
X906315D01*
X909771Y186947D01*
X912701Y188905D01*
X1017607Y293810D01*
X1019565Y296740D01*
X1020252Y300197D01*
Y584515D01*
X1025687Y589144D01*
X1025984Y589085D01*
X1035585Y590994D01*
X1043724Y596433D01*
X1047614Y602255D01*
X1054354D01*
X1058244Y596433D01*
X1066383Y590994D01*
X1075984Y589085D01*
X1085585Y590994D01*
X1093724Y596433D01*
X1097614Y602255D01*
X1104354D01*
X1108244Y596433D01*
X1108419Y596316D01*
Y552904D01*
X1106021Y551065D01*
X1101446Y545102D01*
X1098570Y538159D01*
X1097589Y530707D01*
X1098570Y523256D01*
X1101446Y516313D01*
X1106021Y510350D01*
X1111984Y505775D01*
X1118927Y502899D01*
X1126378Y501918D01*
X1133830Y502899D01*
X1140773Y505775D01*
X1146736Y510350D01*
X1151311Y516313D01*
X1154187Y523256D01*
X1155168Y530707D01*
X1154187Y538159D01*
X1151311Y545102D01*
X1146736Y551065D01*
X1143944Y553207D01*
Y596761D01*
X1149163Y604572D01*
X1151073Y614173D01*
X1149163Y623774D01*
X1143724Y631913D01*
X1135585Y637352D01*
X1125984Y639261D01*
X1116383Y637352D01*
X1108244Y631913D01*
X1104354Y626091D01*
X1097614D01*
X1093724Y631913D01*
X1085585Y637352D01*
X1075984Y639261D01*
X1066383Y637352D01*
X1058244Y631913D01*
X1054354Y626091D01*
X1047614D01*
X1043724Y631913D01*
X1035585Y637352D01*
X1025984Y639261D01*
X1016383Y637352D01*
X1008244Y631913D01*
X1004354Y626091D01*
X997615D01*
X993724Y631913D01*
X985585Y637352D01*
X975984Y639261D01*
X966383Y637352D01*
X958244Y631913D01*
X956217Y628879D01*
X953553Y628530D01*
X949204Y629183D01*
X945639Y633828D01*
X939883Y638246D01*
X933178Y641023D01*
X929921Y641452D01*
D02*
G37*
G36*
X1043308Y518595D02*
X1037547Y517449D01*
X1032664Y514186D01*
X1029400Y509303D01*
X1028255Y503542D01*
X1029400Y497782D01*
X1032664Y492898D01*
X1037547Y489635D01*
X1043308Y488489D01*
X1049068Y489635D01*
X1053952Y492898D01*
X1057215Y497782D01*
X1058361Y503542D01*
X1057215Y509303D01*
X1053952Y514186D01*
X1049068Y517449D01*
X1043308Y518595D01*
D02*
G37*
G36*
X743779Y524563D02*
X736790Y523173D01*
X730865Y519214D01*
X726905Y513288D01*
X725515Y506299D01*
X726905Y499310D01*
X730865Y493384D01*
X736790Y489425D01*
X743779Y488035D01*
X750769Y489425D01*
X756694Y493384D01*
X760653Y499310D01*
X762044Y506299D01*
X760653Y513288D01*
X756694Y519214D01*
X750769Y523173D01*
X743779Y524563D01*
D02*
G37*
G36*
X696535D02*
X689546Y523173D01*
X683620Y519214D01*
X679661Y513288D01*
X678271Y506299D01*
X679661Y499310D01*
X683620Y493384D01*
X689546Y489425D01*
X696535Y488035D01*
X703525Y489425D01*
X709450Y493384D01*
X713409Y499310D01*
X714800Y506299D01*
X713409Y513288D01*
X709450Y519214D01*
X703525Y523173D01*
X696535Y524563D01*
D02*
G37*
G36*
X649291D02*
X642302Y523173D01*
X636376Y519214D01*
X632417Y513288D01*
X631027Y506299D01*
X632417Y499310D01*
X636376Y493384D01*
X642302Y489425D01*
X649291Y488035D01*
X656281Y489425D01*
X662206Y493384D01*
X666165Y499310D01*
X667556Y506299D01*
X666165Y513288D01*
X662206Y519214D01*
X656281Y523173D01*
X649291Y524563D01*
D02*
G37*
G36*
X1625000Y514340D02*
X1618397Y513026D01*
X1612800Y509286D01*
X1609060Y503689D01*
X1607747Y497087D01*
X1609060Y490484D01*
X1612800Y484887D01*
X1618397Y481147D01*
X1625000Y479834D01*
X1631602Y481147D01*
X1637199Y484887D01*
X1640939Y490484D01*
X1642253Y497087D01*
X1640939Y503689D01*
X1637199Y509286D01*
X1631602Y513026D01*
X1625000Y514340D01*
D02*
G37*
G36*
X831913Y485053D02*
X826153Y483907D01*
X821269Y480644D01*
X818006Y475760D01*
X816860Y470000D01*
X818006Y464239D01*
X821269Y459356D01*
X826153Y456093D01*
X831913Y454947D01*
X837674Y456093D01*
X842557Y459356D01*
X845820Y464239D01*
X846966Y470000D01*
X845820Y475760D01*
X842557Y480644D01*
X837674Y483907D01*
X831913Y485053D01*
D02*
G37*
G36*
X743779Y477319D02*
X736790Y475929D01*
X730865Y471970D01*
X726905Y466045D01*
X725515Y459055D01*
X726905Y452066D01*
X730865Y446140D01*
X736790Y442181D01*
X743779Y440791D01*
X750769Y442181D01*
X756694Y446140D01*
X760653Y452066D01*
X762044Y459055D01*
X760653Y466045D01*
X756694Y471970D01*
X750769Y475929D01*
X743779Y477319D01*
D02*
G37*
G36*
X696535D02*
X689546Y475929D01*
X683620Y471970D01*
X679661Y466045D01*
X678271Y459055D01*
X679661Y452066D01*
X683620Y446140D01*
X689546Y442181D01*
X696535Y440791D01*
X703525Y442181D01*
X709450Y446140D01*
X713409Y452066D01*
X714800Y459055D01*
X713409Y466045D01*
X709450Y471970D01*
X703525Y475929D01*
X696535Y477319D01*
D02*
G37*
G36*
X649291D02*
X642302Y475929D01*
X636376Y471970D01*
X632417Y466045D01*
X631027Y459055D01*
X632417Y452066D01*
X636376Y446140D01*
X642302Y442181D01*
X649291Y440791D01*
X656281Y442181D01*
X662206Y446140D01*
X666165Y452066D01*
X667556Y459055D01*
X666165Y466045D01*
X662206Y471970D01*
X656281Y475929D01*
X649291Y477319D01*
D02*
G37*
G36*
X602047D02*
X595058Y475929D01*
X589132Y471970D01*
X585173Y466045D01*
X583783Y459055D01*
X585173Y452066D01*
X589132Y446140D01*
X595058Y442181D01*
X602047Y440791D01*
X609037Y442181D01*
X614962Y446140D01*
X618921Y452066D01*
X620311Y459055D01*
X618921Y466045D01*
X614962Y471970D01*
X609037Y475929D01*
X602047Y477319D01*
D02*
G37*
G36*
X1065869Y429134D02*
X1060108Y427988D01*
X1055225Y424725D01*
X1051961Y419841D01*
X1050816Y414081D01*
X1051961Y408320D01*
X1055225Y403437D01*
X1060108Y400173D01*
X1065869Y399028D01*
X1071629Y400173D01*
X1076513Y403437D01*
X1079776Y408320D01*
X1080922Y414081D01*
X1079776Y419841D01*
X1076513Y424725D01*
X1071629Y427988D01*
X1065869Y429134D01*
D02*
G37*
G36*
X743779Y430075D02*
X736790Y428685D01*
X730865Y424726D01*
X726905Y418800D01*
X725515Y411811D01*
X726905Y404822D01*
X730865Y398896D01*
X736790Y394937D01*
X743779Y393547D01*
X750769Y394937D01*
X756694Y398896D01*
X760653Y404822D01*
X762044Y411811D01*
X760653Y418800D01*
X756694Y424726D01*
X750769Y428685D01*
X743779Y430075D01*
D02*
G37*
G36*
X696535D02*
X689546Y428685D01*
X683620Y424726D01*
X679661Y418800D01*
X678271Y411811D01*
X679661Y404822D01*
X683620Y398896D01*
X689546Y394937D01*
X696535Y393547D01*
X703525Y394937D01*
X709450Y398896D01*
X713409Y404822D01*
X714800Y411811D01*
X713409Y418800D01*
X709450Y424726D01*
X703525Y428685D01*
X696535Y430075D01*
D02*
G37*
G36*
X649291D02*
X642302Y428685D01*
X636376Y424726D01*
X632417Y418800D01*
X631027Y411811D01*
X632417Y404822D01*
X636376Y398896D01*
X642302Y394937D01*
X649291Y393547D01*
X656281Y394937D01*
X662206Y398896D01*
X666165Y404822D01*
X667556Y411811D01*
X666165Y418800D01*
X662206Y424726D01*
X656281Y428685D01*
X649291Y430075D01*
D02*
G37*
G36*
X602047D02*
X595058Y428685D01*
X589132Y424726D01*
X585173Y418800D01*
X583783Y411811D01*
X585173Y404822D01*
X589132Y398896D01*
X595058Y394937D01*
X602047Y393547D01*
X609037Y394937D01*
X614962Y398896D01*
X618921Y404822D01*
X620311Y411811D01*
X618921Y418800D01*
X614962Y424726D01*
X609037Y428685D01*
X602047Y430075D01*
D02*
G37*
G36*
X1169882Y662689D02*
X1164122Y661544D01*
X1159238Y658280D01*
X1155975Y653397D01*
X1154829Y647636D01*
X1155975Y641876D01*
X1159238Y636992D01*
X1161806Y635277D01*
Y465960D01*
X1087674Y391829D01*
X1084646Y392431D01*
X1078885Y391285D01*
X1074002Y388022D01*
X1070738Y383138D01*
X1069593Y377378D01*
X1070738Y371617D01*
X1074002Y366734D01*
X1078885Y363471D01*
X1084646Y362325D01*
X1090406Y363471D01*
X1095290Y366734D01*
X1098553Y371617D01*
X1099699Y377378D01*
X1099096Y380407D01*
X1175593Y456904D01*
X1177344Y459524D01*
X1177959Y462615D01*
Y635277D01*
X1180526Y636992D01*
X1183789Y641876D01*
X1184935Y647636D01*
X1183789Y653397D01*
X1180526Y658280D01*
X1175643Y661544D01*
X1169882Y662689D01*
D02*
G37*
G36*
X458617Y419600D02*
X452856Y418454D01*
X447973Y415191D01*
X444710Y410308D01*
X443564Y404547D01*
X444710Y398787D01*
X447973Y393903D01*
X452856Y390640D01*
X458617Y389494D01*
X464377Y390640D01*
X469261Y393903D01*
X472524Y398787D01*
X473670Y404547D01*
X472524Y410308D01*
X469261Y415191D01*
X464377Y418454D01*
X458617Y419600D01*
D02*
G37*
G36*
X389716Y412710D02*
X383955Y411564D01*
X379072Y408301D01*
X375809Y403418D01*
X374663Y397657D01*
X375809Y391897D01*
X379072Y387013D01*
X383955Y383750D01*
X389716Y382604D01*
X395476Y383750D01*
X400360Y387013D01*
X403623Y391897D01*
X404769Y397657D01*
X403623Y403418D01*
X400360Y408301D01*
X395476Y411564D01*
X389716Y412710D01*
D02*
G37*
G36*
X385491Y375832D02*
X379730Y374686D01*
X374846Y371423D01*
X371583Y366539D01*
X370438Y360779D01*
X371583Y355018D01*
X374846Y350134D01*
X379730Y346871D01*
X385491Y345726D01*
X391251Y346871D01*
X396135Y350134D01*
X399398Y355018D01*
X400544Y360779D01*
X399398Y366539D01*
X396135Y371423D01*
X391251Y374686D01*
X385491Y375832D01*
D02*
G37*
G36*
X460586Y372354D02*
X454825Y371208D01*
X449942Y367945D01*
X446678Y363061D01*
X445533Y357301D01*
X446678Y351540D01*
X449942Y346657D01*
X454825Y343394D01*
X460586Y342248D01*
X466346Y343394D01*
X471230Y346657D01*
X474493Y351540D01*
X475639Y357301D01*
X474493Y363061D01*
X471230Y367945D01*
X466346Y371208D01*
X460586Y372354D01*
D02*
G37*
G36*
X335041Y367808D02*
X329281Y366662D01*
X324397Y363399D01*
X321134Y358516D01*
X319988Y352755D01*
X321134Y346995D01*
X324397Y342111D01*
X329281Y338848D01*
X335041Y337702D01*
X340802Y338848D01*
X345685Y342111D01*
X348949Y346995D01*
X350094Y352755D01*
X348949Y358516D01*
X345685Y363399D01*
X340802Y366662D01*
X335041Y367808D01*
D02*
G37*
G36*
X1200745Y383256D02*
X1194985Y382110D01*
X1190101Y378847D01*
X1186838Y373963D01*
X1185692Y368203D01*
X1180497Y363673D01*
X1174737Y362527D01*
X1169853Y359264D01*
X1166590Y354380D01*
X1165444Y348620D01*
X1166590Y342860D01*
X1169853Y337976D01*
X1174737Y334713D01*
X1180497Y333567D01*
X1186258Y334713D01*
X1191141Y337976D01*
X1194404Y342860D01*
X1195550Y348620D01*
X1200745Y353150D01*
X1206506Y354296D01*
X1211389Y357559D01*
X1214652Y362442D01*
X1215798Y368203D01*
X1214652Y373963D01*
X1211389Y378847D01*
X1206506Y382110D01*
X1200745Y383256D01*
D02*
G37*
G36*
X1661417Y324340D02*
X1654814Y323026D01*
X1649217Y319286D01*
X1645477Y313689D01*
X1644791Y310238D01*
X1638673D01*
X1637987Y313689D01*
X1634247Y319286D01*
X1628650Y323026D01*
X1622047Y324339D01*
X1615445Y323026D01*
X1609848Y319286D01*
X1606108Y313689D01*
X1604794Y307087D01*
X1606108Y300484D01*
X1609848Y294887D01*
X1615445Y291147D01*
X1618897Y290460D01*
Y284343D01*
X1615445Y283656D01*
X1609848Y279916D01*
X1606108Y274319D01*
X1604794Y267716D01*
X1606108Y261114D01*
X1609848Y255517D01*
X1615445Y251777D01*
X1622047Y250464D01*
X1628650Y251777D01*
X1634247Y255517D01*
X1637987Y261114D01*
X1638673Y264565D01*
X1644791D01*
X1645477Y261114D01*
X1649217Y255517D01*
X1654814Y251777D01*
X1661417Y250464D01*
X1668019Y251777D01*
X1673616Y255517D01*
X1677356Y261114D01*
X1678669Y267717D01*
X1677356Y274319D01*
X1673616Y279916D01*
X1668019Y283656D01*
X1664567Y284343D01*
Y290461D01*
X1668019Y291147D01*
X1673616Y294887D01*
X1677356Y300484D01*
X1678669Y307087D01*
X1677356Y313689D01*
X1673616Y319286D01*
X1668019Y323026D01*
X1661417Y324340D01*
D02*
G37*
G36*
X1499258Y403263D02*
X1493497Y402117D01*
X1488614Y398854D01*
X1485351Y393971D01*
X1484205Y388210D01*
X1485351Y382450D01*
X1488614Y377566D01*
X1493497Y374303D01*
X1499258Y373157D01*
X1499881Y373281D01*
X1524883Y348279D01*
X1528165Y346087D01*
X1532036Y345317D01*
X1532036Y345317D01*
X1860456D01*
X1879165Y326608D01*
X1878746Y324500D01*
X1879892Y318739D01*
X1883155Y313856D01*
X1888039Y310593D01*
X1893799Y309447D01*
X1899560Y310593D01*
X1904443Y313856D01*
X1907706Y318739D01*
X1908852Y324500D01*
X1907706Y330260D01*
X1904443Y335144D01*
X1899560Y338407D01*
X1895088Y339297D01*
X1871799Y362585D01*
X1868518Y364778D01*
X1864647Y365548D01*
X1681359D01*
X1677710Y371548D01*
X1678436Y375196D01*
X1677290Y380957D01*
X1674027Y385840D01*
X1669143Y389103D01*
X1663382Y390249D01*
X1657622Y389103D01*
X1652738Y385840D01*
X1649475Y380957D01*
X1648330Y375196D01*
X1649055Y371548D01*
X1645406Y365548D01*
X1536226D01*
X1514187Y387587D01*
X1514311Y388210D01*
X1513165Y393971D01*
X1509902Y398854D01*
X1505018Y402117D01*
X1499258Y403263D01*
D02*
G37*
G36*
X38386Y665801D02*
X32625Y664655D01*
X27742Y661392D01*
X24479Y656508D01*
X23333Y650748D01*
X24479Y644987D01*
X27742Y640104D01*
X32625Y636841D01*
X38386Y635695D01*
X44146Y636841D01*
X49030Y640104D01*
X50107Y641716D01*
X98336D01*
X147326Y592726D01*
X145109Y586458D01*
X142005Y585841D01*
X137122Y582577D01*
X133858Y577694D01*
X132713Y571933D01*
X133858Y566173D01*
X137122Y561289D01*
X142005Y558026D01*
X147766Y556880D01*
X153526Y558026D01*
X158410Y561289D01*
X161673Y566173D01*
X162290Y569276D01*
X168558Y571494D01*
X183378Y556674D01*
X182782Y553676D01*
X183927Y547915D01*
X184848Y546538D01*
X126330Y488020D01*
X124372Y485090D01*
X123685Y481633D01*
Y392679D01*
X124372Y389222D01*
X126330Y386292D01*
X241627Y270995D01*
X241995Y270749D01*
X240024Y265448D01*
X239756Y265029D01*
X234117Y263907D01*
X229233Y260644D01*
X225970Y255760D01*
X224824Y250000D01*
X225970Y244239D01*
X229233Y239356D01*
X234117Y236093D01*
X239877Y234947D01*
X245638Y236093D01*
X250522Y239356D01*
X253785Y244239D01*
X254930Y250000D01*
X253785Y255760D01*
X250522Y260644D01*
X247895Y262399D01*
X249789Y268350D01*
X336647D01*
X339963Y262531D01*
X339935Y262350D01*
X338823Y256760D01*
X339969Y250999D01*
X343232Y246116D01*
X348115Y242853D01*
X353876Y241707D01*
X359636Y242853D01*
X364520Y246116D01*
X367783Y250999D01*
X368929Y256760D01*
X367817Y262350D01*
X367789Y262531D01*
X371104Y268350D01*
X462620D01*
X466076Y269037D01*
X469007Y270995D01*
X515839Y317828D01*
X896736D01*
X899057Y315000D01*
X900203Y309239D01*
X903466Y304356D01*
X908350Y301093D01*
X914110Y299947D01*
X919871Y301093D01*
X924754Y304356D01*
X928017Y309239D01*
X929163Y315000D01*
X928017Y320760D01*
X924754Y325644D01*
X919871Y328907D01*
X915009Y329874D01*
X913126Y331757D01*
X912498Y335801D01*
X916110Y340947D01*
X921871Y342093D01*
X926754Y345356D01*
X930017Y350239D01*
X931163Y356000D01*
X930017Y361760D01*
X926754Y366644D01*
X921871Y369907D01*
X916110Y371053D01*
X910350Y369907D01*
X905466Y366644D01*
X902203Y361760D01*
X901057Y356000D01*
X901436Y354098D01*
X896182Y348844D01*
X762034D01*
X758827Y354844D01*
X760653Y357577D01*
X762044Y364567D01*
X760653Y371556D01*
X756694Y377482D01*
X750769Y381441D01*
X743779Y382831D01*
X736790Y381441D01*
X730865Y377482D01*
X726905Y371556D01*
X725515Y364567D01*
X726905Y357577D01*
X728732Y354844D01*
X725525Y348844D01*
X714790D01*
X711583Y354844D01*
X713409Y357577D01*
X714800Y364567D01*
X713409Y371556D01*
X709450Y377482D01*
X703525Y381441D01*
X696535Y382831D01*
X689546Y381441D01*
X683620Y377482D01*
X679661Y371556D01*
X678271Y364567D01*
X679661Y357577D01*
X681488Y354844D01*
X678281Y348844D01*
X667546D01*
X664339Y354844D01*
X666165Y357577D01*
X667556Y364567D01*
X666165Y371556D01*
X662206Y377482D01*
X656281Y381441D01*
X649291Y382831D01*
X642302Y381441D01*
X636376Y377482D01*
X632417Y371556D01*
X631027Y364567D01*
X632417Y357577D01*
X634244Y354844D01*
X631037Y348844D01*
X620302D01*
X617095Y354844D01*
X618921Y357577D01*
X620311Y364567D01*
X618921Y371556D01*
X614962Y377482D01*
X609037Y381441D01*
X602047Y382831D01*
X595058Y381441D01*
X589132Y377482D01*
X585173Y371556D01*
X583783Y364567D01*
X585173Y357577D01*
X587000Y354844D01*
X583792Y348844D01*
X506247D01*
X502790Y348157D01*
X499860Y346199D01*
X452870Y299209D01*
X270651D01*
X222425Y347434D01*
X226250Y352094D01*
X230460Y349282D01*
X236220Y348136D01*
X241981Y349282D01*
X246864Y352545D01*
X250128Y357428D01*
X251273Y363189D01*
X250128Y368949D01*
X246864Y373833D01*
X241981Y377096D01*
X236220Y378242D01*
X230460Y377096D01*
X225576Y373833D01*
X222313Y368949D01*
X221167Y363189D01*
X222313Y357428D01*
X225126Y353219D01*
X220465Y349394D01*
X198269Y371591D01*
X200244Y378101D01*
X201331Y378317D01*
X206215Y381581D01*
X209478Y386464D01*
X210624Y392225D01*
X209478Y397985D01*
X206215Y402869D01*
X204800Y403814D01*
X202127Y408223D01*
X203355Y411447D01*
X204949Y413833D01*
X206095Y419594D01*
X204949Y425354D01*
X201686Y430238D01*
X196803Y433501D01*
X191042Y434647D01*
X185281Y433501D01*
X180398Y430238D01*
X177135Y425354D01*
X175989Y419594D01*
X177135Y413833D01*
X180398Y408950D01*
X181813Y408004D01*
X184486Y403596D01*
X183258Y400372D01*
X181663Y397985D01*
X181447Y396897D01*
X174937Y394923D01*
X166250Y403610D01*
X166628Y405512D01*
X165482Y411272D01*
X162219Y416156D01*
X157335Y419419D01*
X151575Y420565D01*
X147748Y419804D01*
X141748Y423369D01*
Y477892D01*
X203683Y539827D01*
X208479Y543032D01*
X211742Y547915D01*
X212888Y553676D01*
X211742Y559436D01*
X208479Y564320D01*
X203595Y567583D01*
X197835Y568729D01*
X197029Y568568D01*
X108463Y657134D01*
X105533Y659092D01*
X102077Y659780D01*
X50107D01*
X49030Y661392D01*
X44146Y664655D01*
X38386Y665801D01*
D02*
G37*
G36*
X1456693Y266726D02*
X1450932Y265580D01*
X1446049Y262317D01*
X1442786Y257434D01*
X1441640Y251673D01*
X1442786Y245913D01*
X1446049Y241029D01*
X1450932Y237766D01*
X1456693Y236620D01*
X1462453Y237766D01*
X1467337Y241029D01*
X1470600Y245913D01*
X1471746Y251673D01*
X1470600Y257434D01*
X1467337Y262317D01*
X1462453Y265580D01*
X1456693Y266726D01*
D02*
G37*
G36*
X614110Y260053D02*
X608350Y258907D01*
X603466Y255644D01*
X600203Y250760D01*
X599057Y245000D01*
X600203Y239239D01*
X603466Y234356D01*
X608350Y231093D01*
X614110Y229947D01*
X619871Y231093D01*
X624754Y234356D01*
X628017Y239239D01*
X629163Y245000D01*
X628017Y250760D01*
X624754Y255644D01*
X619871Y258907D01*
X614110Y260053D01*
D02*
G37*
G36*
X169233Y245379D02*
X163472Y244233D01*
X158589Y240970D01*
X155326Y236087D01*
X154180Y230326D01*
X155326Y224566D01*
X158589Y219682D01*
X163472Y216419D01*
X169233Y215273D01*
X174993Y216419D01*
X179877Y219682D01*
X183140Y224566D01*
X184286Y230326D01*
X183140Y236087D01*
X179877Y240970D01*
X174993Y244233D01*
X169233Y245379D01*
D02*
G37*
G36*
X1704721Y249536D02*
X1698119Y248222D01*
X1692521Y244483D01*
X1688782Y238885D01*
X1687468Y232283D01*
X1688782Y225681D01*
X1692521Y220083D01*
X1698119Y216344D01*
X1704721Y215030D01*
X1711323Y216344D01*
X1716921Y220083D01*
X1720660Y225681D01*
X1721974Y232283D01*
X1720660Y238885D01*
X1716921Y244483D01*
X1711323Y248222D01*
X1704721Y249536D01*
D02*
G37*
G36*
X362110Y213053D02*
X356350Y211907D01*
X351466Y208644D01*
X348203Y203760D01*
X347057Y198000D01*
X348203Y192239D01*
X351466Y187356D01*
X356350Y184093D01*
X362110Y182947D01*
X367871Y184093D01*
X372754Y187356D01*
X376017Y192239D01*
X377163Y198000D01*
X376017Y203760D01*
X372754Y208644D01*
X367871Y211907D01*
X362110Y213053D01*
D02*
G37*
G36*
X324110D02*
X318350Y211907D01*
X313466Y208644D01*
X310203Y203760D01*
X309057Y198000D01*
X310203Y192239D01*
X313466Y187356D01*
X318350Y184093D01*
X324110Y182947D01*
X329871Y184093D01*
X334754Y187356D01*
X338017Y192239D01*
X339163Y198000D01*
X338017Y203760D01*
X334754Y208644D01*
X329871Y211907D01*
X324110Y213053D01*
D02*
G37*
G36*
X131890Y190250D02*
X126129Y189104D01*
X121246Y185841D01*
X117983Y180957D01*
X116837Y175197D01*
X117983Y169436D01*
X121246Y164553D01*
X126129Y161290D01*
X131890Y160144D01*
X137650Y161290D01*
X142534Y164553D01*
X145797Y169436D01*
X146943Y175197D01*
X145797Y180957D01*
X142534Y185841D01*
X137650Y189104D01*
X131890Y190250D01*
D02*
G37*
G36*
X278543Y175486D02*
X272783Y174340D01*
X267899Y171077D01*
X264636Y166194D01*
X263490Y160433D01*
X264636Y154673D01*
X267899Y149789D01*
X272783Y146526D01*
X278543Y145380D01*
X284304Y146526D01*
X289187Y149789D01*
X292450Y154673D01*
X293596Y160433D01*
X292450Y166194D01*
X289187Y171077D01*
X284304Y174340D01*
X278543Y175486D01*
D02*
G37*
G36*
X693858Y163631D02*
X687256Y162317D01*
X681659Y158577D01*
X677919Y152980D01*
X676605Y146378D01*
X677919Y139775D01*
X681659Y134178D01*
X687256Y130438D01*
X693858Y129125D01*
X700461Y130438D01*
X706058Y134178D01*
X709798Y139775D01*
X711111Y146378D01*
X709798Y152980D01*
X706058Y158577D01*
X700461Y162317D01*
X693858Y163631D01*
D02*
G37*
G36*
X1874016Y163316D02*
X1867413Y162002D01*
X1866327Y161277D01*
X1679388D01*
X1673566Y160119D01*
X1668630Y156821D01*
X1638380Y126570D01*
X1637098Y126315D01*
X1631501Y122575D01*
X1628921Y118714D01*
X1622629Y119591D01*
X1622569Y119894D01*
X1619305Y124778D01*
X1614422Y128041D01*
X1608661Y129187D01*
X1602901Y128041D01*
X1598017Y124778D01*
X1597782Y124426D01*
X1590566D01*
X1589778Y125605D01*
X1584894Y128868D01*
X1579134Y130014D01*
X1573373Y128868D01*
X1568490Y125605D01*
X1565227Y120721D01*
X1564081Y114961D01*
X1565227Y109200D01*
X1568490Y104317D01*
X1573373Y101053D01*
X1579134Y99908D01*
X1584894Y101053D01*
X1589778Y104317D01*
X1590013Y104669D01*
X1597229D01*
X1598017Y103490D01*
X1602901Y100227D01*
X1608661Y99081D01*
X1614422Y100227D01*
X1619305Y103490D01*
X1621151Y106251D01*
X1627520Y104984D01*
X1627761Y103773D01*
X1631501Y98176D01*
X1637098Y94436D01*
X1643701Y93123D01*
X1650303Y94436D01*
X1655900Y98176D01*
X1659640Y103773D01*
X1659895Y105055D01*
X1685690Y130849D01*
X1866327D01*
X1867413Y130124D01*
X1874016Y128810D01*
X1880618Y130124D01*
X1886215Y133863D01*
X1889955Y139461D01*
X1891268Y146063D01*
X1889955Y152665D01*
X1886215Y158263D01*
X1880618Y162002D01*
X1874016Y163316D01*
D02*
G37*
G36*
X196850Y138687D02*
X191090Y137542D01*
X186206Y134278D01*
X182943Y129395D01*
X181797Y123634D01*
X182943Y117874D01*
X186206Y112990D01*
X191090Y109727D01*
X196850Y108581D01*
X202611Y109727D01*
X207494Y112990D01*
X210758Y117874D01*
X211903Y123634D01*
X210758Y129395D01*
X207494Y134278D01*
X202611Y137542D01*
X196850Y138687D01*
D02*
G37*
G36*
X497873Y138084D02*
X492113Y136939D01*
X487229Y133675D01*
X483966Y128792D01*
X482820Y123031D01*
X483966Y117271D01*
X487229Y112387D01*
X492113Y109124D01*
X497873Y107978D01*
X503634Y109124D01*
X508517Y112387D01*
X511780Y117271D01*
X512926Y123031D01*
X511780Y128792D01*
X508517Y133675D01*
X503634Y136939D01*
X497873Y138084D01*
D02*
G37*
G36*
X310272Y111510D02*
X304511Y110364D01*
X299627Y107101D01*
X296364Y102217D01*
X295219Y96457D01*
X296364Y90696D01*
X299627Y85812D01*
X304511Y82549D01*
X310272Y81404D01*
X316032Y82549D01*
X320916Y85812D01*
X324179Y90696D01*
X325325Y96457D01*
X324179Y102217D01*
X320916Y107101D01*
X316032Y110364D01*
X310272Y111510D01*
D02*
G37*
G36*
X994724Y113631D02*
X988122Y112317D01*
X982525Y108578D01*
X978785Y102980D01*
X977471Y96378D01*
X978785Y89775D01*
X982525Y84178D01*
X988122Y80438D01*
X994724Y79125D01*
X1001327Y80438D01*
X1006924Y84178D01*
X1010664Y89775D01*
X1011977Y96378D01*
X1010664Y102980D01*
X1006924Y108578D01*
X1001327Y112317D01*
X994724Y113631D01*
D02*
G37*
G36*
X934094D02*
X927492Y112317D01*
X921895Y108578D01*
X918155Y102980D01*
X916842Y96378D01*
X918155Y89775D01*
X921895Y84178D01*
X927492Y80438D01*
X934094Y79125D01*
X940697Y80438D01*
X946294Y84178D01*
X950034Y89775D01*
X951347Y96378D01*
X950034Y102980D01*
X946294Y108578D01*
X940697Y112317D01*
X934094Y113631D01*
D02*
G37*
G36*
X884094D02*
X877492Y112317D01*
X871895Y108578D01*
X868155Y102980D01*
X866842Y96378D01*
X868155Y89775D01*
X871895Y84178D01*
X877492Y80438D01*
X884094Y79125D01*
X890697Y80438D01*
X896294Y84178D01*
X900034Y89775D01*
X901347Y96378D01*
X900034Y102980D01*
X896294Y108578D01*
X890697Y112317D01*
X884094Y113631D01*
D02*
G37*
G36*
X834094D02*
X827492Y112317D01*
X821895Y108578D01*
X818155Y102980D01*
X816842Y96378D01*
X818155Y89775D01*
X821895Y84178D01*
X827492Y80438D01*
X834094Y79125D01*
X840697Y80438D01*
X846294Y84178D01*
X850034Y89775D01*
X851347Y96378D01*
X850034Y102980D01*
X846294Y108578D01*
X840697Y112317D01*
X834094Y113631D01*
D02*
G37*
G36*
X800913Y140486D02*
X795153Y139340D01*
X790269Y136077D01*
X787006Y131194D01*
X785860Y125433D01*
X787006Y119672D01*
X787394Y119092D01*
X784094Y113631D01*
X777492Y112317D01*
X771895Y108578D01*
X768155Y102980D01*
X766842Y96378D01*
X768155Y89775D01*
X771895Y84178D01*
X777492Y80438D01*
X784094Y79125D01*
X790697Y80438D01*
X796294Y84178D01*
X800034Y89775D01*
X801347Y96378D01*
X800034Y102980D01*
X798911Y104661D01*
X799714Y106953D01*
X802142Y110624D01*
X806674Y111526D01*
X811557Y114789D01*
X814820Y119672D01*
X815966Y125433D01*
X814820Y131194D01*
X811557Y136077D01*
X806674Y139340D01*
X800913Y140486D01*
D02*
G37*
G36*
X700858Y122631D02*
X694256Y121317D01*
X688659Y117578D01*
X684919Y111980D01*
X683605Y105378D01*
X684919Y98775D01*
X688659Y93178D01*
X694256Y89438D01*
X700858Y88125D01*
X707461Y89438D01*
X711560Y92177D01*
X716574Y90938D01*
X718119Y89954D01*
X718155Y89775D01*
X721895Y84178D01*
X727492Y80438D01*
X734094Y79125D01*
X740697Y80438D01*
X746294Y84178D01*
X750034Y89775D01*
X751347Y96378D01*
X750034Y102980D01*
X746294Y108578D01*
X740697Y112317D01*
X734094Y113631D01*
X727492Y112317D01*
X723393Y109579D01*
X718378Y110818D01*
X716833Y111802D01*
X716798Y111980D01*
X713058Y117578D01*
X707461Y121317D01*
X700858Y122631D01*
D02*
G37*
G36*
X617858Y113631D02*
X611256Y112317D01*
X605659Y108578D01*
X601919Y102980D01*
X600605Y96378D01*
X601919Y89775D01*
X605659Y84178D01*
X611256Y80438D01*
X617858Y79125D01*
X624461Y80438D01*
X630058Y84178D01*
X633798Y89775D01*
X635111Y96378D01*
X633798Y102980D01*
X630058Y108578D01*
X624461Y112317D01*
X617858Y113631D01*
D02*
G37*
G36*
X162205Y99587D02*
Y66318D01*
X195474D01*
X194707Y72145D01*
X190938Y81243D01*
X184943Y89056D01*
X177130Y95051D01*
X168031Y98820D01*
X162205Y99587D01*
D02*
G37*
G36*
X154331D02*
X148504Y98820D01*
X139406Y95051D01*
X131593Y89056D01*
X125598Y81243D01*
X121829Y72145D01*
X121062Y66318D01*
X154331D01*
Y99587D01*
D02*
G37*
G36*
X636264Y67253D02*
X629662Y65939D01*
X624064Y62200D01*
X620324Y56602D01*
X619011Y50000D01*
X620324Y43398D01*
X624064Y37800D01*
X629662Y34060D01*
X636264Y32747D01*
X642866Y34060D01*
X648464Y37800D01*
X652203Y43398D01*
X653517Y50000D01*
X652203Y56602D01*
X648464Y62200D01*
X642866Y65939D01*
X636264Y67253D01*
D02*
G37*
G36*
X60960Y581025D02*
X55199Y579880D01*
X50316Y576616D01*
X47053Y571733D01*
X45907Y565972D01*
X47053Y560212D01*
X50316Y555328D01*
X52883Y553613D01*
Y362071D01*
X53498Y358980D01*
X55249Y356360D01*
X101223Y310386D01*
Y278898D01*
X89699Y267374D01*
X87949Y264754D01*
X87334Y261663D01*
Y120376D01*
X82754Y117317D01*
X79491Y112433D01*
X78346Y106672D01*
X79110Y102830D01*
X75552Y96830D01*
X23819D01*
Y27932D01*
X92716D01*
Y91060D01*
X93399Y91619D01*
X99159Y92765D01*
X104043Y96028D01*
X107306Y100912D01*
X108452Y106672D01*
X107306Y112433D01*
X104043Y117317D01*
X103487Y117688D01*
Y258318D01*
X115010Y269841D01*
X116761Y272462D01*
X117376Y275552D01*
Y313731D01*
X116761Y316822D01*
X115010Y319442D01*
X69036Y365416D01*
Y553613D01*
X71604Y555328D01*
X74867Y560212D01*
X76013Y565972D01*
X74867Y571733D01*
X71604Y576616D01*
X66720Y579880D01*
X60960Y581025D01*
D02*
G37*
G36*
X195474Y58444D02*
X162205D01*
Y25175D01*
X168031Y25942D01*
X177130Y29711D01*
X184943Y35706D01*
X190938Y43519D01*
X194707Y52617D01*
X195474Y58444D01*
D02*
G37*
G36*
X154331D02*
X121062D01*
X121829Y52617D01*
X125598Y43519D01*
X131593Y35706D01*
X139406Y29711D01*
X148504Y25942D01*
X154331Y25175D01*
Y58444D01*
D02*
G37*
G36*
X1712599Y90601D02*
X1703766Y88844D01*
X1696278Y83841D01*
X1691274Y76353D01*
X1689517Y67520D01*
Y39961D01*
X1691274Y31128D01*
X1696278Y23640D01*
X1703766Y18636D01*
X1712599Y16879D01*
X1721431Y18636D01*
X1728919Y23640D01*
X1733923Y31128D01*
X1735680Y39961D01*
Y67520D01*
X1733923Y76353D01*
X1728919Y83841D01*
X1721431Y88844D01*
X1712599Y90601D01*
D02*
G37*
%LPD*%
D54*
X1396007Y758583D02*
X1453275Y701315D01*
X1063135Y758583D02*
X1396007D01*
X1453275Y701315D02*
X1587929D01*
X1616535Y614173D02*
Y629921D01*
X1524952Y771504D02*
X1566535Y729921D01*
X1017567Y771504D02*
X1524952D01*
X975984Y729921D02*
X1017567Y771504D01*
X1034473Y729921D02*
X1063135Y758583D01*
X1587929Y701315D02*
X1616535Y729921D01*
X1025984D02*
X1034473D01*
D57*
X1499258Y388210D02*
X1532036Y355432D01*
X1864647D01*
X1893799Y326280D01*
Y324500D02*
Y326280D01*
D58*
X983858Y600787D02*
Y622047D01*
X202147Y551064D02*
Y553676D01*
X132716Y481633D02*
X202147Y551064D01*
X915110Y355000D02*
Y356543D01*
X102077Y650748D02*
X197835Y554990D01*
Y553676D02*
Y554990D01*
X38386Y650748D02*
X102077D01*
X248014Y277382D02*
X462620D01*
X512098Y326860D01*
X132716Y392679D02*
X248014Y277382D01*
X266910Y290177D02*
X456611D01*
X151575Y405512D02*
X266910Y290177D01*
X456611D02*
X506247Y339812D01*
X132716Y392679D02*
Y481633D01*
X512098Y326860D02*
X905251D01*
X506247Y339812D02*
X899923D01*
X1025984Y606284D02*
Y614173D01*
X1011220Y591520D02*
X1025984Y606284D01*
X906315Y195291D02*
X1011220Y300197D01*
Y591520D01*
X998425Y305497D02*
Y586220D01*
X906511Y213583D02*
X998425Y305497D01*
X611014Y213583D02*
X906511D01*
X593000Y195569D02*
X611014Y213583D01*
X905251Y326860D02*
X914110Y318000D01*
X899923Y339812D02*
X915110Y355000D01*
X651718Y195291D02*
X906315D01*
X622498Y166071D02*
X651718Y195291D01*
X605244Y166071D02*
X622498D01*
X593701Y154527D02*
X605244Y166071D01*
X585630Y154527D02*
X593701D01*
X566929Y135827D02*
X585630Y154527D01*
X593000Y175677D02*
Y195569D01*
X584646Y167323D02*
X593000Y175677D01*
X547244Y167323D02*
X584646D01*
X529528Y149606D02*
X547244Y167323D01*
X983858Y600787D02*
X998425Y586220D01*
D60*
X509801Y446872D02*
X776182Y713254D01*
Y740943D01*
X547122Y621000D02*
X592110D01*
X440417Y514295D02*
X547122Y621000D01*
X533187Y585826D02*
X611022D01*
X450736Y503374D02*
X533187Y585826D01*
X438709Y503374D02*
X450736D01*
X93399Y106672D02*
X95410Y108684D01*
Y261663D01*
X426049Y490714D02*
X438709Y503374D01*
X1169882Y462615D02*
Y647636D01*
X1087267Y379999D02*
X1169882Y462615D01*
X1082958Y379999D02*
X1087267D01*
X424034Y514295D02*
X440417D01*
X421575Y511836D02*
X424034Y514295D01*
X426049Y487831D02*
Y490714D01*
X391457Y511836D02*
X421575D01*
X542732Y641732D02*
X651849D01*
X491000Y590000D02*
X542732Y641732D01*
X299215Y419594D02*
X391457Y511836D01*
X109299Y275552D02*
Y313731D01*
X60960Y362071D02*
X109299Y313731D01*
X60960Y362071D02*
Y565972D01*
X95410Y261663D02*
X109299Y275552D01*
X651849Y641732D02*
X768824Y758707D01*
X897198D01*
X925984Y729921D01*
X581771Y210890D02*
Y212381D01*
D61*
X1446811Y54685D02*
X1448032Y55906D01*
X1402717Y54685D02*
X1446811D01*
X1386614Y38583D02*
X1402717Y54685D01*
D63*
X1417323Y304409D02*
Y364960D01*
X1666535Y614173D01*
X1417323Y304409D02*
X1417323Y304409D01*
Y158976D02*
Y304409D01*
X1643701Y110376D02*
X1679388Y146063D01*
X1381643Y123297D02*
X1417323Y158976D01*
X1679388Y146063D02*
X1874016D01*
D67*
X1616535Y729921D02*
D03*
X1566535D02*
D03*
X1516535D02*
D03*
X925984D02*
D03*
X975984D02*
D03*
X1025984D02*
D03*
X925984Y614173D02*
D03*
X975984D02*
D03*
X1025984D02*
D03*
X1075984D02*
D03*
X1125984D02*
D03*
X1716535D02*
D03*
X1666535D02*
D03*
X1616535D02*
D03*
X1566535D02*
D03*
X1516535D02*
D03*
D68*
X1466535Y729921D02*
D03*
X875984D02*
D03*
D69*
X1893701Y659449D02*
D03*
Y541338D02*
D03*
D70*
X1712599Y53740D02*
D03*
X1452756D02*
D03*
D71*
X1373740Y403150D02*
D03*
X1373731Y351969D02*
D03*
D72*
X875984Y614173D02*
D03*
X1466535D02*
D03*
D73*
X158268Y62381D02*
D03*
D74*
X58268D02*
D03*
D75*
X1126378Y530707D02*
D03*
X1716142Y729921D02*
D03*
D76*
X1386614Y118110D02*
D03*
D77*
Y38583D02*
D03*
D78*
X1661417Y307087D02*
D03*
Y267717D02*
D03*
X1622047Y307087D02*
D03*
Y267716D02*
D03*
X1643701Y110376D02*
D03*
X1704721Y232283D02*
D03*
X1874016Y146063D02*
D03*
X1625000Y497087D02*
D03*
X1250000Y302165D02*
D03*
Y268701D02*
D03*
X613786Y145115D02*
D03*
X613858Y186929D02*
D03*
X784094Y96378D02*
D03*
Y23500D02*
D03*
X734094Y96378D02*
D03*
Y23500D02*
D03*
X884094D02*
D03*
Y96378D02*
D03*
X834094D02*
D03*
Y23500D02*
D03*
X700858Y105378D02*
D03*
X693858Y146378D02*
D03*
X934094Y96378D02*
D03*
X994724D02*
D03*
X1052724D02*
D03*
X1044724Y25000D02*
D03*
X994724Y23500D02*
D03*
X934094D02*
D03*
X636264Y50000D02*
D03*
X682337Y23500D02*
D03*
X617858Y96378D02*
D03*
D79*
X1499258Y388210D02*
D03*
X1663382Y375196D02*
D03*
X1456693Y251673D02*
D03*
X1579134Y114961D02*
D03*
X1449960Y339934D02*
D03*
X1608661Y114134D02*
D03*
X611022Y585826D02*
D03*
X93399Y106672D02*
D03*
X131890Y175197D02*
D03*
X470078Y630707D02*
D03*
X472197Y655362D02*
D03*
X1282110Y371000D02*
D03*
X1192000Y541000D02*
D03*
X300000Y556451D02*
D03*
X376432Y640915D02*
D03*
X491000Y590000D02*
D03*
X509801Y446872D02*
D03*
X479012Y487227D02*
D03*
X491265Y464682D02*
D03*
X564175Y697833D02*
D03*
X460586Y357301D02*
D03*
X389716Y397657D02*
D03*
X576110Y670000D02*
D03*
X831913Y470000D02*
D03*
X614110Y245000D02*
D03*
X574013Y187055D02*
D03*
X552167Y538554D02*
D03*
X628160Y682258D02*
D03*
X592110Y621000D02*
D03*
X581771Y212381D02*
D03*
X437008Y630465D02*
D03*
X492083Y429155D02*
D03*
X595277Y704920D02*
D03*
X421575Y511836D02*
D03*
X147766Y571933D02*
D03*
X197835Y553676D02*
D03*
X353876Y256760D02*
D03*
X123955Y693931D02*
D03*
X385491Y360779D02*
D03*
X458617Y404547D02*
D03*
X431851Y722623D02*
D03*
X421579Y486244D02*
D03*
X270616Y628968D02*
D03*
X280514Y571933D02*
D03*
X236220Y363189D02*
D03*
X169233Y230326D02*
D03*
X310272Y96457D02*
D03*
X239877Y250000D02*
D03*
X91535Y298976D02*
D03*
X196850Y123634D02*
D03*
X278543Y160433D02*
D03*
X324110Y198000D02*
D03*
X60960Y565972D02*
D03*
X279474Y653575D02*
D03*
X299215Y419594D02*
D03*
X191042D02*
D03*
X151575Y405512D02*
D03*
X335041Y352755D02*
D03*
X383415Y96457D02*
D03*
X282427Y752989D02*
D03*
X362110Y198000D02*
D03*
X500766Y744676D02*
D03*
X258911Y373228D02*
D03*
X195571Y392225D02*
D03*
X1347323Y670118D02*
D03*
X1347913Y699646D02*
D03*
X1169882Y647636D02*
D03*
X399608Y571701D02*
D03*
X1065869Y414081D02*
D03*
X826182Y740353D02*
D03*
X530498Y558014D02*
D03*
X776182Y740943D02*
D03*
X597049Y737203D02*
D03*
X1043308Y503542D02*
D03*
X914110Y315000D02*
D03*
X809055Y308159D02*
D03*
X38386Y650748D02*
D03*
X1200745Y368203D02*
D03*
X518110Y225000D02*
D03*
X916110Y356000D02*
D03*
X1180497Y348620D02*
D03*
X566929Y135827D02*
D03*
X529528Y149606D02*
D03*
X1327752Y587257D02*
D03*
X1893799Y324500D02*
D03*
X800913Y125433D02*
D03*
X743308Y174017D02*
D03*
X773913Y176433D02*
D03*
X1175197Y259844D02*
D03*
X497873Y123031D02*
D03*
X1084646Y377378D02*
D03*
X40354Y612562D02*
D03*
D80*
X602047Y364567D02*
D03*
Y411811D02*
D03*
Y459055D02*
D03*
Y506299D02*
D03*
X649291Y364567D02*
D03*
Y411811D02*
D03*
Y459055D02*
D03*
Y506299D02*
D03*
X696535Y364567D02*
D03*
Y411811D02*
D03*
Y459055D02*
D03*
Y506299D02*
D03*
X743779Y364567D02*
D03*
Y411811D02*
D03*
Y459055D02*
D03*
Y506299D02*
D03*
D81*
X1126181Y530905D02*
X1126378Y530707D01*
X1126181Y530905D02*
Y613976D01*
X1125984Y614173D02*
X1126181Y613976D01*
%TF.MD5,379e68e068842f92f84b6e237e2f0554*%
M02*
