%TF.GenerationSoftware,Altium Limited,Altium Designer,19.0.15 (446)*%
G04 Layer_Color=2752767*
%FSLAX26Y26*%
%MOIN*%
%TF.FileFunction,Drawing*%
%TF.Part,Single*%
G01*
G75*
%TA.AperFunction,NonConductor*%
%ADD114C,0.005000*%
%ADD146C,0.006667*%
%ADD147C,0.004000*%
D114*
X1596535Y709921D02*
Y749921D01*
X1636535D01*
Y709921D01*
X1596535D01*
X1546535D02*
Y749921D01*
X1586535D01*
Y709921D01*
X1546535D01*
X1496535D02*
Y749921D01*
X1536535D01*
Y709921D01*
X1496535D01*
X1446535D02*
Y749921D01*
X1486535D01*
Y709921D01*
X1446535D01*
X855984D02*
Y749921D01*
X895984D01*
Y709921D01*
X855984D01*
X905984D02*
Y749921D01*
X945984D01*
Y709921D01*
X905984D01*
X955984D02*
Y749921D01*
X995984D01*
Y709921D01*
X955984D01*
X1005984D02*
Y749921D01*
X1045984D01*
Y709921D01*
X1005984D01*
X1712599Y33740D02*
X1692599Y73740D01*
X1732599D01*
X1712599Y33740D01*
X1452756D02*
X1432756Y73740D01*
X1472756D01*
X1452756Y33740D01*
X1373740Y383150D02*
X1383740Y393150D01*
X1393740D01*
X1383740Y403150D01*
X1393740Y413150D01*
X1383740D01*
X1373740Y423150D01*
X1363740Y413150D01*
X1353740D01*
X1363740Y403150D01*
X1353740Y393150D01*
X1363740D01*
X1373740Y383150D01*
X1373731Y331969D02*
X1383731Y341969D01*
X1393731D01*
X1383731Y351969D01*
X1393731Y361969D01*
X1383731D01*
X1373731Y371969D01*
X1363731Y361969D01*
X1353731D01*
X1363731Y351969D01*
X1353731Y341969D01*
X1363731D01*
X1373731Y331969D01*
X855984Y594173D02*
Y634173D01*
X895984D01*
Y594173D01*
X855984D01*
X905984D02*
Y634173D01*
X945984D01*
Y594173D01*
X905984D01*
X955984D02*
Y634173D01*
X995984D01*
Y594173D01*
X955984D01*
X1005984D02*
Y634173D01*
X1045984D01*
Y594173D01*
X1005984D01*
X1055984D02*
Y634173D01*
X1095984D01*
Y594173D01*
X1055984D01*
X1105984D02*
Y634173D01*
X1145984D01*
Y594173D01*
X1105984D01*
X1696535D02*
Y634173D01*
X1736535D01*
Y594173D01*
X1696535D01*
X1646535D02*
Y634173D01*
X1686535D01*
Y594173D01*
X1646535D01*
X1596535D02*
Y634173D01*
X1636535D01*
Y594173D01*
X1596535D01*
X1546535D02*
Y634173D01*
X1586535D01*
Y594173D01*
X1546535D01*
X1496535D02*
Y634173D01*
X1536535D01*
Y594173D01*
X1496535D01*
X1446535D02*
Y634173D01*
X1486535D01*
Y594173D01*
X1446535D01*
X138268Y42381D02*
X148268Y62381D01*
X138268Y82381D01*
X158268Y72381D01*
X178268Y82381D01*
X168268Y62381D01*
X178268Y42381D01*
X158268Y52381D01*
X138268Y42381D01*
X38268D02*
X48268Y62381D01*
X38268Y82381D01*
X58268Y72381D01*
X78268Y82381D01*
X68268Y62381D01*
X78268Y42381D01*
X58268Y52381D01*
X38268Y42381D01*
X1116378Y520707D02*
Y510707D01*
X1136378D01*
Y520707D01*
X1146378D01*
Y540707D01*
X1136378D01*
Y550707D01*
X1116378D01*
Y540707D01*
X1106378D01*
Y520707D01*
X1116378D01*
X1706142Y719921D02*
Y709921D01*
X1726142D01*
Y719921D01*
X1736142D01*
Y739921D01*
X1726142D01*
Y749921D01*
X1706142D01*
Y739921D01*
X1696142D01*
Y719921D01*
X1706142D01*
X1366614Y98110D02*
X1376614D01*
X1386614Y108110D01*
X1396614Y98110D01*
X1406614D01*
Y108110D01*
X1396614Y118110D01*
X1406614Y128110D01*
Y138110D01*
X1396614D01*
X1386614Y128110D01*
X1376614Y138110D01*
X1366614D01*
Y128110D01*
X1376614Y118110D01*
X1366614Y108110D01*
Y98110D01*
Y18583D02*
X1376614D01*
X1386614Y28583D01*
X1396614Y18583D01*
X1406614D01*
Y28583D01*
X1396614Y38583D01*
X1406614Y48583D01*
Y58583D01*
X1396614D01*
X1386614Y48583D01*
X1376614Y58583D01*
X1366614D01*
Y48583D01*
X1376614Y38583D01*
X1366614Y28583D01*
Y18583D01*
X1641417Y307087D02*
X1661417Y327087D01*
X1681417Y307087D01*
X1661417Y287087D01*
X1641417Y307087D01*
Y267717D02*
X1661417Y287717D01*
X1681417Y267717D01*
X1661417Y247717D01*
X1641417Y267717D01*
X1602047Y307087D02*
X1622047Y327087D01*
X1642047Y307087D01*
X1622047Y287087D01*
X1602047Y307087D01*
Y267716D02*
X1622047Y287716D01*
X1642047Y267716D01*
X1622047Y247716D01*
X1602047Y267716D01*
X1479258Y368210D02*
Y408210D01*
X1519258D01*
Y368210D01*
X1479258D01*
X1487258Y376210D02*
Y400210D01*
X1511258D01*
Y376210D01*
X1487258D01*
X1643382Y355196D02*
Y395196D01*
X1683382D01*
Y355196D01*
X1643382D01*
X1651382Y363196D02*
Y387196D01*
X1675382D01*
Y363196D01*
X1651382D01*
X1436693Y231673D02*
Y271673D01*
X1476693D01*
Y231673D01*
X1436693D01*
X1444693Y239673D02*
Y263673D01*
X1468693D01*
Y239673D01*
X1444693D01*
X1623701Y110376D02*
X1643701Y130376D01*
X1663701Y110376D01*
X1643701Y90376D01*
X1623701Y110376D01*
X1559134Y94961D02*
Y134961D01*
X1599134D01*
Y94961D01*
X1559134D01*
X1567134Y102961D02*
Y126961D01*
X1591134D01*
Y102961D01*
X1567134D01*
X1429960Y319934D02*
Y359934D01*
X1469960D01*
Y319934D01*
X1429960D01*
X1437960Y327934D02*
Y351934D01*
X1461960D01*
Y327934D01*
X1437960D01*
X1684721Y232283D02*
X1704721Y252283D01*
X1724721Y232283D01*
X1704721Y212283D01*
X1684721Y232283D01*
X1588661Y94134D02*
Y134134D01*
X1628661D01*
Y94134D01*
X1588661D01*
X1596661Y102134D02*
Y126134D01*
X1620661D01*
Y102134D01*
X1596661D01*
X1854016Y146063D02*
X1874016Y166063D01*
X1894016Y146063D01*
X1874016Y126063D01*
X1854016Y146063D01*
X1605000Y497087D02*
X1625000Y517087D01*
X1645000Y497087D01*
X1625000Y477087D01*
X1605000Y497087D01*
X591022Y565826D02*
Y605826D01*
X631022D01*
Y565826D01*
X591022D01*
X599022Y573826D02*
Y597826D01*
X623022D01*
Y573826D01*
X599022D01*
X111890Y155197D02*
Y195197D01*
X151890D01*
Y155197D01*
X111890D01*
X119890Y163197D02*
Y187197D01*
X143890D01*
Y163197D01*
X119890D01*
X450078Y610707D02*
Y650707D01*
X490078D01*
Y610707D01*
X450078D01*
X458078Y618707D02*
Y642707D01*
X482078D01*
Y618707D01*
X458078D01*
X452197Y635362D02*
Y675362D01*
X492197D01*
Y635362D01*
X452197D01*
X460197Y643362D02*
Y667362D01*
X484197D01*
Y643362D01*
X460197D01*
X1230000Y302165D02*
X1250000Y322165D01*
X1270000Y302165D01*
X1250000Y282165D01*
X1230000Y302165D01*
Y268701D02*
X1250000Y288701D01*
X1270000Y268701D01*
X1250000Y248701D01*
X1230000Y268701D01*
X1262110Y351000D02*
Y391000D01*
X1302110D01*
Y351000D01*
X1262110D01*
X1270110Y359000D02*
Y383000D01*
X1294110D01*
Y359000D01*
X1270110D01*
X1172000Y521000D02*
Y561000D01*
X1212000D01*
Y521000D01*
X1172000D01*
X1180000Y529000D02*
Y553000D01*
X1204000D01*
Y529000D01*
X1180000D01*
X280000Y536451D02*
Y576451D01*
X320000D01*
Y536451D01*
X280000D01*
X288000Y544451D02*
Y568451D01*
X312000D01*
Y544451D01*
X288000D01*
X356432Y620915D02*
Y660915D01*
X396432D01*
Y620915D01*
X356432D01*
X364432Y628915D02*
Y652915D01*
X388432D01*
Y628915D01*
X364432D01*
X471000Y570000D02*
Y610000D01*
X511000D01*
Y570000D01*
X471000D01*
X479000Y578000D02*
Y602000D01*
X503000D01*
Y578000D01*
X479000D01*
X602047Y344567D02*
X582047Y384567D01*
X622047D01*
X602047Y344567D01*
Y352567D02*
X590047Y376567D01*
X614047D01*
X602047Y352567D01*
Y391811D02*
X582047Y431811D01*
X622047D01*
X602047Y391811D01*
Y399811D02*
X590047Y423811D01*
X614047D01*
X602047Y399811D01*
Y439055D02*
X582047Y479055D01*
X622047D01*
X602047Y439055D01*
Y447055D02*
X590047Y471055D01*
X614047D01*
X602047Y447055D01*
Y486299D02*
X582047Y526299D01*
X622047D01*
X602047Y486299D01*
Y494299D02*
X590047Y518299D01*
X614047D01*
X602047Y494299D01*
X649291Y344567D02*
X629291Y384567D01*
X669291D01*
X649291Y344567D01*
Y352567D02*
X637291Y376567D01*
X661291D01*
X649291Y352567D01*
Y391811D02*
X629291Y431811D01*
X669291D01*
X649291Y391811D01*
Y399811D02*
X637291Y423811D01*
X661291D01*
X649291Y399811D01*
Y439055D02*
X629291Y479055D01*
X669291D01*
X649291Y439055D01*
Y447055D02*
X637291Y471055D01*
X661291D01*
X649291Y447055D01*
Y486299D02*
X629291Y526299D01*
X669291D01*
X649291Y486299D01*
Y494299D02*
X637291Y518299D01*
X661291D01*
X649291Y494299D01*
X696535Y344567D02*
X676535Y384567D01*
X716535D01*
X696535Y344567D01*
Y352567D02*
X684535Y376567D01*
X708535D01*
X696535Y352567D01*
Y391811D02*
X676535Y431811D01*
X716535D01*
X696535Y391811D01*
Y399811D02*
X684535Y423811D01*
X708535D01*
X696535Y399811D01*
Y439055D02*
X676535Y479055D01*
X716535D01*
X696535Y439055D01*
Y447055D02*
X684535Y471055D01*
X708535D01*
X696535Y447055D01*
Y486299D02*
X676535Y526299D01*
X716535D01*
X696535Y486299D01*
Y494299D02*
X684535Y518299D01*
X708535D01*
X696535Y494299D01*
X743779Y344567D02*
X723779Y384567D01*
X763779D01*
X743779Y344567D01*
Y352567D02*
X731779Y376567D01*
X755779D01*
X743779Y352567D01*
Y391811D02*
X723779Y431811D01*
X763779D01*
X743779Y391811D01*
Y399811D02*
X731779Y423811D01*
X755779D01*
X743779Y399811D01*
Y439055D02*
X723779Y479055D01*
X763779D01*
X743779Y439055D01*
Y447055D02*
X731779Y471055D01*
X755779D01*
X743779Y447055D01*
Y486299D02*
X723779Y526299D01*
X763779D01*
X743779Y486299D01*
Y494299D02*
X731779Y518299D01*
X755779D01*
X743779Y494299D01*
X489801Y426872D02*
Y466872D01*
X529801D01*
Y426872D01*
X489801D01*
X497801Y434872D02*
Y458872D01*
X521801D01*
Y434872D01*
X497801D01*
X459012Y467227D02*
Y507227D01*
X499012D01*
Y467227D01*
X459012D01*
X467012Y475227D02*
Y499227D01*
X491012D01*
Y475227D01*
X467012D01*
X471265Y444682D02*
Y484682D01*
X511265D01*
Y444682D01*
X471265D01*
X479265Y452682D02*
Y476682D01*
X503265D01*
Y452682D01*
X479265D01*
X544175Y677833D02*
Y717833D01*
X584175D01*
Y677833D01*
X544175D01*
X552175Y685833D02*
Y709833D01*
X576175D01*
Y685833D01*
X552175D01*
X440586Y337301D02*
Y377301D01*
X480586D01*
Y337301D01*
X440586D01*
X448586Y345301D02*
Y369301D01*
X472586D01*
Y345301D01*
X448586D01*
X369716Y377657D02*
Y417657D01*
X409716D01*
Y377657D01*
X369716D01*
X377716Y385657D02*
Y409657D01*
X401716D01*
Y385657D01*
X377716D01*
X556110Y650000D02*
Y690000D01*
X596110D01*
Y650000D01*
X556110D01*
X564110Y658000D02*
Y682000D01*
X588110D01*
Y658000D01*
X564110D01*
X811913Y450000D02*
Y490000D01*
X851913D01*
Y450000D01*
X811913D01*
X819913Y458000D02*
Y482000D01*
X843913D01*
Y458000D01*
X819913D01*
X594110Y225000D02*
Y265000D01*
X634110D01*
Y225000D01*
X594110D01*
X602110Y233000D02*
Y257000D01*
X626110D01*
Y233000D01*
X602110D01*
X554013Y167055D02*
Y207055D01*
X594013D01*
Y167055D01*
X554013D01*
X562013Y175055D02*
Y199055D01*
X586013D01*
Y175055D01*
X562013D01*
X532167Y518554D02*
Y558554D01*
X572167D01*
Y518554D01*
X532167D01*
X540167Y526554D02*
Y550554D01*
X564167D01*
Y526554D01*
X540167D01*
X608160Y662258D02*
Y702258D01*
X648160D01*
Y662258D01*
X608160D01*
X616160Y670258D02*
Y694258D01*
X640160D01*
Y670258D01*
X616160D01*
X572110Y601000D02*
Y641000D01*
X612110D01*
Y601000D01*
X572110D01*
X580110Y609000D02*
Y633000D01*
X604110D01*
Y609000D01*
X580110D01*
X561771Y192381D02*
Y232381D01*
X601771D01*
Y192381D01*
X561771D01*
X569771Y200381D02*
Y224381D01*
X593771D01*
Y200381D01*
X569771D01*
X417008Y610465D02*
Y650465D01*
X457008D01*
Y610465D01*
X417008D01*
X425008Y618465D02*
Y642465D01*
X449008D01*
Y618465D01*
X425008D01*
X472083Y409155D02*
Y449155D01*
X512083D01*
Y409155D01*
X472083D01*
X480083Y417155D02*
Y441155D01*
X504083D01*
Y417155D01*
X480083D01*
X575277Y684920D02*
Y724920D01*
X615277D01*
Y684920D01*
X575277D01*
X583277Y692920D02*
Y716920D01*
X607277D01*
Y692920D01*
X583277D01*
X401575Y491836D02*
Y531836D01*
X441575D01*
Y491836D01*
X401575D01*
X409575Y499836D02*
Y523836D01*
X433575D01*
Y499836D01*
X409575D01*
X127766Y551933D02*
Y591933D01*
X167766D01*
Y551933D01*
X127766D01*
X135766Y559933D02*
Y583933D01*
X159766D01*
Y559933D01*
X135766D01*
X177835Y533676D02*
Y573676D01*
X217835D01*
Y533676D01*
X177835D01*
X185835Y541676D02*
Y565676D01*
X209835D01*
Y541676D01*
X185835D01*
X333876Y236760D02*
Y276760D01*
X373876D01*
Y236760D01*
X333876D01*
X341876Y244760D02*
Y268760D01*
X365876D01*
Y244760D01*
X341876D01*
X365491Y340779D02*
Y380779D01*
X405491D01*
Y340779D01*
X365491D01*
X373491Y348779D02*
Y372779D01*
X397491D01*
Y348779D01*
X373491D01*
X438617Y384547D02*
Y424547D01*
X478617D01*
Y384547D01*
X438617D01*
X446617Y392547D02*
Y416547D01*
X470617D01*
Y392547D01*
X446617D01*
X411851Y702623D02*
Y742623D01*
X451851D01*
Y702623D01*
X411851D01*
X419851Y710623D02*
Y734623D01*
X443851D01*
Y710623D01*
X419851D01*
X401579Y466244D02*
Y506244D01*
X441579D01*
Y466244D01*
X401579D01*
X409579Y474244D02*
Y498244D01*
X433579D01*
Y474244D01*
X409579D01*
X260514Y551933D02*
Y591933D01*
X300514D01*
Y551933D01*
X260514D01*
X268514Y559933D02*
Y583933D01*
X292514D01*
Y559933D01*
X268514D01*
X216220Y343189D02*
Y383189D01*
X256220D01*
Y343189D01*
X216220D01*
X224220Y351189D02*
Y375189D01*
X248220D01*
Y351189D01*
X224220D01*
X290272Y76457D02*
Y116457D01*
X330272D01*
Y76457D01*
X290272D01*
X298272Y84457D02*
Y108457D01*
X322272D01*
Y84457D01*
X298272D01*
X219877Y230000D02*
Y270000D01*
X259877D01*
Y230000D01*
X219877D01*
X227877Y238000D02*
Y262000D01*
X251877D01*
Y238000D01*
X227877D01*
X71535Y278976D02*
Y318976D01*
X111535D01*
Y278976D01*
X71535D01*
X79535Y286976D02*
Y310976D01*
X103535D01*
Y286976D01*
X79535D01*
X258543Y140433D02*
Y180433D01*
X298543D01*
Y140433D01*
X258543D01*
X266543Y148433D02*
Y172433D01*
X290543D01*
Y148433D01*
X266543D01*
X304110Y178000D02*
Y218000D01*
X344110D01*
Y178000D01*
X304110D01*
X312110Y186000D02*
Y210000D01*
X336110D01*
Y186000D01*
X312110D01*
X259474Y633575D02*
Y673575D01*
X299474D01*
Y633575D01*
X259474D01*
X267474Y641575D02*
Y665575D01*
X291474D01*
Y641575D01*
X267474D01*
X279215Y399594D02*
Y439594D01*
X319215D01*
Y399594D01*
X279215D01*
X287215Y407594D02*
Y431594D01*
X311215D01*
Y407594D01*
X287215D01*
X171042Y399594D02*
Y439594D01*
X211042D01*
Y399594D01*
X171042D01*
X179042Y407594D02*
Y431594D01*
X203042D01*
Y407594D01*
X179042D01*
X131575Y385512D02*
Y425512D01*
X171575D01*
Y385512D01*
X131575D01*
X139575Y393512D02*
Y417512D01*
X163575D01*
Y393512D01*
X139575D01*
X315041Y332755D02*
Y372755D01*
X355041D01*
Y332755D01*
X315041D01*
X323041Y340755D02*
Y364755D01*
X347041D01*
Y340755D01*
X323041D01*
X363415Y76457D02*
Y116457D01*
X403415D01*
Y76457D01*
X363415D01*
X371415Y84457D02*
Y108457D01*
X395415D01*
Y84457D01*
X371415D01*
X262427Y732989D02*
Y772989D01*
X302427D01*
Y732989D01*
X262427D01*
X270427Y740989D02*
Y764989D01*
X294427D01*
Y740989D01*
X270427D01*
X342110Y178000D02*
Y218000D01*
X382110D01*
Y178000D01*
X342110D01*
X350110Y186000D02*
Y210000D01*
X374110D01*
Y186000D01*
X350110D01*
X480766Y724676D02*
Y764676D01*
X520766D01*
Y724676D01*
X480766D01*
X488766Y732676D02*
Y756676D01*
X512766D01*
Y732676D01*
X488766D01*
X238911Y353228D02*
Y393228D01*
X278911D01*
Y353228D01*
X238911D01*
X246911Y361228D02*
Y385228D01*
X270911D01*
Y361228D01*
X246911D01*
X175571Y372225D02*
Y412225D01*
X215571D01*
Y372225D01*
X175571D01*
X183571Y380225D02*
Y404225D01*
X207571D01*
Y380225D01*
X183571D01*
X1327323Y650118D02*
Y690118D01*
X1367323D01*
Y650118D01*
X1327323D01*
X1335323Y658118D02*
Y682118D01*
X1359323D01*
Y658118D01*
X1335323D01*
X1327913Y679646D02*
Y719646D01*
X1367913D01*
Y679646D01*
X1327913D01*
X1335913Y687646D02*
Y711646D01*
X1359913D01*
Y687646D01*
X1335913D01*
X1149882Y627636D02*
Y667636D01*
X1189882D01*
Y627636D01*
X1149882D01*
X1157882Y635636D02*
Y659636D01*
X1181882D01*
Y635636D01*
X1157882D01*
X379608Y551701D02*
Y591701D01*
X419608D01*
Y551701D01*
X379608D01*
X387608Y559701D02*
Y583701D01*
X411608D01*
Y559701D01*
X387608D01*
X1045869Y394081D02*
Y434081D01*
X1085869D01*
Y394081D01*
X1045869D01*
X1053869Y402081D02*
Y426081D01*
X1077869D01*
Y402081D01*
X1053869D01*
X806182Y720353D02*
Y760353D01*
X846182D01*
Y720353D01*
X806182D01*
X814182Y728353D02*
Y752353D01*
X838182D01*
Y728353D01*
X814182D01*
X510498Y538014D02*
Y578014D01*
X550498D01*
Y538014D01*
X510498D01*
X518498Y546014D02*
Y570014D01*
X542498D01*
Y546014D01*
X518498D01*
X756182Y720943D02*
Y760943D01*
X796182D01*
Y720943D01*
X756182D01*
X764182Y728943D02*
Y752943D01*
X788182D01*
Y728943D01*
X764182D01*
X577049Y717203D02*
Y757203D01*
X617049D01*
Y717203D01*
X577049D01*
X585049Y725203D02*
Y749203D01*
X609049D01*
Y725203D01*
X585049D01*
X1023308Y483542D02*
Y523542D01*
X1063308D01*
Y483542D01*
X1023308D01*
X1031308Y491542D02*
Y515542D01*
X1055308D01*
Y491542D01*
X1031308D01*
X894110Y295000D02*
Y335000D01*
X934110D01*
Y295000D01*
X894110D01*
X902110Y303000D02*
Y327000D01*
X926110D01*
Y303000D01*
X902110D01*
X789055Y288159D02*
Y328159D01*
X829055D01*
Y288159D01*
X789055D01*
X797055Y296159D02*
Y320159D01*
X821055D01*
Y296159D01*
X797055D01*
X18386Y630748D02*
Y670748D01*
X58386D01*
Y630748D01*
X18386D01*
X26386Y638748D02*
Y662748D01*
X50386D01*
Y638748D01*
X26386D01*
X593786Y145115D02*
X613786Y165115D01*
X633786Y145115D01*
X613786Y125115D01*
X593786Y145115D01*
X593858Y186929D02*
X613858Y206929D01*
X633858Y186929D01*
X613858Y166929D01*
X593858Y186929D01*
X1180745Y348203D02*
Y388203D01*
X1220745D01*
Y348203D01*
X1180745D01*
X1188745Y356203D02*
Y380203D01*
X1212745D01*
Y356203D01*
X1188745D01*
X498110Y205000D02*
Y245000D01*
X538110D01*
Y205000D01*
X498110D01*
X506110Y213000D02*
Y237000D01*
X530110D01*
Y213000D01*
X506110D01*
X896110Y336000D02*
Y376000D01*
X936110D01*
Y336000D01*
X896110D01*
X904110Y344000D02*
Y368000D01*
X928110D01*
Y344000D01*
X904110D01*
X1160497Y328620D02*
Y368620D01*
X1200497D01*
Y328620D01*
X1160497D01*
X1168497Y336620D02*
Y360620D01*
X1192497D01*
Y336620D01*
X1168497D01*
X546929Y115827D02*
Y155827D01*
X586929D01*
Y115827D01*
X546929D01*
X554929Y123827D02*
Y147827D01*
X578929D01*
Y123827D01*
X554929D01*
X509527Y129606D02*
Y169606D01*
X549528D01*
Y129606D01*
X509527D01*
X517528Y137606D02*
Y161606D01*
X541528D01*
Y137606D01*
X517528D01*
X1307752Y567257D02*
Y607257D01*
X1347752D01*
Y567257D01*
X1307752D01*
X1315752Y575257D02*
Y599257D01*
X1339752D01*
Y575257D01*
X1315752D01*
X1873799Y304500D02*
Y344500D01*
X1913799D01*
Y304500D01*
X1873799D01*
X1881799Y312500D02*
Y336500D01*
X1905799D01*
Y312500D01*
X1881799D01*
X764094Y96378D02*
X784094Y116378D01*
X804094Y96378D01*
X784094Y76378D01*
X764094Y96378D01*
Y23500D02*
X784094Y43500D01*
X804094Y23500D01*
X784094Y3500D01*
X764094Y23500D01*
X780913Y105433D02*
Y145433D01*
X820913D01*
Y105433D01*
X780913D01*
X788913Y113433D02*
Y137433D01*
X812913D01*
Y113433D01*
X788913D01*
X723308Y154017D02*
Y194017D01*
X763308D01*
Y154017D01*
X723308D01*
X731308Y162017D02*
Y186017D01*
X755308D01*
Y162017D01*
X731308D01*
X753913Y156433D02*
Y196433D01*
X793913D01*
Y156433D01*
X753913D01*
X761913Y164433D02*
Y188433D01*
X785913D01*
Y164433D01*
X761913D01*
X714094Y96378D02*
X734094Y116378D01*
X754094Y96378D01*
X734094Y76378D01*
X714094Y96378D01*
Y23500D02*
X734094Y43500D01*
X754094Y23500D01*
X734094Y3500D01*
X714094Y23500D01*
X864094D02*
X884094Y43500D01*
X904094Y23500D01*
X884094Y3500D01*
X864094Y23500D01*
Y96378D02*
X884094Y116378D01*
X904094Y96378D01*
X884094Y76378D01*
X864094Y96378D01*
X814094D02*
X834094Y116378D01*
X854094Y96378D01*
X834094Y76378D01*
X814094Y96378D01*
Y23500D02*
X834094Y43500D01*
X854094Y23500D01*
X834094Y3500D01*
X814094Y23500D01*
X1155197Y239844D02*
Y279844D01*
X1195197D01*
Y239844D01*
X1155197D01*
X1163197Y247844D02*
Y271844D01*
X1187197D01*
Y247844D01*
X1163197D01*
X477873Y103031D02*
Y143031D01*
X517873D01*
Y103031D01*
X477873D01*
X485873Y111031D02*
Y135031D01*
X509873D01*
Y111031D01*
X485873D01*
X1064646Y357378D02*
Y397378D01*
X1104646D01*
Y357378D01*
X1064646D01*
X1072646Y365378D02*
Y389378D01*
X1096646D01*
Y365378D01*
X1072646D01*
X20354Y592562D02*
Y632562D01*
X60354D01*
Y592562D01*
X20354D01*
X28354Y600562D02*
Y624562D01*
X52354D01*
Y600562D01*
X28354D01*
X680858Y105378D02*
X700858Y125378D01*
X720858Y105378D01*
X700858Y85378D01*
X680858Y105378D01*
X673858Y146378D02*
X693858Y166378D01*
X713858Y146378D01*
X693858Y126378D01*
X673858Y146378D01*
X914094Y96378D02*
X934094Y116378D01*
X954094Y96378D01*
X934094Y76378D01*
X914094Y96378D01*
X974724D02*
X994724Y116378D01*
X1014724Y96378D01*
X994724Y76378D01*
X974724Y96378D01*
X1032724D02*
X1052724Y116378D01*
X1072724Y96378D01*
X1052724Y76378D01*
X1032724Y96378D01*
X1024724Y25000D02*
X1044724Y45000D01*
X1064724Y25000D01*
X1044724Y5000D01*
X1024724Y25000D01*
X974724Y23500D02*
X994724Y43500D01*
X1014724Y23500D01*
X994724Y3500D01*
X974724Y23500D01*
X914094D02*
X934094Y43500D01*
X954094Y23500D01*
X934094Y3500D01*
X914094Y23500D01*
X616264Y50000D02*
X636264Y70000D01*
X656264Y50000D01*
X636264Y30000D01*
X616264Y50000D01*
X662337Y23500D02*
X682337Y43500D01*
X702337Y23500D01*
X682337Y3500D01*
X662337Y23500D01*
X597858Y96378D02*
X617858Y116378D01*
X637858Y96378D01*
X617858Y76378D01*
X597858Y96378D01*
D146*
X1913701Y659449D02*
G03*
X1913701Y659449I-20000J0D01*
G01*
Y541338D02*
G03*
X1913701Y541338I-20000J0D01*
G01*
X113399Y106672D02*
G03*
X113399Y106672I-20000J0D01*
G01*
X143955Y693931D02*
G03*
X143955Y693931I-20000J0D01*
G01*
X290616Y628968D02*
G03*
X290616Y628968I-20000J0D01*
G01*
X189233Y230326D02*
G03*
X189233Y230326I-20000J0D01*
G01*
X216850Y123634D02*
G03*
X216850Y123634I-20000J0D01*
G01*
X80960Y565972D02*
G03*
X80960Y565972I-20000J0D01*
G01*
D147*
X105399Y106672D02*
G03*
X105399Y106672I-12000J0D01*
G01*
X135955Y693931D02*
G03*
X135955Y693931I-12000J0D01*
G01*
X282616Y628968D02*
G03*
X282616Y628968I-12000J0D01*
G01*
X181233Y230326D02*
G03*
X181233Y230326I-12000J0D01*
G01*
X208850Y123634D02*
G03*
X208850Y123634I-12000J0D01*
G01*
X72960Y565972D02*
G03*
X72960Y565972I-12000J0D01*
G01*
%TF.MD5,d3bedada318b42b796a75a50defeff78*%
M02*
