%TF.GenerationSoftware,Altium Limited,Altium Designer,19.0.15 (446)*%
G04 Layer_Physical_Order=2*
G04 Layer_Color=14461039*
%FSLAX26Y26*%
%MOIN*%
%TF.FileFunction,Copper,L2,Inr,Signal*%
%TF.Part,Single*%
G01*
G75*
%TA.AperFunction,Conductor*%
%ADD54C,0.008000*%
%ADD57C,0.010000*%
%ADD58C,0.007874*%
%ADD60C,0.006000*%
%ADD61C,0.007992*%
%ADD63C,0.020000*%
%ADD64C,0.006063*%
%TA.AperFunction,ComponentPad*%
%ADD67C,0.039370*%
G04:AMPARAMS|DCode=68|XSize=39mil|YSize=39mil|CornerRadius=0mil|HoleSize=0mil|Usage=FLASHONLY|Rotation=0.000|XOffset=0mil|YOffset=0mil|HoleType=Round|Shape=Octagon|*
%AMOCTAGOND68*
4,1,8,0.019500,-0.009750,0.019500,0.009750,0.009750,0.019500,-0.009750,0.019500,-0.019500,0.009750,-0.019500,-0.009750,-0.009750,-0.019500,0.009750,-0.019500,0.019500,-0.009750,0.0*
%
%ADD68OCTAGOND68*%

%ADD69C,0.023622*%
%ADD70O,0.035433X0.062992*%
%TA.AperFunction,WasherPad*%
%ADD71C,0.015000*%
%TA.AperFunction,ComponentPad*%
%ADD72R,0.039000X0.039000*%
%ADD73C,0.059055*%
%ADD74R,0.059055X0.059055*%
%ADD75C,0.047244*%
%ADD76C,0.055118*%
%ADD77R,0.055118X0.055118*%
%TA.AperFunction,ViaPad*%
%ADD78C,0.024000*%
%ADD79C,0.019685*%
%ADD80C,0.025984*%
%TA.AperFunction,Conductor*%
%ADD81C,0.025000*%
%ADD82C,0.012008*%
G36*
X1275242Y738908D02*
X1189489Y653155D01*
X1182771Y654922D01*
X1180526Y658280D01*
X1175643Y661544D01*
X1169882Y662689D01*
X1164122Y661544D01*
X1159238Y658280D01*
X1155975Y653397D01*
X1154829Y647636D01*
X1155975Y641876D01*
X1159238Y636992D01*
X1161448Y635516D01*
X1162603Y629095D01*
X1159466Y625312D01*
X1148135D01*
X1143724Y631913D01*
X1135585Y637352D01*
X1125984Y639261D01*
X1116383Y637352D01*
X1108244Y631913D01*
X1104354Y626091D01*
X1097614D01*
X1093724Y631913D01*
X1085585Y637352D01*
X1081507Y638163D01*
X1079855Y639267D01*
X1075984Y640037D01*
X1072113Y639267D01*
X1070461Y638163D01*
X1066383Y637352D01*
X1058244Y631913D01*
X1054354Y626091D01*
X1047614D01*
X1043724Y631913D01*
X1035585Y637352D01*
X1025984Y639261D01*
X1016383Y637352D01*
X1008244Y631913D01*
X1004354Y626091D01*
X997615D01*
X993724Y631913D01*
X985585Y637352D01*
X975984Y639261D01*
X966383Y637352D01*
X958244Y631913D01*
X954354Y626091D01*
X947615D01*
X943724Y631913D01*
X935585Y637352D01*
X925984Y639261D01*
X916383Y637352D01*
X909358Y632658D01*
X903358Y634579D01*
Y641547D01*
X879921D01*
Y614173D01*
X875984D01*
Y610236D01*
X847650D01*
X843067Y608338D01*
X781478Y669927D01*
X778527Y671898D01*
X775046Y672591D01*
X646123D01*
X642484Y678591D01*
X643213Y682258D01*
X642850Y684084D01*
X669156Y710391D01*
X858883D01*
X863774Y705500D01*
X888195D01*
X898564Y715869D01*
X905695Y715995D01*
X908244Y712181D01*
X916383Y706742D01*
X925984Y704833D01*
X935585Y706742D01*
X936017Y707031D01*
X951254Y691794D01*
X954203Y689823D01*
X957683Y689131D01*
X1062004D01*
X1065484Y689823D01*
X1068433Y691794D01*
X1121091Y744451D01*
X1272946D01*
X1275242Y738908D01*
D02*
G37*
G36*
X902086Y777367D02*
X904572Y771367D01*
X887548Y754342D01*
X863774D01*
X851563Y742132D01*
Y728583D01*
X792896D01*
X789688Y734583D01*
X790089Y735183D01*
X791235Y740943D01*
X790089Y746704D01*
X786826Y751587D01*
X781943Y754851D01*
X776182Y755996D01*
X770422Y754851D01*
X765538Y751587D01*
X762275Y746704D01*
X761129Y740943D01*
X762275Y735183D01*
X762676Y734583D01*
X759469Y728583D01*
X665388D01*
X661907Y727890D01*
X658956Y725919D01*
X629986Y696948D01*
X628160Y697311D01*
X622399Y696166D01*
X617516Y692903D01*
X614253Y688019D01*
X613107Y682258D01*
X613837Y678591D01*
X610197Y672591D01*
X590648D01*
X590017Y675760D01*
X586754Y680644D01*
X581871Y683907D01*
X580268Y689952D01*
X580525Y690445D01*
X587706Y692222D01*
X589517Y691013D01*
X595277Y689867D01*
X601038Y691013D01*
X605921Y694276D01*
X609184Y699159D01*
X610330Y704920D01*
X609184Y710680D01*
X605921Y715564D01*
X601038Y718827D01*
X595277Y719973D01*
X589517Y718827D01*
X584633Y715564D01*
X581370Y710680D01*
X581185Y709750D01*
X574819Y708477D01*
X569935Y711740D01*
X564175Y712886D01*
X558414Y711740D01*
X553531Y708477D01*
X550268Y703594D01*
X549122Y697833D01*
X550268Y692073D01*
X553531Y687189D01*
X558414Y683926D01*
X560205Y683570D01*
X562966Y676903D01*
X562203Y675760D01*
X561057Y670000D01*
X562203Y664239D01*
X565466Y659356D01*
X570350Y656093D01*
X576110Y654947D01*
X578364Y655395D01*
X578819Y655091D01*
X582300Y654399D01*
X771278D01*
X846542Y579135D01*
X849493Y577163D01*
X852974Y576471D01*
X1317321D01*
X1321991Y573350D01*
X1327752Y572204D01*
X1333512Y573350D01*
X1338396Y576613D01*
X1341659Y581496D01*
X1342805Y587257D01*
X1341659Y593017D01*
X1338396Y597901D01*
X1333512Y601164D01*
X1327752Y602310D01*
X1321991Y601164D01*
X1317108Y597901D01*
X1314944Y594663D01*
X1154065D01*
X1150666Y600663D01*
X1152087Y603034D01*
X1166261D01*
X1170524Y603882D01*
X1174137Y606297D01*
X1295284Y727443D01*
X1385421D01*
X1404826Y708038D01*
X1449497Y663367D01*
X1453111Y660952D01*
X1457374Y660105D01*
X1576275D01*
X1586792Y649588D01*
X1590406Y647173D01*
X1594669Y646325D01*
X1657722D01*
X1659500Y643980D01*
X1656987Y637362D01*
X1656935Y637352D01*
X1648795Y631913D01*
X1644905Y626091D01*
X1638166D01*
X1634276Y631913D01*
X1626136Y637352D01*
X1616535Y639261D01*
X1606935Y637352D01*
X1598795Y631913D01*
X1594905Y626091D01*
X1588166D01*
X1584276Y631913D01*
X1576136Y637352D01*
X1566535Y639261D01*
X1556935Y637352D01*
X1548795Y631913D01*
X1544905Y626091D01*
X1538166D01*
X1534276Y631913D01*
X1526136Y637352D01*
X1516535Y639261D01*
X1506935Y637352D01*
X1499909Y632658D01*
X1493909Y634579D01*
Y641547D01*
X1470472D01*
Y614173D01*
Y586799D01*
X1493909D01*
Y593767D01*
X1499909Y595688D01*
X1506935Y590994D01*
X1516535Y589085D01*
X1526136Y590994D01*
X1534276Y596433D01*
X1538166Y602255D01*
X1544905D01*
X1548795Y596433D01*
X1555236Y592130D01*
X1555615Y590223D01*
X1555864Y589850D01*
Y154247D01*
X1556557Y150766D01*
X1558529Y147815D01*
X1570038Y136306D01*
Y126639D01*
X1568490Y125605D01*
X1565227Y120721D01*
X1564081Y114961D01*
X1565227Y109200D01*
X1568490Y104317D01*
X1573373Y101053D01*
X1579134Y99908D01*
X1584894Y101053D01*
X1589778Y104317D01*
X1590013Y104669D01*
X1597229D01*
X1598017Y103490D01*
X1602901Y100227D01*
X1608661Y99081D01*
X1614422Y100227D01*
X1619305Y103490D01*
X1621151Y106251D01*
X1627520Y104984D01*
X1627761Y103773D01*
X1631501Y98176D01*
X1637098Y94436D01*
X1643701Y93123D01*
X1650303Y94436D01*
X1655900Y98176D01*
X1659640Y103773D01*
X1660953Y110376D01*
X1659640Y116978D01*
X1655900Y122575D01*
X1650303Y126315D01*
X1643701Y127628D01*
X1637098Y126315D01*
X1631501Y122575D01*
X1628921Y118714D01*
X1622629Y119591D01*
X1622569Y119894D01*
X1619305Y124778D01*
X1617757Y125812D01*
Y134912D01*
X1617065Y138393D01*
X1615093Y141344D01*
X1587049Y169388D01*
Y574185D01*
X1605091Y592227D01*
X1606935Y590994D01*
X1616535Y589085D01*
X1626136Y590994D01*
X1634276Y596433D01*
X1638166Y602255D01*
X1644905D01*
X1648795Y596433D01*
X1656935Y590994D01*
X1666535Y589085D01*
X1676136Y590994D01*
X1684276Y596433D01*
X1688166Y602255D01*
X1694905D01*
X1698795Y596433D01*
X1706935Y590994D01*
X1716535Y589085D01*
X1726136Y590994D01*
X1729928Y593528D01*
X1735928Y590321D01*
Y507995D01*
X1653809Y425876D01*
X1650511Y420940D01*
X1649353Y415118D01*
Y380343D01*
X1648330Y375196D01*
X1649475Y369436D01*
X1652738Y364552D01*
X1657622Y361289D01*
X1663382Y360143D01*
X1669143Y361289D01*
X1674027Y364552D01*
X1674269Y364915D01*
X1675324Y365620D01*
X1678622Y370556D01*
X1679781Y376378D01*
Y408816D01*
X1761899Y490935D01*
X1765197Y495871D01*
X1766355Y501693D01*
Y687549D01*
X1765197Y693371D01*
X1761899Y698307D01*
X1742130Y718076D01*
X1743950Y722470D01*
X1744931Y729921D01*
X1743950Y737373D01*
X1741074Y744316D01*
X1736499Y750279D01*
X1730536Y754854D01*
X1723593Y757730D01*
X1716142Y758711D01*
X1708690Y757730D01*
X1701747Y754854D01*
X1695784Y750279D01*
X1691209Y744316D01*
X1688333Y737373D01*
X1687352Y729921D01*
X1688333Y722470D01*
X1691209Y715527D01*
X1695784Y709564D01*
X1701747Y704989D01*
X1708690Y702113D01*
X1716029Y701146D01*
X1735928Y681247D01*
Y638025D01*
X1729928Y634818D01*
X1726136Y637352D01*
X1716535Y639261D01*
X1706935Y637352D01*
X1704251Y635559D01*
X1674469Y665341D01*
X1670855Y667756D01*
X1666592Y668604D01*
X1599283D01*
X1588766Y679120D01*
X1585152Y681535D01*
X1580889Y682383D01*
X1466582D01*
X1465684Y683727D01*
X1468891Y689727D01*
X1492126D01*
X1495605Y690419D01*
X1498555Y692390D01*
X1511917Y705751D01*
X1516535Y704833D01*
X1526136Y706742D01*
X1534276Y712181D01*
X1538166Y718003D01*
X1544905D01*
X1548795Y712181D01*
X1556935Y706742D01*
X1566535Y704833D01*
X1576136Y706742D01*
X1584276Y712181D01*
X1588166Y718003D01*
X1594905D01*
X1598795Y712181D01*
X1606935Y706742D01*
X1616535Y704833D01*
X1626136Y706742D01*
X1634276Y712181D01*
X1639714Y720320D01*
X1641624Y729921D01*
X1639714Y739522D01*
X1634276Y747661D01*
X1626136Y753100D01*
X1616535Y755010D01*
X1606935Y753100D01*
X1598795Y747661D01*
X1594905Y741839D01*
X1588166D01*
X1584276Y747661D01*
X1576136Y753100D01*
X1566535Y755010D01*
X1556935Y753100D01*
X1548795Y747661D01*
X1544905Y741839D01*
X1538166D01*
X1534276Y747661D01*
X1526136Y753100D01*
X1516535Y755010D01*
X1506935Y753100D01*
X1498795Y747661D01*
X1496246Y743847D01*
X1489115Y743973D01*
X1478746Y754342D01*
X1454972D01*
X1437948Y771367D01*
X1440433Y777367D01*
X1948627D01*
Y10035D01*
X1722900D01*
X1721707Y16035D01*
X1725504Y17608D01*
X1730850Y21709D01*
X1734952Y27055D01*
X1737530Y33280D01*
X1738410Y39961D01*
Y49803D01*
X1712599D01*
X1686787D01*
Y39961D01*
X1687667Y33280D01*
X1690245Y27055D01*
X1694347Y21709D01*
X1699693Y17608D01*
X1703490Y16035D01*
X1702296Y10035D01*
X1463058D01*
X1461864Y16035D01*
X1465661Y17608D01*
X1471007Y21709D01*
X1475109Y27055D01*
X1477688Y33280D01*
X1478567Y39961D01*
Y49803D01*
X1452756D01*
Y53740D01*
X1448819D01*
Y92813D01*
X1446075Y92451D01*
X1439850Y89873D01*
X1434505Y85771D01*
X1430403Y80425D01*
X1427824Y74200D01*
X1422047Y74016D01*
Y74016D01*
X1399283D01*
Y88201D01*
X1402995Y89739D01*
X1409779Y94945D01*
X1414986Y101730D01*
X1418258Y109631D01*
X1419375Y118110D01*
X1418258Y126589D01*
X1414986Y134490D01*
X1409779Y141275D01*
X1402995Y146482D01*
X1399283Y148019D01*
Y247269D01*
X1397830D01*
X1397830Y324498D01*
X1397831Y326457D01*
X1397486Y328193D01*
X1397067Y330297D01*
X1397067Y330297D01*
X1395569Y333915D01*
X1395569Y333916D01*
X1394206Y335956D01*
X1393394Y337171D01*
X1390625Y339941D01*
X1390624Y339941D01*
X1390624Y339941D01*
X1388601Y341294D01*
X1387369Y342116D01*
X1385432Y347122D01*
X1386396Y351969D01*
X1385432Y356815D01*
X1382686Y360924D01*
X1378578Y363669D01*
X1373731Y364633D01*
X1368885Y363669D01*
X1364776Y360924D01*
X1362031Y356815D01*
X1361067Y351969D01*
X1362031Y347122D01*
X1364776Y343013D01*
X1362595Y337255D01*
X1362511Y337171D01*
X1360336Y333915D01*
X1358838Y330296D01*
X1358838Y330296D01*
X1358837Y330295D01*
X1358508Y328636D01*
X1358074Y326456D01*
X1358074Y326455D01*
X1358074Y326455D01*
X1358075Y324497D01*
Y247269D01*
X1191767D01*
X1188560Y253269D01*
X1189104Y254083D01*
X1190250Y259844D01*
X1189104Y265604D01*
X1185841Y270488D01*
X1180957Y273751D01*
X1175197Y274897D01*
X1169436Y273751D01*
X1164553Y270488D01*
X1161290Y265604D01*
X1160144Y259844D01*
X1161290Y254083D01*
X1161834Y253269D01*
X1158627Y247269D01*
X1062130D01*
Y10035D01*
X10035Y10035D01*
Y777367D01*
X902086D01*
D02*
G37*
%LPC*%
G36*
X872047Y641547D02*
X848610D01*
Y618110D01*
X872047D01*
Y641547D01*
D02*
G37*
G36*
X1378916Y718167D02*
X1375000Y717971D01*
X1371203Y717016D01*
X1367660Y715337D01*
X1364517Y713001D01*
X1364198Y712648D01*
X1359741Y710785D01*
X1356025Y711982D01*
X1353674Y713553D01*
X1347913Y714699D01*
X1342153Y713553D01*
X1337269Y710290D01*
X1334006Y705406D01*
X1332860Y699646D01*
X1334006Y693885D01*
X1337269Y689001D01*
X1342153Y685738D01*
X1347913Y684593D01*
X1352074Y685420D01*
X1358074Y682012D01*
X1358074Y433072D01*
X1358074Y431114D01*
X1358074Y431114D01*
X1358074Y431113D01*
X1358453Y429205D01*
X1358837Y427274D01*
X1358837Y427274D01*
X1358837Y427273D01*
X1360335Y423655D01*
X1360335Y423655D01*
X1360336Y423654D01*
X1361428Y422019D01*
X1362510Y420399D01*
X1362511Y420399D01*
X1362511Y420399D01*
X1364068Y418842D01*
X1364785Y412105D01*
X1364252Y411308D01*
X1362040Y407996D01*
X1361076Y403150D01*
X1362040Y398303D01*
X1364785Y394194D01*
X1368894Y391449D01*
X1373740Y390485D01*
X1378587Y391449D01*
X1382695Y394194D01*
X1385441Y398303D01*
X1386405Y403150D01*
X1385441Y407996D01*
X1385246Y408287D01*
X1385191Y408498D01*
X1387369Y415453D01*
X1387369Y415454D01*
X1390624Y417629D01*
X1393393Y420399D01*
X1395568Y423654D01*
X1397067Y427273D01*
X1397830Y431113D01*
X1397830Y433068D01*
X1397830Y433070D01*
X1397831Y698695D01*
X1397781Y698945D01*
X1397818Y699196D01*
X1397720Y701154D01*
X1396766Y704952D01*
X1395086Y708495D01*
X1392751Y711638D01*
X1389843Y714269D01*
X1386483Y716279D01*
X1382790Y717596D01*
X1382219Y717681D01*
X1378916Y718167D01*
D02*
G37*
G36*
X1893701Y682530D02*
X1884868Y680773D01*
X1877380Y675770D01*
X1872377Y668282D01*
X1870620Y659449D01*
X1872377Y650616D01*
X1877380Y643128D01*
X1884868Y638124D01*
X1893701Y636367D01*
X1902534Y638124D01*
X1910022Y643128D01*
X1915025Y650616D01*
X1916782Y659449D01*
X1915025Y668282D01*
X1910022Y675770D01*
X1902534Y680773D01*
X1893701Y682530D01*
D02*
G37*
G36*
X38386Y665801D02*
X32625Y664655D01*
X27742Y661392D01*
X24479Y656508D01*
X23333Y650748D01*
X24479Y644987D01*
X27742Y640104D01*
X32625Y636841D01*
X38386Y635695D01*
X44146Y636841D01*
X49030Y640104D01*
X52293Y644987D01*
X53439Y650748D01*
X52293Y656508D01*
X49030Y661392D01*
X44146Y664655D01*
X38386Y665801D01*
D02*
G37*
G36*
X1462598Y641547D02*
X1439161D01*
Y618110D01*
X1462598D01*
Y641547D01*
D02*
G37*
G36*
X282427Y768042D02*
X276667Y766897D01*
X271783Y763634D01*
X268520Y758750D01*
X267374Y752989D01*
X268520Y747229D01*
X271783Y742345D01*
X276667Y739082D01*
X282427Y737936D01*
X285456Y738539D01*
X345799Y678196D01*
Y418124D01*
X346414Y415033D01*
X348165Y412413D01*
X368632Y391946D01*
X371252Y390195D01*
X374343Y389581D01*
X377356D01*
X379072Y387013D01*
X383955Y383750D01*
X389716Y382604D01*
X392888Y383235D01*
X397996Y379483D01*
X397947Y376878D01*
X392227Y374034D01*
X391251Y374686D01*
X385491Y375832D01*
X379730Y374686D01*
X374846Y371423D01*
X371583Y366539D01*
X370438Y360779D01*
X371583Y355018D01*
X374846Y350134D01*
X379730Y346871D01*
X380425Y346733D01*
X382401Y340223D01*
X300254Y258076D01*
X252237D01*
X250522Y260644D01*
X245638Y263907D01*
X239877Y265053D01*
X234117Y263907D01*
X231586Y262216D01*
X225586Y265164D01*
Y572516D01*
X267587Y614517D01*
X270616Y613915D01*
X276376Y615060D01*
X281260Y618323D01*
X284523Y623207D01*
X285669Y628968D01*
X284523Y634728D01*
X287450Y641148D01*
X290118Y642931D01*
X293382Y647815D01*
X294527Y653575D01*
X293382Y659336D01*
X290118Y664219D01*
X285235Y667482D01*
X279474Y668628D01*
X273714Y667482D01*
X268830Y664219D01*
X265567Y659336D01*
X264421Y653575D01*
X265567Y647815D01*
X262640Y641395D01*
X259972Y639612D01*
X256709Y634728D01*
X255563Y628968D01*
X256165Y625939D01*
X211799Y581573D01*
X210048Y578953D01*
X209433Y575862D01*
Y570898D01*
X203603Y567587D01*
X203433Y567615D01*
X197835Y568729D01*
X192074Y567583D01*
X187190Y564320D01*
X183927Y559436D01*
X182782Y553676D01*
X183927Y547915D01*
X187190Y543032D01*
X192074Y539768D01*
X197835Y538623D01*
X203433Y539736D01*
X203603Y539764D01*
X209433Y536453D01*
Y407934D01*
X203433Y404727D01*
X201331Y406132D01*
X195571Y407278D01*
X189810Y406132D01*
X184927Y402869D01*
X181663Y397985D01*
X180518Y392225D01*
X181663Y386464D01*
X184927Y381581D01*
X189810Y378317D01*
X195571Y377172D01*
X201331Y378317D01*
X203433Y379722D01*
X209433Y376515D01*
Y147639D01*
X199879Y138085D01*
X196850Y138687D01*
X191090Y137542D01*
X186206Y134278D01*
X182943Y129395D01*
X181797Y123634D01*
X182943Y117874D01*
X186206Y112990D01*
X191090Y109727D01*
X196850Y108581D01*
X202611Y109727D01*
X207494Y112990D01*
X210758Y117874D01*
X211903Y123634D01*
X211301Y126663D01*
X223221Y138583D01*
X224972Y141203D01*
X225586Y144294D01*
Y234836D01*
X231586Y237784D01*
X234117Y236093D01*
X239877Y234947D01*
X245638Y236093D01*
X250522Y239356D01*
X252237Y241923D01*
X303600D01*
X306690Y242538D01*
X309311Y244289D01*
X382184Y317163D01*
X388184Y314677D01*
Y273541D01*
X327101Y212458D01*
X324110Y213053D01*
X318350Y211907D01*
X313466Y208644D01*
X310203Y203760D01*
X309057Y198000D01*
X310203Y192239D01*
X313466Y187356D01*
X318350Y184093D01*
X324110Y182947D01*
X329871Y184093D01*
X334754Y187356D01*
X338017Y192239D01*
X339163Y198000D01*
X338706Y200300D01*
X342522Y203815D01*
X347679Y201127D01*
X347057Y198000D01*
X348203Y192239D01*
X351466Y187356D01*
X354592Y185267D01*
X356267Y178457D01*
X346320Y168510D01*
X290903D01*
X289187Y171077D01*
X284304Y174340D01*
X278543Y175486D01*
X272783Y174340D01*
X267899Y171077D01*
X264636Y166194D01*
X263490Y160433D01*
X264636Y154673D01*
X267899Y149789D01*
X272783Y146526D01*
X278543Y145380D01*
X284304Y146526D01*
X289187Y149789D01*
X290903Y152357D01*
X349665D01*
X352756Y152971D01*
X355376Y154722D01*
X423878Y223224D01*
X425629Y225844D01*
X426244Y228935D01*
Y306465D01*
X446564Y326785D01*
X448315Y329405D01*
X448930Y332496D01*
Y340117D01*
X454825Y343394D01*
X460586Y342248D01*
X466346Y343394D01*
X471230Y346657D01*
X474493Y351540D01*
X475639Y357301D01*
X474493Y363061D01*
X471230Y367945D01*
X466346Y371208D01*
X460586Y372354D01*
X454825Y371208D01*
X448930Y374485D01*
Y410925D01*
X471844Y433840D01*
X477374Y430884D01*
X477030Y429155D01*
X478176Y423394D01*
X481439Y418511D01*
X486323Y415248D01*
X492083Y414102D01*
X497844Y415248D01*
X502727Y418511D01*
X505990Y423394D01*
X507136Y429155D01*
X509801Y431819D01*
X515561Y432965D01*
X519687Y435722D01*
X522877Y434858D01*
X525687Y433274D01*
Y279235D01*
X350985Y104533D01*
X322631D01*
X320916Y107101D01*
X316032Y110364D01*
X310272Y111510D01*
X304511Y110364D01*
X299627Y107101D01*
X296364Y102217D01*
X295219Y96457D01*
X296364Y90696D01*
X299627Y85812D01*
X304511Y82549D01*
X310272Y81404D01*
X316032Y82549D01*
X320916Y85812D01*
X322631Y88380D01*
X354331D01*
X357421Y88995D01*
X360041Y90746D01*
X362827Y93531D01*
X369337Y91556D01*
X369508Y90696D01*
X372771Y85812D01*
X377655Y82549D01*
X383415Y81404D01*
X389176Y82549D01*
X394060Y85812D01*
X397323Y90696D01*
X398468Y96457D01*
X397323Y102217D01*
X394060Y107101D01*
X389176Y110364D01*
X388316Y110535D01*
X386341Y117045D01*
X497596Y228300D01*
X503126Y225345D01*
X503057Y225000D01*
X504203Y219239D01*
X507466Y214356D01*
X512350Y211093D01*
X518110Y209947D01*
X523871Y211093D01*
X528754Y214356D01*
X532017Y219239D01*
X533163Y225000D01*
X532017Y230760D01*
X528754Y235644D01*
X523871Y238907D01*
X518110Y240053D01*
X517766Y239984D01*
X514810Y245514D01*
X539475Y270179D01*
X541225Y272799D01*
X541840Y275890D01*
Y511085D01*
X541225Y514176D01*
X539475Y516796D01*
X496187Y560084D01*
Y575979D01*
X496760Y576093D01*
X501644Y579356D01*
X504907Y584240D01*
X506053Y590000D01*
X504907Y595760D01*
X501644Y600644D01*
X496760Y603907D01*
X491000Y605053D01*
X485240Y603907D01*
X483777Y602930D01*
X480480Y604388D01*
X478154Y606389D01*
Y618348D01*
X480722Y620063D01*
X483985Y624947D01*
X485131Y630707D01*
X483985Y636468D01*
X480722Y641351D01*
X475838Y644615D01*
X470078Y645760D01*
X464317Y644615D01*
X459434Y641351D01*
X456795Y637403D01*
X453841Y636811D01*
X453666Y636807D01*
X450214Y637275D01*
X447652Y641109D01*
X442768Y644372D01*
X437008Y645518D01*
X433321Y644784D01*
X427320Y648415D01*
Y703070D01*
X431851Y707570D01*
X437611Y708716D01*
X442495Y711979D01*
X445758Y716862D01*
X446904Y722623D01*
X445758Y728383D01*
X442495Y733267D01*
X437611Y736530D01*
X431851Y737676D01*
X426090Y736530D01*
X421207Y733267D01*
X417943Y728383D01*
X416798Y722623D01*
X417638Y718398D01*
X413533Y714293D01*
X411782Y711673D01*
X411168Y708582D01*
Y588950D01*
X405388Y585620D01*
X405168Y585649D01*
X399608Y586754D01*
X393848Y585609D01*
X388964Y582345D01*
X385701Y577462D01*
X384555Y571701D01*
X385701Y565941D01*
X388964Y561057D01*
X393848Y557794D01*
X399608Y556648D01*
X405168Y557754D01*
X405388Y557783D01*
X411168Y554452D01*
Y539912D01*
X411782Y536821D01*
X413533Y534201D01*
X416252Y531482D01*
X414430Y524818D01*
X410931Y522480D01*
X407668Y517596D01*
X406522Y511836D01*
X407668Y506075D01*
X410931Y501192D01*
X410935Y501189D01*
Y496888D01*
X407671Y492005D01*
X406526Y486244D01*
X407671Y480483D01*
X410935Y475600D01*
X415818Y472337D01*
X420069Y471491D01*
X422162Y467212D01*
X422432Y465369D01*
X402315Y445253D01*
X400565Y442632D01*
X399950Y439542D01*
Y415242D01*
X393950Y411868D01*
X389716Y412710D01*
X383955Y411564D01*
X379072Y408301D01*
X375475Y407947D01*
X361952Y421469D01*
Y681541D01*
X361337Y684632D01*
X359587Y687252D01*
X296878Y749961D01*
X297480Y752989D01*
X296334Y758750D01*
X293071Y763634D01*
X288188Y766897D01*
X282427Y768042D01*
D02*
G37*
G36*
X592110Y636053D02*
X586350Y634907D01*
X581466Y631644D01*
X578203Y626760D01*
X577057Y621000D01*
X578203Y615239D01*
X581466Y610356D01*
X586350Y607093D01*
X592110Y605947D01*
X597871Y607093D01*
X602754Y610356D01*
X604470Y612923D01*
X614328D01*
X619431Y607820D01*
X618273Y600493D01*
X616783Y599733D01*
X611022Y600879D01*
X605262Y599733D01*
X600378Y596470D01*
X597115Y591586D01*
X595969Y585826D01*
X597115Y580065D01*
X600378Y575182D01*
X605262Y571918D01*
X611022Y570773D01*
X616783Y571918D01*
X621667Y575182D01*
X624930Y580065D01*
X625409Y582475D01*
X791930D01*
X1051370Y323035D01*
X1053990Y321284D01*
X1057081Y320670D01*
X1188729D01*
X1191820Y321284D01*
X1194440Y323035D01*
X1206082Y334677D01*
X1207833Y337297D01*
X1208448Y340388D01*
Y355593D01*
X1211389Y357559D01*
X1214652Y362442D01*
X1215798Y368203D01*
X1214652Y373963D01*
X1211389Y378847D01*
X1206506Y382110D01*
X1200745Y383256D01*
X1194985Y382110D01*
X1190101Y378847D01*
X1186838Y373963D01*
X1185692Y368203D01*
X1180497Y363673D01*
X1174737Y362527D01*
X1169853Y359264D01*
X1168138Y356697D01*
X1087105D01*
X1086514Y362696D01*
X1090406Y363471D01*
X1095290Y366734D01*
X1098553Y371617D01*
X1099699Y377378D01*
X1098553Y383138D01*
X1095290Y388022D01*
X1090406Y391285D01*
X1084646Y392431D01*
X1078885Y391285D01*
X1074002Y388022D01*
X1070738Y383138D01*
X1069593Y377378D01*
X1070738Y371617D01*
X1074002Y366734D01*
X1078885Y363471D01*
X1082777Y362696D01*
X1082186Y356697D01*
X1057322D01*
X805898Y608120D01*
X803278Y609871D01*
X800187Y610486D01*
X639609D01*
X623384Y626711D01*
X620764Y628462D01*
X617673Y629076D01*
X604470D01*
X602754Y631644D01*
X597871Y634907D01*
X592110Y636053D01*
D02*
G37*
G36*
X1462598Y610236D02*
X1439161D01*
Y586799D01*
X1462598D01*
Y610236D01*
D02*
G37*
G36*
X60960Y581025D02*
X55199Y579880D01*
X50316Y576616D01*
X47053Y571733D01*
X45907Y565972D01*
X47053Y560212D01*
X50316Y555328D01*
X55199Y552065D01*
X60960Y550919D01*
X66720Y552065D01*
X71604Y555328D01*
X74867Y560212D01*
X76013Y565972D01*
X74867Y571733D01*
X71604Y576616D01*
X66720Y579880D01*
X60960Y581025D01*
D02*
G37*
G36*
X280514Y586986D02*
X274753Y585841D01*
X269870Y582577D01*
X266607Y577694D01*
X265461Y571933D01*
X266607Y566173D01*
X269870Y561289D01*
X271482Y560212D01*
Y407283D01*
X272170Y403826D01*
X274127Y400896D01*
X320367Y354657D01*
X319988Y352755D01*
X321134Y346995D01*
X324397Y342111D01*
X329281Y338848D01*
X335041Y337702D01*
X340802Y338848D01*
X345685Y342111D01*
X348949Y346995D01*
X350094Y352755D01*
X348949Y358516D01*
X345685Y363399D01*
X340802Y366662D01*
X335041Y367808D01*
X333140Y367430D01*
X301660Y398910D01*
X303635Y405420D01*
X304975Y405687D01*
X309859Y408950D01*
X313122Y413833D01*
X314268Y419594D01*
X313122Y425354D01*
X309859Y430238D01*
X304975Y433501D01*
X299215Y434647D01*
X295546Y433917D01*
X289546Y437556D01*
Y539013D01*
X295546Y542284D01*
X300000Y541398D01*
X305760Y542543D01*
X310644Y545807D01*
X313907Y550690D01*
X315053Y556451D01*
X313907Y562211D01*
X310644Y567095D01*
X305760Y570358D01*
X300000Y571504D01*
X294647Y576557D01*
X294421Y577694D01*
X291158Y582577D01*
X286274Y585841D01*
X280514Y586986D01*
D02*
G37*
G36*
X500766Y759729D02*
X495005Y758583D01*
X490122Y755320D01*
X486858Y750436D01*
X485713Y744676D01*
X486858Y738915D01*
X490122Y734032D01*
X495005Y730769D01*
X500766Y729623D01*
X503794Y730225D01*
X509640Y724380D01*
Y632294D01*
X510255Y629203D01*
X512006Y626583D01*
X573057Y565531D01*
Y539963D01*
X567057Y539373D01*
X566074Y544314D01*
X562811Y549198D01*
X557927Y552461D01*
X552167Y553607D01*
X546406Y552461D01*
X541523Y549198D01*
X538260Y544314D01*
X537114Y538554D01*
X538260Y532793D01*
X541523Y527910D01*
X546406Y524647D01*
X552167Y523501D01*
X557927Y524647D01*
X562811Y527910D01*
X566074Y532793D01*
X567057Y537735D01*
X573057Y537144D01*
Y224315D01*
X571127Y223025D01*
X567864Y218142D01*
X566718Y212381D01*
X567791Y206988D01*
X568252Y200962D01*
X565989Y199450D01*
X563368Y197699D01*
X560105Y192815D01*
X558960Y187055D01*
X560105Y181294D01*
X563368Y176411D01*
X568252Y173148D01*
X574013Y172002D01*
X579773Y173148D01*
X584657Y176411D01*
X587920Y181294D01*
X589066Y187055D01*
X587993Y192448D01*
X587532Y198474D01*
X589795Y199986D01*
X592415Y201737D01*
X595679Y206621D01*
X596824Y212381D01*
X595679Y218142D01*
X592415Y223025D01*
X589210Y225167D01*
Y568877D01*
X588595Y571968D01*
X586845Y574588D01*
X525793Y635639D01*
Y727725D01*
X525178Y730816D01*
X523428Y733436D01*
X515216Y741647D01*
X515819Y744676D01*
X514673Y750436D01*
X511410Y755320D01*
X506526Y758583D01*
X500766Y759729D01*
D02*
G37*
G36*
X1192000Y556053D02*
X1186239Y554907D01*
X1181356Y551644D01*
X1178093Y546760D01*
X1176947Y541000D01*
X1178093Y535240D01*
X1181356Y530356D01*
X1186239Y527093D01*
X1192000Y525947D01*
X1197761Y527093D01*
X1202644Y530356D01*
X1205907Y535240D01*
X1207053Y541000D01*
X1205907Y546760D01*
X1202644Y551644D01*
X1197761Y554907D01*
X1192000Y556053D01*
D02*
G37*
G36*
X1893701Y564420D02*
X1884868Y562663D01*
X1877380Y557659D01*
X1872377Y550171D01*
X1870620Y541338D01*
X1872377Y532506D01*
X1877380Y525018D01*
X1884868Y520014D01*
X1893701Y518257D01*
X1902534Y520014D01*
X1910022Y525018D01*
X1915025Y532506D01*
X1916782Y541338D01*
X1915025Y550171D01*
X1910022Y557659D01*
X1902534Y562663D01*
X1893701Y564420D01*
D02*
G37*
G36*
X1126378Y559497D02*
X1118927Y558516D01*
X1111984Y555640D01*
X1106021Y551065D01*
X1101446Y545102D01*
X1098570Y538159D01*
X1097589Y530707D01*
X1098570Y523256D01*
X1101446Y516313D01*
X1106021Y510350D01*
X1111984Y505775D01*
X1118927Y502899D01*
X1126378Y501918D01*
X1133830Y502899D01*
X1140773Y505775D01*
X1146736Y510350D01*
X1151311Y516313D01*
X1154187Y523256D01*
X1155168Y530707D01*
X1154187Y538159D01*
X1151311Y545102D01*
X1146736Y551065D01*
X1140773Y555640D01*
X1133830Y558516D01*
X1126378Y559497D01*
D02*
G37*
G36*
X1065869Y429134D02*
X1060108Y427988D01*
X1055225Y424725D01*
X1051961Y419841D01*
X1050816Y414081D01*
X1051961Y408320D01*
X1055225Y403437D01*
X1060108Y400173D01*
X1065869Y399028D01*
X1071629Y400173D01*
X1076513Y403437D01*
X1079776Y408320D01*
X1080922Y414081D01*
X1079776Y419841D01*
X1076513Y424725D01*
X1071629Y427988D01*
X1065869Y429134D01*
D02*
G37*
G36*
X123955Y708984D02*
X118195Y707839D01*
X113311Y704576D01*
X110048Y699692D01*
X108902Y693931D01*
X110048Y688171D01*
X113311Y683287D01*
X115879Y681572D01*
Y275604D01*
X116493Y272513D01*
X118244Y269893D01*
X154782Y233355D01*
X154180Y230326D01*
X155326Y224566D01*
X158589Y219682D01*
X163472Y216419D01*
X169233Y215273D01*
X174993Y216419D01*
X179877Y219682D01*
X183140Y224566D01*
X184286Y230326D01*
X183140Y236087D01*
X179877Y240970D01*
X174993Y244233D01*
X169233Y245379D01*
X166204Y244777D01*
X132031Y278949D01*
Y395248D01*
X133025Y395960D01*
X140931Y394868D01*
X145814Y391604D01*
X151575Y390459D01*
X157335Y391604D01*
X162219Y394868D01*
X165482Y399751D01*
X166628Y405512D01*
X165482Y411272D01*
X162219Y416156D01*
X157335Y419419D01*
X151575Y420565D01*
X145814Y419419D01*
X140931Y416156D01*
X133025Y415064D01*
X132031Y415776D01*
Y681572D01*
X134599Y683287D01*
X137862Y688171D01*
X139008Y693931D01*
X137862Y699692D01*
X134599Y704576D01*
X129715Y707839D01*
X123955Y708984D01*
D02*
G37*
G36*
X1499258Y403263D02*
X1493497Y402117D01*
X1488614Y398854D01*
X1485351Y393971D01*
X1484205Y388210D01*
X1485351Y382450D01*
X1488614Y377566D01*
X1493497Y374303D01*
X1499258Y373157D01*
X1505018Y374303D01*
X1509902Y377566D01*
X1513165Y382450D01*
X1514311Y388210D01*
X1513165Y393971D01*
X1509902Y398854D01*
X1505018Y402117D01*
X1499258Y403263D01*
D02*
G37*
G36*
X258911Y388281D02*
X253151Y387135D01*
X248267Y383872D01*
X245004Y378988D01*
X243858Y373228D01*
X245004Y367467D01*
X248267Y362583D01*
X253151Y359320D01*
X258911Y358175D01*
X264672Y359320D01*
X269555Y362583D01*
X272818Y367467D01*
X273964Y373228D01*
X272818Y378988D01*
X269555Y383872D01*
X264672Y387135D01*
X258911Y388281D01*
D02*
G37*
G36*
X1282110Y386053D02*
X1276350Y384907D01*
X1271466Y381644D01*
X1268203Y376760D01*
X1267057Y371000D01*
X1268203Y365239D01*
X1271466Y360356D01*
X1276350Y357093D01*
X1282110Y355947D01*
X1287871Y357093D01*
X1292754Y360356D01*
X1296017Y365239D01*
X1297163Y371000D01*
X1296017Y376760D01*
X1292754Y381644D01*
X1287871Y384907D01*
X1282110Y386053D01*
D02*
G37*
G36*
X916110Y371053D02*
X910350Y369907D01*
X905466Y366644D01*
X902203Y361760D01*
X901057Y356000D01*
X902203Y350239D01*
X905466Y345356D01*
X910350Y342093D01*
X916110Y340947D01*
X921871Y342093D01*
X926754Y345356D01*
X930017Y350239D01*
X931163Y356000D01*
X930017Y361760D01*
X926754Y366644D01*
X921871Y369907D01*
X916110Y371053D01*
D02*
G37*
G36*
X1893799Y339553D02*
X1888039Y338407D01*
X1883155Y335144D01*
X1879892Y330260D01*
X1878746Y324500D01*
X1879892Y318739D01*
X1883155Y313856D01*
X1888039Y310593D01*
X1893799Y309447D01*
X1899560Y310593D01*
X1904443Y313856D01*
X1907706Y318739D01*
X1908852Y324500D01*
X1907706Y330260D01*
X1904443Y335144D01*
X1899560Y338407D01*
X1893799Y339553D01*
D02*
G37*
G36*
X914110Y330053D02*
X908350Y328907D01*
X903466Y325644D01*
X900203Y320760D01*
X899057Y315000D01*
X900203Y309239D01*
X903466Y304356D01*
X908350Y301093D01*
X914110Y299947D01*
X919871Y301093D01*
X924754Y304356D01*
X928017Y309239D01*
X929163Y315000D01*
X928017Y320760D01*
X924754Y325644D01*
X919871Y328907D01*
X914110Y330053D01*
D02*
G37*
G36*
X809055Y323212D02*
X803295Y322066D01*
X798411Y318803D01*
X795148Y313919D01*
X794002Y308159D01*
X795148Y302398D01*
X798411Y297515D01*
X803295Y294252D01*
X809055Y293106D01*
X814816Y294252D01*
X819699Y297515D01*
X822962Y302398D01*
X824108Y308159D01*
X822962Y313919D01*
X819699Y318803D01*
X814816Y322066D01*
X809055Y323212D01*
D02*
G37*
G36*
X91535Y314029D02*
X85775Y312884D01*
X80891Y309620D01*
X77628Y304737D01*
X76482Y298976D01*
X77628Y293216D01*
X80891Y288332D01*
X85775Y285069D01*
X91535Y283923D01*
X97296Y285069D01*
X102180Y288332D01*
X105443Y293216D01*
X106588Y298976D01*
X105443Y304737D01*
X102180Y309620D01*
X97296Y312884D01*
X91535Y314029D01*
D02*
G37*
G36*
X614110Y260053D02*
X608350Y258907D01*
X603466Y255644D01*
X600203Y250760D01*
X599057Y245000D01*
X600203Y239239D01*
X603466Y234356D01*
X608350Y231093D01*
X614110Y229947D01*
X619871Y231093D01*
X624754Y234356D01*
X628017Y239239D01*
X629163Y245000D01*
X628017Y250760D01*
X624754Y255644D01*
X619871Y258907D01*
X614110Y260053D01*
D02*
G37*
G36*
X529528Y164659D02*
X523767Y163513D01*
X518883Y160250D01*
X515620Y155367D01*
X514475Y149606D01*
X515620Y143846D01*
X518883Y138962D01*
X523767Y135699D01*
X529528Y134553D01*
X535288Y135699D01*
X540172Y138962D01*
X543435Y143846D01*
X544581Y149606D01*
X543435Y155367D01*
X540172Y160250D01*
X535288Y163513D01*
X529528Y164659D01*
D02*
G37*
G36*
X1874016Y163316D02*
X1867413Y162002D01*
X1861816Y158263D01*
X1858076Y152665D01*
X1856763Y146063D01*
X1858076Y139461D01*
X1861816Y133863D01*
X1867413Y130124D01*
X1874016Y128810D01*
X1880618Y130124D01*
X1886215Y133863D01*
X1889955Y139461D01*
X1891268Y146063D01*
X1889955Y152665D01*
X1886215Y158263D01*
X1880618Y162002D01*
X1874016Y163316D01*
D02*
G37*
G36*
X566929Y150880D02*
X561169Y149734D01*
X556285Y146471D01*
X553022Y141587D01*
X551876Y135827D01*
X553022Y130066D01*
X556285Y125183D01*
X561169Y121919D01*
X566929Y120774D01*
X572690Y121919D01*
X577573Y125183D01*
X580836Y130066D01*
X581982Y135827D01*
X580836Y141587D01*
X577573Y146471D01*
X572690Y149734D01*
X566929Y150880D01*
D02*
G37*
G36*
X93399Y121725D02*
X87638Y120580D01*
X82754Y117317D01*
X79491Y112433D01*
X78346Y106672D01*
X78523Y105783D01*
X73598Y99783D01*
X62205D01*
Y66318D01*
X95669D01*
Y92071D01*
X99159Y92765D01*
X104043Y96028D01*
X107306Y100912D01*
X108452Y106672D01*
X107306Y112433D01*
X104043Y117317D01*
X99159Y120580D01*
X93399Y121725D01*
D02*
G37*
G36*
X54331Y99783D02*
X20866D01*
Y66318D01*
X54331D01*
Y99783D01*
D02*
G37*
G36*
X1456693Y92813D02*
Y57678D01*
X1478567D01*
Y67520D01*
X1477688Y74200D01*
X1475109Y80425D01*
X1471007Y85771D01*
X1465661Y89873D01*
X1459436Y92451D01*
X1456693Y92813D01*
D02*
G37*
G36*
X1716536Y92813D02*
Y57677D01*
X1738410D01*
Y67520D01*
X1737530Y74200D01*
X1734952Y80425D01*
X1730850Y85771D01*
X1725504Y89873D01*
X1719279Y92451D01*
X1716536Y92813D01*
D02*
G37*
G36*
X1708662D02*
X1705918Y92451D01*
X1699693Y89873D01*
X1694347Y85771D01*
X1690245Y80425D01*
X1687667Y74200D01*
X1686787Y67520D01*
Y57677D01*
X1708662D01*
Y92813D01*
D02*
G37*
G36*
X158268Y97127D02*
X149275Y95943D01*
X140895Y92472D01*
X133698Y86950D01*
X128177Y79754D01*
X124706Y71374D01*
X123522Y62381D01*
X124706Y53388D01*
X128177Y45008D01*
X133698Y37812D01*
X140895Y32290D01*
X149275Y28819D01*
X158268Y27635D01*
X167261Y28819D01*
X175641Y32290D01*
X182837Y37812D01*
X188359Y45008D01*
X191830Y53388D01*
X193014Y62381D01*
X191830Y71374D01*
X188359Y79754D01*
X182837Y86950D01*
X175641Y92472D01*
X167261Y95943D01*
X158268Y97127D01*
D02*
G37*
G36*
X95669Y58444D02*
X62205D01*
Y24980D01*
X95669D01*
Y58444D01*
D02*
G37*
G36*
X54331D02*
X20866D01*
Y24980D01*
X54331D01*
Y58444D01*
D02*
G37*
%LPD*%
G36*
X476726Y586081D02*
X477093Y584240D01*
X480034Y579838D01*
Y556739D01*
X480649Y553648D01*
X482399Y551028D01*
X525687Y507740D01*
Y460470D01*
X522877Y458887D01*
X519687Y458022D01*
X515561Y460779D01*
X511808Y461526D01*
X506318Y464682D01*
X505172Y470443D01*
X501909Y475326D01*
X497846Y478041D01*
X492919Y481467D01*
X494065Y487227D01*
X492919Y492988D01*
X489656Y497871D01*
X484772Y501134D01*
X479012Y502280D01*
X475325Y501547D01*
X469324Y505177D01*
Y588640D01*
X470119Y589116D01*
X476726Y586081D01*
D02*
G37*
D54*
X1608661Y114134D02*
Y134912D01*
X1577953Y165621D02*
X1608661Y134912D01*
X1577953Y165621D02*
Y577953D01*
X1579134Y114961D02*
Y140073D01*
X1564961Y154247D02*
X1579134Y140073D01*
X1564961Y154247D02*
Y594095D01*
X1577953Y577953D02*
X1614173Y614173D01*
X582300Y663495D02*
X775046D01*
X852974Y585567D01*
X1326062D01*
X1327752Y587257D01*
X1614173Y614173D02*
X1616535D01*
X628160Y682258D02*
X665388Y719487D01*
X577110Y668685D02*
X582300Y663495D01*
X865550Y719487D02*
X875984Y729921D01*
X665388Y719487D02*
X865550D01*
D57*
X1564961Y594095D02*
Y618110D01*
X1075984Y629921D02*
X1076772Y629134D01*
D58*
X280514Y407283D02*
Y571933D01*
Y407283D02*
X335041Y352755D01*
D60*
X610439Y590551D02*
X795276D01*
X488110Y556739D02*
Y592500D01*
X636264Y602409D02*
X800187D01*
X617673Y621000D02*
X636264Y602409D01*
X795276Y590551D02*
X1057081Y328746D01*
X592110Y621000D02*
X617673D01*
X800187Y602409D02*
X1053977Y348620D01*
X1180497D01*
X470078Y605416D02*
Y630707D01*
X461248Y596586D02*
X470078Y605416D01*
X440853Y332496D02*
Y414270D01*
X419244Y539912D02*
X439342Y519813D01*
Y470858D02*
Y519813D01*
X419244Y539912D02*
Y708582D01*
X431851Y721189D01*
Y722623D01*
X461248Y459350D02*
Y596586D01*
X123955Y275604D02*
Y693931D01*
Y275604D02*
X169233Y230326D01*
X374343Y397657D02*
X389716D01*
X353876Y418124D02*
X374343Y397657D01*
X353876Y418124D02*
Y681541D01*
X408026Y354426D02*
Y439542D01*
X429932Y337020D02*
Y428034D01*
X408026Y439542D02*
X439342Y470858D01*
X429932Y428034D02*
X461248Y459350D01*
X418167Y309810D02*
X440853Y332496D01*
X407246Y314334D02*
X429932Y337020D01*
X303600Y250000D02*
X408026Y354426D01*
X440853Y414270D02*
X491265Y464682D01*
X533764Y275890D02*
Y511085D01*
X239877Y250000D02*
X303600D01*
X407246Y243136D02*
Y314334D01*
X418167Y228935D02*
Y309810D01*
X282427Y752989D02*
X353876Y681541D01*
X217510Y575862D02*
X270616Y628968D01*
X217510Y144294D02*
Y575862D01*
X500766Y744676D02*
X517716Y727725D01*
Y632294D02*
Y727725D01*
Y632294D02*
X581134Y568877D01*
Y213019D02*
Y568877D01*
X354331Y96457D02*
X533764Y275890D01*
X310272Y96457D02*
X354331D01*
X362110Y198000D02*
X407246Y243136D01*
X196850Y123634D02*
X217510Y144294D01*
X278543Y160433D02*
X349665D01*
X418167Y228935D01*
X581134Y213019D02*
X581771Y212381D01*
X488110Y556739D02*
X533764Y511085D01*
X1200371Y340388D02*
Y367829D01*
X1200745Y368203D01*
X1188729Y328746D02*
X1200371Y340388D01*
X1057081Y328746D02*
X1188729D01*
D61*
X1443661Y54685D02*
X1445669Y56693D01*
X1402717Y54685D02*
X1443661D01*
X1386614Y38583D02*
X1402717Y54685D01*
X1062004Y698223D02*
X1117325Y753543D01*
X957683Y698223D02*
X1062004D01*
X925984Y729921D02*
X957683Y698223D01*
X1455777Y698819D02*
X1492126D01*
X1401052Y753543D02*
X1455777Y698819D01*
X1117325Y753543D02*
X1401052D01*
X915551Y769488D02*
X1426968D01*
X1466535Y729921D01*
X875984D02*
X915551Y769488D01*
X1492126Y698819D02*
X1515748Y722441D01*
D63*
X1706693Y731998D02*
X1751142Y687549D01*
Y501693D02*
Y687549D01*
X1664567Y376378D02*
Y415118D01*
X1751142Y501693D01*
D64*
X437008Y537637D02*
X450295Y524350D01*
Y463887D02*
Y524350D01*
X437008Y537637D02*
Y630465D01*
X418979Y341557D02*
Y432571D01*
X450295Y463887D01*
X396293Y318870D02*
X418979Y341557D01*
X396293Y270183D02*
Y318870D01*
X324110Y198000D02*
X396293Y270183D01*
D67*
X1616535Y729921D02*
D03*
X1566535D02*
D03*
X1516535D02*
D03*
X925984D02*
D03*
X975984D02*
D03*
X1025984D02*
D03*
X925984Y614173D02*
D03*
X975984D02*
D03*
X1025984D02*
D03*
X1075984D02*
D03*
X1125984D02*
D03*
X1716535D02*
D03*
X1666535D02*
D03*
X1616535D02*
D03*
X1566535D02*
D03*
X1516535D02*
D03*
D68*
X1466535Y729921D02*
D03*
X875984D02*
D03*
D69*
X1893701Y659449D02*
D03*
Y541338D02*
D03*
D70*
X1712599Y53740D02*
D03*
X1452756D02*
D03*
D71*
X1373740Y403150D02*
D03*
X1373731Y351969D02*
D03*
D72*
X875984Y614173D02*
D03*
X1466535D02*
D03*
D73*
X158268Y62381D02*
D03*
D74*
X58268D02*
D03*
D75*
X1126378Y530707D02*
D03*
X1716142Y729921D02*
D03*
D76*
X1386614Y118110D02*
D03*
D77*
Y38583D02*
D03*
D78*
X1661417Y307087D02*
D03*
Y267717D02*
D03*
X1622047Y307087D02*
D03*
Y267716D02*
D03*
X1643701Y110376D02*
D03*
X1704721Y232283D02*
D03*
X1874016Y146063D02*
D03*
X1625000Y497087D02*
D03*
X1250000Y302165D02*
D03*
Y268701D02*
D03*
X613786Y145115D02*
D03*
X613858Y186929D02*
D03*
X784094Y96378D02*
D03*
Y23500D02*
D03*
X734094Y96378D02*
D03*
Y23500D02*
D03*
X884094D02*
D03*
Y96378D02*
D03*
X834094D02*
D03*
Y23500D02*
D03*
X700858Y105378D02*
D03*
X693858Y146378D02*
D03*
X934094Y96378D02*
D03*
X994724D02*
D03*
X1052724D02*
D03*
X1044724Y25000D02*
D03*
X994724Y23500D02*
D03*
X934094D02*
D03*
X636264Y50000D02*
D03*
X682337Y23500D02*
D03*
X617858Y96378D02*
D03*
D79*
X1499258Y388210D02*
D03*
X1663382Y375196D02*
D03*
X1456693Y251673D02*
D03*
X1579134Y114961D02*
D03*
X1449960Y339934D02*
D03*
X1608661Y114134D02*
D03*
X611022Y585826D02*
D03*
X93399Y106672D02*
D03*
X131890Y175197D02*
D03*
X470078Y630707D02*
D03*
X472197Y655362D02*
D03*
X1282110Y371000D02*
D03*
X1192000Y541000D02*
D03*
X300000Y556451D02*
D03*
X376432Y640915D02*
D03*
X491000Y590000D02*
D03*
X509801Y446872D02*
D03*
X479012Y487227D02*
D03*
X491265Y464682D02*
D03*
X564175Y697833D02*
D03*
X460586Y357301D02*
D03*
X389716Y397657D02*
D03*
X576110Y670000D02*
D03*
X831913Y470000D02*
D03*
X614110Y245000D02*
D03*
X574013Y187055D02*
D03*
X552167Y538554D02*
D03*
X628160Y682258D02*
D03*
X592110Y621000D02*
D03*
X581771Y212381D02*
D03*
X437008Y630465D02*
D03*
X492083Y429155D02*
D03*
X595277Y704920D02*
D03*
X421575Y511836D02*
D03*
X147766Y571933D02*
D03*
X197835Y553676D02*
D03*
X353876Y256760D02*
D03*
X123955Y693931D02*
D03*
X385491Y360779D02*
D03*
X458617Y404547D02*
D03*
X431851Y722623D02*
D03*
X421579Y486244D02*
D03*
X270616Y628968D02*
D03*
X280514Y571933D02*
D03*
X236220Y363189D02*
D03*
X169233Y230326D02*
D03*
X310272Y96457D02*
D03*
X239877Y250000D02*
D03*
X91535Y298976D02*
D03*
X196850Y123634D02*
D03*
X278543Y160433D02*
D03*
X324110Y198000D02*
D03*
X60960Y565972D02*
D03*
X279474Y653575D02*
D03*
X299215Y419594D02*
D03*
X191042D02*
D03*
X151575Y405512D02*
D03*
X335041Y352755D02*
D03*
X383415Y96457D02*
D03*
X282427Y752989D02*
D03*
X362110Y198000D02*
D03*
X500766Y744676D02*
D03*
X258911Y373228D02*
D03*
X195571Y392225D02*
D03*
X1347323Y670118D02*
D03*
X1347913Y699646D02*
D03*
X1169882Y647636D02*
D03*
X399608Y571701D02*
D03*
X1065869Y414081D02*
D03*
X826182Y740353D02*
D03*
X530498Y558014D02*
D03*
X776182Y740943D02*
D03*
X597049Y737203D02*
D03*
X1043308Y503542D02*
D03*
X914110Y315000D02*
D03*
X809055Y308159D02*
D03*
X38386Y650748D02*
D03*
X1200745Y368203D02*
D03*
X518110Y225000D02*
D03*
X916110Y356000D02*
D03*
X1180497Y348620D02*
D03*
X566929Y135827D02*
D03*
X529528Y149606D02*
D03*
X1327752Y587257D02*
D03*
X1893799Y324500D02*
D03*
X800913Y125433D02*
D03*
X743308Y174017D02*
D03*
X773913Y176433D02*
D03*
X1175197Y259844D02*
D03*
X497873Y123031D02*
D03*
X1084646Y377378D02*
D03*
X40354Y612562D02*
D03*
D80*
X602047Y364567D02*
D03*
Y411811D02*
D03*
Y459055D02*
D03*
Y506299D02*
D03*
X649291Y364567D02*
D03*
Y411811D02*
D03*
Y459055D02*
D03*
Y506299D02*
D03*
X696535Y364567D02*
D03*
Y411811D02*
D03*
Y459055D02*
D03*
Y506299D02*
D03*
X743779Y364567D02*
D03*
Y411811D02*
D03*
Y459055D02*
D03*
Y506299D02*
D03*
D81*
X1126514Y613521D02*
X1126575Y613582D01*
X1125984Y614173D02*
X1126575Y613582D01*
D82*
X1709883Y614173D02*
X1716535D01*
X1125984D02*
X1166261D01*
X1580889Y671244D02*
X1594669Y657464D01*
X1166261Y614173D02*
X1290670Y738583D01*
X1457374Y671244D02*
X1580889D01*
X1390035Y738583D02*
X1457374Y671244D01*
X1290670Y738583D02*
X1390035D01*
X1594669Y657464D02*
X1666592D01*
X1709883Y614173D01*
%TF.MD5,2f7704e562d2e28e26d8ddf9438a7464*%
M02*
