%TF.GenerationSoftware,Altium Limited,Altium Designer,19.0.15 (446)*%
G04 Layer_Color=128*
%FSLAX26Y26*%
%MOIN*%
%TF.FileFunction,Drillmap*%
%TF.Part,Single*%
G01*
G75*
%TA.AperFunction,NonConductor*%
%ADD114C,0.005000*%
%ADD123C,0.003937*%
D114*
X1604535Y729921D02*
X1628535D01*
X1616535Y717921D02*
Y741921D01*
X1554535Y729921D02*
X1578535D01*
X1566535Y717921D02*
Y741921D01*
X1504535Y729921D02*
X1528535D01*
X1516535Y717921D02*
Y741921D01*
X1454535Y729921D02*
X1478535D01*
X1466535Y717921D02*
Y741921D01*
X863984Y729921D02*
X887984D01*
X875984Y717921D02*
Y741921D01*
X913984Y729921D02*
X937984D01*
X925984Y717921D02*
Y741921D01*
X963984Y729921D02*
X987984D01*
X975984Y717921D02*
Y741921D01*
X1013984Y729921D02*
X1037984D01*
X1025984Y717921D02*
Y741921D01*
X1875984Y659449D02*
X1911417D01*
X1893701Y641732D02*
Y677165D01*
X1875984Y541338D02*
X1911417D01*
X1893701Y523622D02*
Y559055D01*
X1702756Y53740D02*
X1722441D01*
X1712599Y43898D02*
Y63583D01*
X1442913Y53740D02*
X1462598D01*
X1452756Y43898D02*
Y63583D01*
X1366240Y403150D02*
X1381240D01*
X1373740Y395650D02*
Y410650D01*
X1366231Y351969D02*
X1381231D01*
X1373731Y344469D02*
Y359469D01*
X863984Y614173D02*
X887984D01*
X875984Y602173D02*
Y626173D01*
X913984Y614173D02*
X937984D01*
X925984Y602173D02*
Y626173D01*
X963984Y614173D02*
X987984D01*
X975984Y602173D02*
Y626173D01*
X1013984Y614173D02*
X1037984D01*
X1025984Y602173D02*
Y626173D01*
X1063984Y614173D02*
X1087984D01*
X1075984Y602173D02*
Y626173D01*
X1113984Y614173D02*
X1137984D01*
X1125984Y602173D02*
Y626173D01*
X1704535Y614173D02*
X1728535D01*
X1716535Y602173D02*
Y626173D01*
X1654535Y614173D02*
X1678535D01*
X1666535Y602173D02*
Y626173D01*
X1604535Y614173D02*
X1628535D01*
X1616535Y602173D02*
Y626173D01*
X1554535Y614173D02*
X1578535D01*
X1566535Y602173D02*
Y626173D01*
X1504535Y614173D02*
X1528535D01*
X1516535Y602173D02*
Y626173D01*
X1454535Y614173D02*
X1478535D01*
X1466535Y602173D02*
Y626173D01*
X140551Y62381D02*
X175984D01*
X158268Y44665D02*
Y80098D01*
X40551Y62381D02*
X75984D01*
X58268Y44665D02*
Y80098D01*
X1111615Y530707D02*
X1141142D01*
X1126378Y515944D02*
Y545471D01*
X1701378Y729921D02*
X1730906D01*
X1716142Y715158D02*
Y744685D01*
X1366929Y118110D02*
X1406299D01*
X1386614Y98425D02*
Y137795D01*
X1366929Y38583D02*
X1406299D01*
X1386614Y18898D02*
Y58268D01*
X1655417Y307087D02*
X1667417D01*
X1661417Y301087D02*
Y313087D01*
X1655417Y267717D02*
X1667417D01*
X1661417Y261717D02*
Y273717D01*
X1616047Y307087D02*
X1628047D01*
X1622047Y301087D02*
Y313087D01*
X1616047Y267716D02*
X1628047D01*
X1622047Y261716D02*
Y273716D01*
X1496266Y388210D02*
X1502250D01*
X1499258Y385218D02*
Y391202D01*
X1660390Y375196D02*
X1666375D01*
X1663382Y372204D02*
Y378188D01*
X1453701Y251673D02*
X1459685D01*
X1456693Y248681D02*
Y254665D01*
X1637701Y110376D02*
X1649701D01*
X1643701Y104376D02*
Y116376D01*
X1576142Y114961D02*
X1582126D01*
X1579134Y111969D02*
Y117953D01*
X1446968Y339934D02*
X1452953D01*
X1449960Y336942D02*
Y342926D01*
X1698721Y232283D02*
X1710721D01*
X1704721Y226283D02*
Y238283D01*
X1605669Y114134D02*
X1611653D01*
X1608661Y111142D02*
Y117126D01*
X1868016Y146063D02*
X1880016D01*
X1874016Y140063D02*
Y152063D01*
X1619000Y497087D02*
X1631000D01*
X1625000Y491087D02*
Y503087D01*
X608030Y585826D02*
X614014D01*
X611022Y582833D02*
Y588818D01*
X90446Y106672D02*
X96351D01*
X93399Y103720D02*
Y109625D01*
X128898Y175197D02*
X134882D01*
X131890Y172205D02*
Y178189D01*
X467086Y630707D02*
X473070D01*
X470078Y627715D02*
Y633699D01*
X469205Y655362D02*
X475189D01*
X472197Y652370D02*
Y658354D01*
X1244000Y302165D02*
X1256000D01*
X1250000Y296165D02*
Y308165D01*
X1244000Y268701D02*
X1256000D01*
X1250000Y262701D02*
Y274701D01*
X1279118Y371000D02*
X1285102D01*
X1282110Y368008D02*
Y373992D01*
X1189008Y541000D02*
X1194992D01*
X1192000Y538008D02*
Y543992D01*
X297008Y556451D02*
X302992D01*
X300000Y553459D02*
Y559443D01*
X373439Y640915D02*
X379424D01*
X376432Y637923D02*
Y643907D01*
X488008Y590000D02*
X493992D01*
X491000Y587008D02*
Y592992D01*
X595551Y364567D02*
X608543D01*
X602047Y358071D02*
Y371063D01*
X595551Y411811D02*
X608543D01*
X602047Y405315D02*
Y418307D01*
X595551Y459055D02*
X608543D01*
X602047Y452559D02*
Y465551D01*
X595551Y506299D02*
X608543D01*
X602047Y499803D02*
Y512795D01*
X642795Y364567D02*
X655787D01*
X649291Y358071D02*
Y371063D01*
X642795Y411811D02*
X655787D01*
X649291Y405315D02*
Y418307D01*
X642795Y459055D02*
X655787D01*
X649291Y452559D02*
Y465551D01*
X642795Y506299D02*
X655787D01*
X649291Y499803D02*
Y512795D01*
X690039Y364567D02*
X703031D01*
X696535Y358071D02*
Y371063D01*
X690039Y411811D02*
X703031D01*
X696535Y405315D02*
Y418307D01*
X690039Y459055D02*
X703031D01*
X696535Y452559D02*
Y465551D01*
X690039Y506299D02*
X703031D01*
X696535Y499803D02*
Y512795D01*
X737283Y364567D02*
X750275D01*
X743779Y358071D02*
Y371063D01*
X737283Y411811D02*
X750275D01*
X743779Y405315D02*
Y418307D01*
X737283Y459055D02*
X750275D01*
X743779Y452559D02*
Y465551D01*
X737283Y506299D02*
X750275D01*
X743779Y499803D02*
Y512795D01*
X506808Y446872D02*
X512793D01*
X509801Y443880D02*
Y449864D01*
X476020Y487227D02*
X482004D01*
X479012Y484235D02*
Y490219D01*
X488273Y464682D02*
X494257D01*
X491265Y461690D02*
Y467674D01*
X561183Y697833D02*
X567167D01*
X564175Y694841D02*
Y700825D01*
X457594Y357301D02*
X463578D01*
X460586Y354309D02*
Y360293D01*
X386724Y397657D02*
X392708D01*
X389716Y394665D02*
Y400649D01*
X573118Y670000D02*
X579102D01*
X576110Y667008D02*
Y672992D01*
X828921Y470000D02*
X834905D01*
X831913Y467008D02*
Y472992D01*
X611118Y245000D02*
X617102D01*
X614110Y242008D02*
Y247992D01*
X571020Y187055D02*
X577005D01*
X574013Y184063D02*
Y190047D01*
X549175Y538554D02*
X555159D01*
X552167Y535562D02*
Y541546D01*
X625168Y682258D02*
X631152D01*
X628160Y679266D02*
Y685250D01*
X589118Y621000D02*
X595102D01*
X592110Y618008D02*
Y623992D01*
X578779Y212381D02*
X584764D01*
X581771Y209389D02*
Y215373D01*
X434016Y630465D02*
X440000D01*
X437008Y627472D02*
Y633457D01*
X489091Y429155D02*
X495075D01*
X492083Y426163D02*
Y432147D01*
X592285Y704920D02*
X598269D01*
X595277Y701928D02*
Y707912D01*
X418583Y511836D02*
X424567D01*
X421575Y508844D02*
Y514828D01*
X144774Y571933D02*
X150758D01*
X147766Y568941D02*
Y574926D01*
X194843Y553676D02*
X200827D01*
X197835Y550683D02*
Y556668D01*
X350884Y256760D02*
X356868D01*
X353876Y253768D02*
Y259752D01*
X121002Y693931D02*
X126908D01*
X123955Y690979D02*
Y696884D01*
X382498Y360779D02*
X388483D01*
X385491Y357786D02*
Y363771D01*
X455625Y404547D02*
X461609D01*
X458617Y401555D02*
Y407539D01*
X428859Y722623D02*
X434843D01*
X431851Y719631D02*
Y725615D01*
X418587Y486244D02*
X424571D01*
X421579Y483252D02*
Y489236D01*
X267663Y628968D02*
X273568D01*
X270616Y626015D02*
Y631920D01*
X277522Y571933D02*
X283506D01*
X280514Y568941D02*
Y574926D01*
X233228Y363189D02*
X239213D01*
X236220Y360197D02*
Y366181D01*
X166280Y230326D02*
X172185D01*
X169233Y227373D02*
Y233279D01*
X307279Y96457D02*
X313264D01*
X310272Y93465D02*
Y99449D01*
X236885Y250000D02*
X242869D01*
X239877Y247008D02*
Y252992D01*
X88543Y298976D02*
X94528D01*
X91535Y295984D02*
Y301968D01*
X193898Y123634D02*
X199803D01*
X196850Y120682D02*
Y126587D01*
X275551Y160433D02*
X281535D01*
X278543Y157441D02*
Y163425D01*
X321118Y198000D02*
X327102D01*
X324110Y195008D02*
Y200992D01*
X58007Y565972D02*
X63913D01*
X60960Y563020D02*
Y568925D01*
X276482Y653575D02*
X282466D01*
X279474Y650583D02*
Y656567D01*
X296223Y419594D02*
X302207D01*
X299215Y416602D02*
Y422586D01*
X188050Y419594D02*
X194034D01*
X191042Y416602D02*
Y422586D01*
X148583Y405512D02*
X154567D01*
X151575Y402520D02*
Y408504D01*
X332049Y352755D02*
X338034D01*
X335041Y349763D02*
Y355747D01*
X380423Y96457D02*
X386408D01*
X383415Y93465D02*
Y99449D01*
X279435Y752989D02*
X285419D01*
X282427Y749997D02*
Y755981D01*
X359118Y198000D02*
X365102D01*
X362110Y195008D02*
Y200992D01*
X497774Y744676D02*
X503758D01*
X500766Y741684D02*
Y747668D01*
X255919Y373228D02*
X261903D01*
X258911Y370235D02*
Y376220D01*
X192579Y392225D02*
X198563D01*
X195571Y389233D02*
Y395217D01*
X1344331Y670118D02*
X1350315D01*
X1347323Y667126D02*
Y673110D01*
X1344921Y699646D02*
X1350905D01*
X1347913Y696654D02*
Y702638D01*
X1166890Y647636D02*
X1172874D01*
X1169882Y644644D02*
Y650629D01*
X396616Y571701D02*
X402600D01*
X399608Y568709D02*
Y574693D01*
X1062877Y414081D02*
X1068861D01*
X1065869Y411089D02*
Y417073D01*
X823190Y740353D02*
X829174D01*
X826182Y737361D02*
Y743345D01*
X527505Y558014D02*
X533490D01*
X530498Y555022D02*
Y561007D01*
X773190Y740943D02*
X779174D01*
X776182Y737951D02*
Y743935D01*
X594057Y737203D02*
X600041D01*
X597049Y734211D02*
Y740195D01*
X1040316Y503542D02*
X1046300D01*
X1043308Y500550D02*
Y506534D01*
X911118Y315000D02*
X917102D01*
X914110Y312008D02*
Y317992D01*
X806063Y308159D02*
X812047D01*
X809055Y305167D02*
Y311151D01*
X35394Y650748D02*
X41378D01*
X38386Y647756D02*
Y653740D01*
X607786Y145115D02*
X619786D01*
X613786Y139115D02*
Y151115D01*
X607858Y186929D02*
X619858D01*
X613858Y180929D02*
Y192929D01*
X1197753Y368203D02*
X1203737D01*
X1200745Y365211D02*
Y371195D01*
X515118Y225000D02*
X521102D01*
X518110Y222008D02*
Y227992D01*
X913118Y356000D02*
X919102D01*
X916110Y353008D02*
Y358992D01*
X1177505Y348620D02*
X1183489D01*
X1180497Y345628D02*
Y351612D01*
X563937Y135827D02*
X569921D01*
X566929Y132835D02*
Y138819D01*
X526535Y149606D02*
X532520D01*
X529528Y146614D02*
Y152598D01*
X1324760Y587257D02*
X1330744D01*
X1327752Y584265D02*
Y590249D01*
X1890807Y324500D02*
X1896791D01*
X1893799Y321508D02*
Y327492D01*
X778094Y96378D02*
X790094D01*
X784094Y90378D02*
Y102378D01*
X778094Y23500D02*
X790094D01*
X784094Y17500D02*
Y29500D01*
X797921Y125433D02*
X803905D01*
X800913Y122441D02*
Y128425D01*
X740316Y174017D02*
X746300D01*
X743308Y171025D02*
Y177009D01*
X770921Y176433D02*
X776905D01*
X773913Y173441D02*
Y179425D01*
X728094Y96378D02*
X740094D01*
X734094Y90378D02*
Y102378D01*
X728094Y23500D02*
X740094D01*
X734094Y17500D02*
Y29500D01*
X878094Y23500D02*
X890094D01*
X884094Y17500D02*
Y29500D01*
X878094Y96378D02*
X890094D01*
X884094Y90378D02*
Y102378D01*
X828094Y96378D02*
X840094D01*
X834094Y90378D02*
Y102378D01*
X828094Y23500D02*
X840094D01*
X834094Y17500D02*
Y29500D01*
X1172205Y259844D02*
X1178189D01*
X1175197Y256851D02*
Y262836D01*
X494881Y123031D02*
X500865D01*
X497873Y120039D02*
Y126023D01*
X1081653Y377378D02*
X1087638D01*
X1084646Y374386D02*
Y380370D01*
X37362Y612562D02*
X43346D01*
X40354Y609570D02*
Y615554D01*
X694858Y105378D02*
X706858D01*
X700858Y99378D02*
Y111378D01*
X687858Y146378D02*
X699858D01*
X693858Y140378D02*
Y152378D01*
X928094Y96378D02*
X940094D01*
X934094Y90378D02*
Y102378D01*
X988724Y96378D02*
X1000724D01*
X994724Y90378D02*
Y102378D01*
X1046724Y96378D02*
X1058724D01*
X1052724Y90378D02*
Y102378D01*
X1038724Y25000D02*
X1050724D01*
X1044724Y19000D02*
Y31000D01*
X988724Y23500D02*
X1000724D01*
X994724Y17500D02*
Y29500D01*
X928094Y23500D02*
X940094D01*
X934094Y17500D02*
Y29500D01*
X630264Y50000D02*
X642264D01*
X636264Y44000D02*
Y56000D01*
X676337Y23500D02*
X688337D01*
X682337Y17500D02*
Y29500D01*
X611858Y96378D02*
X623858D01*
X617858Y90378D02*
Y102378D01*
D123*
X1958661Y-0D02*
Y787402D01*
X-0Y787401D02*
X1957110Y787402D01*
X-0Y-0D02*
Y787401D01*
X15748Y-0D02*
X1972858Y-0D01*
%TF.MD5,f2e53289a24bc9f067a0060f89630535*%
M02*
