%TF.GenerationSoftware,Altium Limited,Altium Designer,19.0.15 (446)*%
G04 Layer_Color=0*
%FSLAX26Y26*%
%MOIN*%
%TF.FileFunction,Plated,1,4,PTH,Drill*%
%TF.Part,Single*%
G01*
G75*
%TA.AperFunction,ComponentDrill*%
%ADD136C,0.024000*%
%ADD137O,0.019685X0.047244*%
%ADD138C,0.035433*%
%ADD139C,0.029528*%
%ADD140C,0.039370*%
%TA.AperFunction,ViaDrill,NotFilled*%
%ADD141C,0.012000*%
%ADD142C,0.005984*%
%ADD143C,0.005906*%
%ADD144C,0.012992*%
D136*
X1616535Y729921D02*
D03*
X1566535D02*
D03*
X1516535D02*
D03*
X1466535D02*
D03*
X875984D02*
D03*
X925984D02*
D03*
X975984D02*
D03*
X1025984D02*
D03*
X875984Y614173D02*
D03*
X925984D02*
D03*
X975984D02*
D03*
X1025984D02*
D03*
X1075984D02*
D03*
X1125984D02*
D03*
X1716535D02*
D03*
X1666535D02*
D03*
X1616535D02*
D03*
X1566535D02*
D03*
X1516535D02*
D03*
X1466535D02*
D03*
D137*
X1712599Y53740D02*
D03*
X1452756D02*
D03*
D138*
X158268Y62381D02*
D03*
X58268D02*
D03*
D139*
X1126378Y530707D02*
D03*
X1716142Y729921D02*
D03*
D140*
X1386614Y118110D02*
D03*
Y38583D02*
D03*
D141*
X1661417Y307087D02*
D03*
Y267717D02*
D03*
X1622047Y307087D02*
D03*
Y267716D02*
D03*
X1643701Y110376D02*
D03*
X1704721Y232283D02*
D03*
X1874016Y146063D02*
D03*
X1625000Y497087D02*
D03*
X1250000Y302165D02*
D03*
Y268701D02*
D03*
X613786Y145115D02*
D03*
X613858Y186929D02*
D03*
X784094Y96378D02*
D03*
Y23500D02*
D03*
X734094Y96378D02*
D03*
Y23500D02*
D03*
X884094D02*
D03*
Y96378D02*
D03*
X834094D02*
D03*
Y23500D02*
D03*
X700858Y105378D02*
D03*
X693858Y146378D02*
D03*
X934094Y96378D02*
D03*
X994724D02*
D03*
X1052724D02*
D03*
X1044724Y25000D02*
D03*
X994724Y23500D02*
D03*
X934094D02*
D03*
X636264Y50000D02*
D03*
X682337Y23500D02*
D03*
X617858Y96378D02*
D03*
D142*
X1499258Y388210D02*
D03*
X1663382Y375196D02*
D03*
X1456693Y251673D02*
D03*
X1579134Y114961D02*
D03*
X1449960Y339934D02*
D03*
X1608661Y114134D02*
D03*
X611022Y585826D02*
D03*
X131890Y175197D02*
D03*
X470078Y630707D02*
D03*
X472197Y655362D02*
D03*
X1282110Y371000D02*
D03*
X1192000Y541000D02*
D03*
X300000Y556451D02*
D03*
X376432Y640915D02*
D03*
X491000Y590000D02*
D03*
X509801Y446872D02*
D03*
X479012Y487227D02*
D03*
X491265Y464682D02*
D03*
X564175Y697833D02*
D03*
X460586Y357301D02*
D03*
X389716Y397657D02*
D03*
X576110Y670000D02*
D03*
X831913Y470000D02*
D03*
X614110Y245000D02*
D03*
X574013Y187055D02*
D03*
X552167Y538554D02*
D03*
X628160Y682258D02*
D03*
X592110Y621000D02*
D03*
X581771Y212381D02*
D03*
X437008Y630465D02*
D03*
X492083Y429155D02*
D03*
X595277Y704920D02*
D03*
X421575Y511836D02*
D03*
X147766Y571933D02*
D03*
X197835Y553676D02*
D03*
X353876Y256760D02*
D03*
X385491Y360779D02*
D03*
X458617Y404547D02*
D03*
X431851Y722623D02*
D03*
X421579Y486244D02*
D03*
X280514Y571933D02*
D03*
X236220Y363189D02*
D03*
X310272Y96457D02*
D03*
X239877Y250000D02*
D03*
X91535Y298976D02*
D03*
X278543Y160433D02*
D03*
X324110Y198000D02*
D03*
X279474Y653575D02*
D03*
X299215Y419594D02*
D03*
X191042D02*
D03*
X151575Y405512D02*
D03*
X335041Y352755D02*
D03*
X383415Y96457D02*
D03*
X282427Y752989D02*
D03*
X362110Y198000D02*
D03*
X500766Y744676D02*
D03*
X258911Y373228D02*
D03*
X195571Y392225D02*
D03*
X1347323Y670118D02*
D03*
X1347913Y699646D02*
D03*
X1169882Y647636D02*
D03*
X399608Y571701D02*
D03*
X1065869Y414081D02*
D03*
X826182Y740353D02*
D03*
X530498Y558014D02*
D03*
X776182Y740943D02*
D03*
X597049Y737203D02*
D03*
X1043308Y503542D02*
D03*
X914110Y315000D02*
D03*
X809055Y308159D02*
D03*
X38386Y650748D02*
D03*
X1200745Y368203D02*
D03*
X518110Y225000D02*
D03*
X916110Y356000D02*
D03*
X1180497Y348620D02*
D03*
X566929Y135827D02*
D03*
X529528Y149606D02*
D03*
X1327752Y587257D02*
D03*
X1893799Y324500D02*
D03*
X800913Y125433D02*
D03*
X743308Y174017D02*
D03*
X773913Y176433D02*
D03*
X1175197Y259844D02*
D03*
X497873Y123031D02*
D03*
X1084646Y377378D02*
D03*
X40354Y612562D02*
D03*
D143*
X93399Y106672D02*
D03*
X123955Y693931D02*
D03*
X270616Y628968D02*
D03*
X169233Y230326D02*
D03*
X196850Y123634D02*
D03*
X60960Y565972D02*
D03*
D144*
X602047Y364567D02*
D03*
Y411811D02*
D03*
Y459055D02*
D03*
Y506299D02*
D03*
X649291Y364567D02*
D03*
Y411811D02*
D03*
Y459055D02*
D03*
Y506299D02*
D03*
X696535Y364567D02*
D03*
Y411811D02*
D03*
Y459055D02*
D03*
Y506299D02*
D03*
X743779Y364567D02*
D03*
Y411811D02*
D03*
Y459055D02*
D03*
Y506299D02*
D03*
%TF.MD5,a38452ca9503eaadd87acf9e7d9ba115*%
M02*
